<svg width="563" height="371" viewBox="0 0 563 371" fill="none" xmlns="http://www.w3.org/2000/svg">
<g clip-path="url(#clip0_39_508)">
<g filter="url(#filter0_d_39_508)">
<path d="M454.439 227.619C449.121 229.074 439.933 229.857 429.346 230.212C400.561 231.182 361.413 229.042 361.413 229.042C361.413 229.042 159.27 228.439 14.1513 153.653C14.1513 153.653 -6.74499 140.312 14.8777 126.628C18.2012 124.591 21.698 122.851 25.3274 121.428L25.5967 121.202C28.0886 119.268 30.7487 117.561 33.5451 116.1C41.7706 111.735 55.4421 106.896 71.2286 110.977L460.842 208.762C460.842 208.762 474.226 222.185 454.439 227.619Z" fill="#2A62FF"/>
<path d="M378.202 191.918L465.949 140.382L501.861 149.813L460.842 208.762C460.842 208.762 378.265 202.334 378.202 191.918Z" fill="#2A62FF"/>
<path d="M173.029 138.41L341.745 106.388L367.824 114.215L290.53 141.277L265.039 165.283L173.029 138.41Z" fill="#2A62FF"/>
<path d="M429.337 230.317C400.552 231.287 361.404 229.146 361.404 229.146C361.404 229.146 159.261 228.543 14.1423 153.758C14.1423 153.758 -6.75399 140.417 14.8687 126.733L14.9128 127.024C14.9128 127.024 45.4897 151.734 199.008 183.353L429.337 230.317Z" fill="#97C3F3"/>
<path d="M402.973 226.673L474.049 263.051L492.729 262.589L451.514 225.716C451.514 225.716 399.2 209.778 402.973 226.673Z" fill="#2A62FF"/>
<path d="M41.3545 132.423C37.8355 132.18 30.2897 125.599 25.6231 121.204C28.1149 119.27 30.775 117.563 33.5715 116.103C37.342 119.544 44.0929 125.17 48.1038 125.318C53.8911 125.576 46.6547 132.783 41.3545 132.423Z" fill="#97C3F3"/>
<path d="M361.672 327.774L314.168 326.185L188.9 225.178L165.646 206.424L154.353 197.312C178.476 180.263 267.997 214.322 267.997 214.322C269.627 215.954 269.975 218.464 269.662 221.178C269.072 226.258 266.163 232.031 265.055 234.103C264.788 234.611 264.627 234.879 264.627 234.879L361.672 327.774Z" fill="#2A62FF"/>
</g>
<g filter="url(#filter1_d_39_508)">
<path d="M215.063 271.008L206.828 276.216L211.817 267.151C210.404 266.025 208.656 265.401 206.849 265.378H206.717C206.146 265.389 205.575 265.347 205.012 265.251L202.226 267.018L203.418 264.849C201.444 264.157 199.74 262.86 198.546 261.145L193.563 264.32L196.708 258.594C193.796 255.096 189.866 252.953 185.54 252.953C180.355 252.953 175.737 256.033 172.756 260.838C171.872 262.277 170.622 263.456 169.133 264.255C167.645 265.054 165.971 265.446 164.283 265.389H164.007C158.283 265.389 153.644 271.871 153.644 279.872C153.644 287.873 158.283 294.356 164.007 294.356C165.265 294.352 166.503 294.041 167.614 293.451C169.563 292.506 171.694 291.995 173.86 291.953C176.026 291.911 178.175 292.339 180.159 293.208C181.837 293.956 183.654 294.343 185.492 294.343C187.33 294.343 189.147 293.956 190.825 293.208C192.793 292.355 194.921 291.935 197.065 291.977C199.209 292.018 201.32 292.519 203.254 293.446C204.357 294.021 205.583 294.324 206.828 294.329C212.553 294.329 217.192 287.847 217.192 279.846C217.233 276.768 216.501 273.73 215.063 271.008Z" fill="white"/>
<path opacity="0.03" d="M199.573 292.202C196.583 291.637 193.492 291.972 190.692 293.165C189.016 293.915 187.199 294.303 185.362 294.303C183.525 294.303 181.709 293.915 180.032 293.165C178.048 292.294 175.899 291.865 173.733 291.907C171.566 291.949 169.435 292.461 167.487 293.409C166.373 293.997 165.134 294.308 163.875 294.314C158.791 294.314 154.56 289.191 153.681 282.439C154.698 281.701 155.561 280.771 156.223 279.703C159.204 274.903 163.822 271.823 169.006 271.823C174.191 271.823 178.761 274.84 181.737 279.602C182.625 281.038 183.87 282.22 185.35 283.033C186.83 283.846 188.495 284.263 190.184 284.243H190.316C194.362 284.233 197.868 287.471 199.573 292.202Z" fill="#000370"/>
<path d="M447.543 264.129L439.309 269.336L444.297 260.272C442.885 259.145 441.137 258.522 439.33 258.499H439.197C438.626 258.51 438.055 258.467 437.492 258.372L434.707 260.139L435.898 257.97C433.925 257.278 432.22 255.981 431.026 254.265L426.043 257.44L429.189 251.715C426.276 248.217 422.347 246.074 418.02 246.074C412.836 246.074 408.218 249.154 405.236 253.958C404.352 255.397 403.102 256.577 401.614 257.376C400.126 258.175 398.452 258.566 396.763 258.509H396.488C390.763 258.509 386.124 264.992 386.124 272.993C386.124 280.994 390.763 287.477 396.488 287.477C397.746 287.473 398.984 287.162 400.094 286.572C402.043 285.627 404.174 285.116 406.34 285.074C408.506 285.032 410.655 285.46 412.64 286.328C414.318 287.077 416.135 287.463 417.972 287.463C419.81 287.463 421.627 287.077 423.305 286.328C425.273 285.476 427.401 285.056 429.546 285.097C431.69 285.138 433.8 285.639 435.734 286.567C436.838 287.142 438.064 287.445 439.309 287.45C445.033 287.45 449.672 280.968 449.672 272.967C449.714 269.889 448.982 266.851 447.543 264.129V264.129Z" fill="white"/>
<path opacity="0.03" d="M432.054 285.323C429.063 284.757 425.972 285.093 423.173 286.286C421.496 287.036 419.68 287.424 417.843 287.424C416.006 287.424 414.189 287.036 412.513 286.286C410.529 285.415 408.379 284.986 406.213 285.028C404.047 285.07 401.915 285.582 399.967 286.529C398.854 287.118 397.615 287.428 396.355 287.434C391.272 287.434 387.04 282.312 386.161 275.559C387.178 274.821 388.042 273.892 388.703 272.824C391.685 268.024 396.302 264.944 401.487 264.944C406.671 264.944 411.242 267.96 414.218 272.723C415.108 274.162 416.357 275.347 417.842 276.16C419.327 276.973 420.998 277.388 422.691 277.364H422.823C426.843 277.353 430.348 280.592 432.054 285.323Z" fill="#000370"/>
<path d="M447.543 90.5585L439.309 95.7657L444.297 86.7008C442.885 85.5746 441.137 84.9508 439.33 84.9281H439.197C438.626 84.9392 438.055 84.8967 437.492 84.8011L434.707 86.5685L435.898 84.3989C433.925 83.7067 432.22 82.4106 431.026 80.6946L426.043 83.8697L429.189 78.144C426.276 74.6461 422.347 72.5029 418.02 72.5029C412.836 72.5029 408.218 75.5828 405.236 80.3877C404.352 81.8266 403.102 83.0057 401.614 83.8051C400.126 84.6045 398.452 84.9956 396.763 84.9387H396.488C390.763 84.9387 386.124 91.4211 386.124 99.4223C386.124 107.423 390.763 113.906 396.488 113.906C397.746 113.902 398.984 113.591 400.094 113.001C402.043 112.056 404.174 111.545 406.34 111.503C408.506 111.461 410.655 111.889 412.64 112.758C414.316 113.51 416.132 113.901 417.97 113.906C419.807 113.91 421.625 113.528 423.305 112.784C425.273 111.932 427.401 111.512 429.545 111.553C431.69 111.594 433.8 112.095 435.734 113.022C436.838 113.598 438.064 113.901 439.309 113.906C445.033 113.906 449.672 107.423 449.672 99.4223C449.718 96.336 448.986 93.2879 447.543 90.5585V90.5585Z" fill="white"/>
<path opacity="0.03" d="M432.054 111.752C429.063 111.187 425.972 111.522 423.173 112.715C421.496 113.465 419.68 113.853 417.843 113.853C416.006 113.853 414.189 113.465 412.513 112.715C410.529 111.844 408.379 111.415 406.213 111.457C404.047 111.499 401.915 112.011 399.967 112.959C398.854 113.547 397.615 113.858 396.355 113.863C391.272 113.863 387.04 108.741 386.161 101.989C387.178 101.25 388.042 100.321 388.703 99.2528C391.685 94.4531 396.302 91.3733 401.487 91.3733C406.671 91.3733 411.242 94.3896 414.218 99.1522C415.108 100.592 416.357 101.776 417.842 102.589C419.327 103.402 420.998 103.817 422.691 103.793H422.823C426.843 103.783 430.348 107.021 432.054 111.752Z" fill="#000370"/>
<path d="M107.55 71.8308L103.446 74.429L105.935 69.9098C105.231 69.3449 104.359 69.0319 103.456 69.0208H103.393C103.107 69.0238 102.822 69.0025 102.54 68.9573L101.153 69.8358L101.746 68.7774C100.761 68.4327 99.9108 67.7864 99.3152 66.9306L96.8316 68.5181L98.4203 65.6658C97.7597 64.8121 96.9168 64.1163 95.953 63.6293C94.9892 63.1423 93.9289 62.8763 92.8492 62.8506C90.2649 62.8506 87.9613 64.3852 86.4944 66.7824C86.0529 67.502 85.4279 68.0914 84.6835 68.4903C83.9391 68.8892 83.102 69.0833 82.2578 69.0526H82.1202C79.2658 69.0526 76.9516 72.2911 76.9516 76.2812C76.9516 80.2712 79.2658 83.5044 82.1202 83.5044C82.7479 83.5024 83.3658 83.348 83.9207 83.0546C84.8927 82.5818 85.9561 82.326 87.037 82.305C88.1179 82.284 89.1905 82.4982 90.1802 82.9329C91.0138 83.3032 91.9158 83.4945 92.828 83.4945C93.7402 83.4945 94.6423 83.3032 95.4759 82.9329C96.4577 82.5073 97.5197 82.2979 98.5898 82.3189C99.6598 82.3399 100.713 82.5908 101.677 83.0546C102.227 83.3392 102.837 83.4897 103.456 83.4939C106.311 83.4939 108.625 80.2606 108.625 76.2706C108.645 74.724 108.275 73.1971 107.55 71.8308Z" fill="white"/>
<path opacity="0.03" d="M99.8236 82.4037C98.3312 82.118 96.7873 82.2858 95.3912 82.8852C94.5569 83.2533 93.6553 83.4443 92.7433 83.4461C91.821 83.4459 90.9093 83.2492 90.069 82.8693C89.0786 82.4365 88.006 82.2237 86.9253 82.2456C85.8445 82.2675 84.7815 82.5237 83.8095 82.9963C83.2565 83.2897 82.6403 83.4441 82.0142 83.4461C79.4776 83.4461 77.3646 80.8902 76.9251 77.5246C77.4311 77.1537 77.8623 76.6904 78.1961 76.1593C79.6789 73.7622 81.9825 72.2275 84.5509 72.2275C87.1193 72.2275 89.4123 73.7463 90.9057 76.1117C91.3508 76.831 91.9753 77.4224 92.718 77.8278C93.4607 78.2332 94.2961 78.4387 95.1423 78.4242H95.2111C97.2076 78.4242 98.971 80.0435 99.8236 82.4037Z" fill="#000370"/>
<path d="M472.952 330.599L468.848 333.198L471.337 328.678C470.634 328.113 469.761 327.8 468.859 327.789H468.795C468.51 327.792 468.224 327.771 467.942 327.726L466.555 328.604L467.148 327.546C466.164 327.201 465.313 326.555 464.717 325.699L462.234 327.287L463.822 324.434C463.162 323.581 462.319 322.885 461.355 322.398C460.391 321.911 459.331 321.645 458.251 321.619C455.667 321.619 453.363 323.154 451.897 325.551C451.455 326.271 450.83 326.86 450.086 327.259C449.341 327.658 448.504 327.852 447.66 327.821H447.522C444.668 327.821 442.354 331.06 442.354 335.05C442.354 339.04 444.668 342.273 447.522 342.273C448.15 342.271 448.768 342.117 449.323 341.823C450.295 341.35 451.358 341.095 452.439 341.074C453.52 341.052 454.593 341.267 455.582 341.701C456.416 342.072 457.318 342.263 458.23 342.263C459.142 342.263 460.044 342.072 460.878 341.701C461.86 341.276 462.922 341.066 463.992 341.087C465.062 341.108 466.115 341.359 467.079 341.823C467.629 342.108 468.239 342.258 468.859 342.262C471.713 342.262 474.027 339.029 474.027 335.039C474.047 333.492 473.678 331.966 472.952 330.599V330.599Z" fill="white"/>
<path opacity="0.03" d="M465.226 341.172C463.733 340.887 462.189 341.055 460.793 341.654C459.959 342.022 459.057 342.213 458.145 342.215C457.223 342.215 456.311 342.018 455.471 341.638C454.481 341.205 453.408 340.992 452.327 341.014C451.247 341.036 450.184 341.292 449.212 341.765C448.659 342.058 448.042 342.213 447.416 342.215C444.88 342.215 442.767 339.659 442.327 336.293C442.833 335.922 443.264 335.459 443.598 334.928C445.081 332.531 447.385 330.996 449.953 330.996C452.521 330.996 454.814 332.515 456.308 334.881C456.753 335.6 457.377 336.191 458.12 336.597C458.863 337.002 459.698 337.208 460.544 337.193H460.613C462.61 337.193 464.373 338.812 465.226 341.172Z" fill="#000370"/>
<path d="M91.663 344.358L87.5588 346.956L90.0478 342.437C89.3444 341.872 88.4718 341.559 87.5694 341.548H87.5059C87.2204 341.551 86.9352 341.53 86.6533 341.485L85.2658 342.363L85.8589 341.305C84.8744 340.96 84.0238 340.314 83.4282 339.458L80.9445 341.045L82.5332 338.193C81.8726 337.339 81.0297 336.644 80.066 336.157C79.1022 335.67 78.0419 335.404 76.9622 335.378C74.3779 335.378 72.0743 336.913 70.6074 339.31C70.1659 340.029 69.5409 340.619 68.7965 341.018C68.0521 341.417 67.2149 341.611 66.3708 341.58H66.2331C63.3787 341.58 61.0645 344.818 61.0645 348.808C61.0645 352.799 63.3787 356.032 66.2331 356.032C66.8609 356.03 67.4788 355.875 68.0336 355.582C69.0057 355.109 70.0691 354.853 71.15 354.832C72.2309 354.811 73.3034 355.026 74.2931 355.46C75.1267 355.83 76.0288 356.022 76.941 356.022C77.8532 356.022 78.7553 355.83 79.5888 355.46C80.5707 355.035 81.6327 354.825 82.7027 354.846C83.7727 354.867 84.8257 355.118 85.7901 355.582C86.3402 355.866 86.95 356.017 87.5694 356.021C90.4238 356.021 92.738 352.788 92.738 348.798C92.7581 347.251 92.3884 345.724 91.663 344.358V344.358Z" fill="white"/>
<path opacity="0.03" d="M83.9366 354.931C82.4441 354.645 80.9003 354.813 79.5041 355.413C78.6698 355.781 77.7682 355.972 76.8563 355.973C75.9339 355.973 75.0223 355.777 74.1819 355.397C73.1916 354.964 72.1189 354.751 71.0382 354.773C69.9575 354.795 68.8944 355.051 67.9224 355.524C67.3694 355.817 66.7533 355.971 66.1272 355.973C63.5906 355.973 61.4776 353.418 61.038 350.052C61.544 349.681 61.9753 349.218 62.309 348.687C63.7918 346.289 66.0954 344.755 68.6638 344.755C71.2322 344.755 73.5253 346.274 75.0187 348.639C75.4637 349.358 76.0882 349.95 76.8309 350.355C77.5736 350.76 78.409 350.966 79.2552 350.952H79.324C81.3205 350.952 83.084 352.571 83.9366 354.931Z" fill="#000370"/>
<path d="M281.259 18.0608L273.024 23.268L278.013 14.2031C276.6 13.0769 274.852 12.4531 273.045 12.4304H272.913C272.342 12.4415 271.771 12.399 271.208 12.3034L268.422 14.0708L269.614 11.9012C267.64 11.2091 265.936 9.91288 264.742 8.19694L259.759 11.372L262.904 5.6463C259.992 2.14843 256.062 0.00524902 251.736 0.00524902C246.551 0.00524902 241.933 3.08507 238.952 7.89002C238.068 9.32891 236.818 10.508 235.33 11.3074C233.841 12.1068 232.167 12.4979 230.479 12.441H230.203C224.479 12.441 219.84 18.9234 219.84 26.9246C219.84 34.9258 224.479 41.4082 230.203 41.4082C231.461 41.4042 232.699 41.0936 233.81 40.5033C235.759 39.5585 237.89 39.0474 240.056 39.0054C242.222 38.9634 244.371 39.3914 246.355 40.2599C248.031 41.0124 249.848 41.4037 251.685 41.4082C253.523 41.4128 255.341 41.0305 257.021 40.2864C258.989 39.4341 261.117 39.0143 263.261 39.0554C265.405 39.0965 267.516 39.5975 269.45 40.5245C270.553 41.1001 271.779 41.4031 273.024 41.4082C278.749 41.4082 283.388 34.9258 283.388 26.9246C283.434 23.8383 282.701 20.7902 281.259 18.0608V18.0608Z" fill="white"/>
<path opacity="0.03" d="M265.769 39.2544C262.779 38.689 259.688 39.0243 256.888 40.2175C255.212 40.9677 253.395 41.3555 251.558 41.3555C249.721 41.3555 247.905 40.9677 246.228 40.2175C244.244 39.3466 242.095 38.9172 239.929 38.9592C237.762 39.0013 235.631 39.5137 233.683 40.4609C232.569 41.0495 231.33 41.36 230.071 41.3658C224.987 41.3658 220.756 36.2434 219.877 29.4911C220.894 28.7529 221.757 27.8236 222.419 26.7552C225.4 21.9556 230.018 18.8757 235.202 18.8757C240.387 18.8757 244.957 21.8921 247.933 26.6547C248.824 28.094 250.072 29.2782 251.557 30.0915C253.042 30.9049 254.713 31.3197 256.406 31.2956H256.539C260.558 31.285 264.064 34.5236 265.769 39.2544Z" fill="#000370"/>
<path d="M561.92 108.873L557.816 111.472L560.305 106.952C559.601 106.387 558.729 106.074 557.826 106.063H557.763C557.477 106.066 557.192 106.045 556.91 106L555.522 106.878L556.116 105.82C555.131 105.475 554.28 104.829 553.685 103.973L551.201 105.561L552.79 102.708C552.129 101.855 551.286 101.159 550.323 100.672C549.359 100.185 548.299 99.9187 547.219 99.8931C544.635 99.8931 542.331 101.428 540.864 103.825C540.423 104.544 539.798 105.134 539.053 105.533C538.309 105.932 537.472 106.126 536.628 106.095H536.49C533.635 106.095 531.321 109.334 531.321 113.324C531.321 117.314 533.635 120.547 536.49 120.547C537.118 120.545 537.735 120.391 538.29 120.097C539.262 119.624 540.326 119.368 541.407 119.347C542.488 119.326 543.56 119.541 544.55 119.975C545.383 120.346 546.285 120.537 547.198 120.537C548.11 120.537 549.012 120.346 549.846 119.975C550.827 119.55 551.889 119.34 552.959 119.361C554.029 119.382 555.082 119.633 556.047 120.097C556.597 120.382 557.207 120.532 557.826 120.536C560.681 120.536 562.995 117.303 562.995 113.313C563.015 111.766 562.645 110.24 561.92 108.873V108.873Z" fill="white"/>
<path opacity="0.03" d="M554.193 119.446C552.701 119.161 551.157 119.328 549.761 119.928C548.926 120.296 548.025 120.487 547.113 120.489C546.199 120.485 545.297 120.288 544.465 119.912C543.475 119.479 542.402 119.266 541.321 119.288C540.241 119.31 539.178 119.566 538.206 120.039C537.653 120.332 537.036 120.487 536.41 120.489C533.874 120.489 531.761 117.933 531.321 114.567C531.827 114.196 532.258 113.733 532.592 113.202C534.075 110.805 536.379 109.27 538.947 109.27C541.515 109.27 543.808 110.789 545.302 113.154C545.745 113.87 546.365 114.459 547.102 114.864C547.84 115.269 548.67 115.477 549.512 115.467H549.581C551.577 115.467 553.341 117.086 554.193 119.446Z" fill="#000370"/>
</g>
</g>
<defs>
<filter id="filter0_d_39_508" x="3.0666" y="106.388" width="506.795" height="231.385" filterUnits="userSpaceOnUse" color-interpolation-filters="sRGB">
<feFlood flood-opacity="0" result="BackgroundImageFix"/>
<feColorMatrix in="SourceAlpha" type="matrix" values="0 0 0 0 0 0 0 0 0 0 0 0 0 0 0 0 0 0 127 0" result="hardAlpha"/>
<feOffset dx="3" dy="5"/>
<feGaussianBlur stdDeviation="2.5"/>
<feComposite in2="hardAlpha" operator="out"/>
<feColorMatrix type="matrix" values="0 0 0 0 0 0 0 0 0 0.0117647 0 0 0 0 0.439216 0 0 0 0.35 0"/>
<feBlend mode="normal" in2="BackgroundImageFix" result="effect1_dropShadow_39_508"/>
<feBlend mode="normal" in="SourceGraphic" in2="effect1_dropShadow_39_508" result="shape"/>
</filter>
<filter id="filter1_d_39_508" x="59.038" y="0.00524902" width="511.958" height="366.026" filterUnits="userSpaceOnUse" color-interpolation-filters="sRGB">
<feFlood flood-opacity="0" result="BackgroundImageFix"/>
<feColorMatrix in="SourceAlpha" type="matrix" values="0 0 0 0 0 0 0 0 0 0 0 0 0 0 0 0 0 0 127 0" result="hardAlpha"/>
<feOffset dx="3" dy="5"/>
<feGaussianBlur stdDeviation="2.5"/>
<feComposite in2="hardAlpha" operator="out"/>
<feColorMatrix type="matrix" values="0 0 0 0 0 0 0 0 0 0.0117647 0 0 0 0 0.439216 0 0 0 0.35 0"/>
<feBlend mode="normal" in2="BackgroundImageFix" result="effect1_dropShadow_39_508"/>
<feBlend mode="normal" in="SourceGraphic" in2="effect1_dropShadow_39_508" result="shape"/>
</filter>
<clipPath id="clip0_39_508">
<rect width="563" height="371" fill="white"/>
</clipPath>
</defs>
</svg>
