<svg width="48" height="46" viewBox="0 0 48 46" fill="none" xmlns="http://www.w3.org/2000/svg">
<path d="M41.52 3.84H39.3024V6C39.3024 7.9872 37.6896 9.6 35.7024 9.6C33.7152 9.6 32.1024 7.9872 32.1024 6V3.84H16.2624V6C16.2624 7.9872 14.6496 9.6 12.6624 9.6C10.6752 9.6 9.0624 7.9872 9.0624 6V3.84H6.48C2.8992 3.84 0 6.7392 0 10.32V12.72H48V10.32C48 6.7392 45.1008 3.84 41.52 3.84Z" fill="#FDBB06"/>
<path d="M0 39.12C0 42.7008 2.8992 45.6 6.48 45.6H41.52C45.1008 45.6 48 42.7008 48 39.12V14.16H0V39.12ZM40.8 18C41.5296 18 42.12 18.5904 42.12 19.32C42.12 20.0496 41.5296 20.64 40.8 20.64C40.0704 20.64 39.48 20.0496 39.48 19.32C39.48 18.5904 40.0704 18 40.8 18ZM40.8 22.8C41.5296 22.8 42.12 23.3904 42.12 24.12C42.12 24.8496 41.5296 25.44 40.8 25.44C40.0704 25.44 39.48 24.8496 39.48 24.12C39.48 23.3904 40.0704 22.8 40.8 22.8ZM40.8 27.6C41.5296 27.6 42.12 28.1904 42.12 28.92C42.12 29.6496 41.5296 30.24 40.8 30.24C40.0704 30.24 39.48 29.6496 39.48 28.92C39.48 28.1904 40.0704 27.6 40.8 27.6ZM40.8 32.4C41.5296 32.4 42.12 32.9904 42.12 33.72C42.12 34.4496 41.5296 35.04 40.8 35.04C40.0704 35.04 39.48 34.4496 39.48 33.72C39.48 32.9904 40.0704 32.4 40.8 32.4ZM35.1984 18C35.928 18 36.5184 18.5904 36.5184 19.32C36.5184 20.0496 35.928 20.64 35.1984 20.64C34.4688 20.64 33.8784 20.0496 33.8784 19.32C33.8784 18.5904 34.4688 18 35.1984 18ZM35.1984 22.8C35.928 22.8 36.5184 23.3904 36.5184 24.12C36.5184 24.8496 35.928 25.44 35.1984 25.44C34.4688 25.44 33.8784 24.8496 33.8784 24.12C33.8784 23.3904 34.4688 22.8 35.1984 22.8ZM35.1984 27.6C35.928 27.6 36.5184 28.1904 36.5184 28.92C36.5184 29.6496 35.928 30.24 35.1984 30.24C34.4688 30.24 33.8784 29.6496 33.8784 28.92C33.8784 28.1904 34.4688 27.6 35.1984 27.6ZM35.1984 32.4C35.928 32.4 36.5184 32.9904 36.5184 33.72C36.5184 34.4496 35.928 35.04 35.1984 35.04C34.4688 35.04 33.8784 34.4496 33.8784 33.72C33.8784 32.9904 34.4688 32.4 35.1984 32.4ZM29.6016 18C30.3312 18 30.9216 18.5904 30.9216 19.32C30.9216 20.0496 30.3312 20.64 29.6016 20.64C28.872 20.64 28.2816 20.0496 28.2816 19.32C28.2816 18.5904 28.872 18 29.6016 18ZM29.6016 22.8C30.3312 22.8 30.9216 23.3904 30.9216 24.12C30.9216 24.8496 30.3312 25.44 29.6016 25.44C28.872 25.44 28.2816 24.8496 28.2816 24.12C28.2816 23.3904 28.872 22.8 29.6016 22.8ZM29.6016 27.6C30.3312 27.6 30.9216 28.1904 30.9216 28.92C30.9216 29.6496 30.3312 30.24 29.6016 30.24C28.872 30.24 28.2816 29.6496 28.2816 28.92C28.2816 28.1904 28.872 27.6 29.6016 27.6ZM29.6016 32.4C30.3312 32.4 30.9216 32.9904 30.9216 33.72C30.9216 34.4496 30.3312 35.04 29.6016 35.04C28.872 35.04 28.2816 34.4496 28.2816 33.72C28.2816 32.9904 28.872 32.4 29.6016 32.4ZM29.6016 37.2C30.3312 37.2 30.9216 37.7904 30.9216 38.52C30.9216 39.2496 30.3312 39.84 29.6016 39.84C28.872 39.84 28.2816 39.2496 28.2816 38.52C28.2816 37.7904 28.872 37.2 29.6016 37.2ZM24 18C24.7296 18 25.32 18.5904 25.32 19.32C25.32 20.0496 24.7296 20.64 24 20.64C23.2704 20.64 22.68 20.0496 22.68 19.32C22.68 18.5904 23.2704 18 24 18ZM24 22.8C24.7296 22.8 25.32 23.3904 25.32 24.12C25.32 24.8496 24.7296 25.44 24 25.44C23.2704 25.44 22.68 24.8496 22.68 24.12C22.68 23.3904 23.2704 22.8 24 22.8ZM24 27.6C24.7296 27.6 25.32 28.1904 25.32 28.92C25.32 29.6496 24.7296 30.24 24 30.24C23.2704 30.24 22.68 29.6496 22.68 28.92C22.68 28.1904 23.2704 27.6 24 27.6ZM24 32.4C24.7296 32.4 25.32 32.9904 25.32 33.72C25.32 34.4496 24.7296 35.04 24 35.04C23.2704 35.04 22.68 34.4496 22.68 33.72C22.68 32.9904 23.2704 32.4 24 32.4ZM24 37.2C24.7296 37.2 25.32 37.7904 25.32 38.52C25.32 39.2496 24.7296 39.84 24 39.84C23.2704 39.84 22.68 39.2496 22.68 38.52C22.68 37.7904 23.2704 37.2 24 37.2ZM18.3984 18C19.128 18 19.7184 18.5904 19.7184 19.32C19.7184 20.0496 19.128 20.64 18.3984 20.64C17.6688 20.64 17.0784 20.0496 17.0784 19.32C17.0784 18.5904 17.6688 18 18.3984 18ZM18.3984 22.8C19.128 22.8 19.7184 23.3904 19.7184 24.12C19.7184 24.8496 19.128 25.44 18.3984 25.44C17.6688 25.44 17.0784 24.8496 17.0784 24.12C17.0784 23.3904 17.6688 22.8 18.3984 22.8ZM18.3984 27.6C19.128 27.6 19.7184 28.1904 19.7184 28.92C19.7184 29.6496 19.128 30.24 18.3984 30.24C17.6688 30.24 17.0784 29.6496 17.0784 28.92C17.0784 28.1904 17.6688 27.6 18.3984 27.6ZM18.3984 32.4C19.128 32.4 19.7184 32.9904 19.7184 33.72C19.7184 34.4496 19.128 35.04 18.3984 35.04C17.6688 35.04 17.0784 34.4496 17.0784 33.72C17.0784 32.9904 17.6688 32.4 18.3984 32.4ZM18.3984 37.2C19.128 37.2 19.7184 37.7904 19.7184 38.52C19.7184 39.2496 19.128 39.84 18.3984 39.84C17.6688 39.84 17.0784 39.2496 17.0784 38.52C17.0784 37.7904 17.6688 37.2 18.3984 37.2ZM12.8016 22.8C13.5312 22.8 14.1216 23.3904 14.1216 24.12C14.1216 24.8496 13.5312 25.44 12.8016 25.44C12.072 25.44 11.4816 24.8496 11.4816 24.12C11.4816 23.3904 12.072 22.8 12.8016 22.8ZM12.8016 27.6C13.5312 27.6 14.1216 28.1904 14.1216 28.92C14.1216 29.6496 13.5312 30.24 12.8016 30.24C12.072 30.24 11.4816 29.6496 11.4816 28.92C11.4816 28.1904 12.072 27.6 12.8016 27.6ZM12.8016 32.4C13.5312 32.4 14.1216 32.9904 14.1216 33.72C14.1216 34.4496 13.5312 35.04 12.8016 35.04C12.072 35.04 11.4816 34.4496 11.4816 33.72C11.4816 32.9904 12.072 32.4 12.8016 32.4ZM12.8016 37.2C13.5312 37.2 14.1216 37.7904 14.1216 38.52C14.1216 39.2496 13.5312 39.84 12.8016 39.84C12.072 39.84 11.4816 39.2496 11.4816 38.52C11.4816 37.7904 12.072 37.2 12.8016 37.2ZM7.2 22.8C7.9296 22.8 8.52 23.3904 8.52 24.12C8.52 24.8496 7.9296 25.44 7.2 25.44C6.4704 25.44 5.88 24.8496 5.88 24.12C5.88 23.3904 6.4704 22.8 7.2 22.8ZM7.2 27.6C7.9296 27.6 8.52 28.1904 8.52 28.92C8.52 29.6496 7.9296 30.24 7.2 30.24C6.4704 30.24 5.88 29.6496 5.88 28.92C5.88 28.1904 6.4704 27.6 7.2 27.6ZM7.2 32.4C7.9296 32.4 8.52 32.9904 8.52 33.72C8.52 34.4496 7.9296 35.04 7.2 35.04C6.4704 35.04 5.88 34.4496 5.88 33.72C5.88 32.9904 6.4704 32.4 7.2 32.4ZM7.2 37.2C7.9296 37.2 8.52 37.7904 8.52 38.52C8.52 39.2496 7.9296 39.84 7.2 39.84C6.4704 39.84 5.88 39.2496 5.88 38.52C5.88 37.7904 6.4704 37.2 7.2 37.2Z" fill="#FDBB06"/>
<path d="M12.7201 8.16C13.9153 8.16 14.8801 7.1952 14.8801 6V2.16C14.8801 0.9648 13.9153 0 12.7201 0C11.5249 0 10.5601 0.9648 10.5601 2.16V6C10.5601 7.1952 11.5249 8.16 12.7201 8.16Z" fill="#FDBB06"/>
<path d="M35.76 8.16C36.9552 8.16 37.92 7.1952 37.92 6V2.16C37.92 0.9648 36.9552 0 35.76 0C34.5648 0 33.6 0.9648 33.6 2.16V6C33.6 7.1952 34.5648 8.16 35.76 8.16Z" fill="#FDBB06"/>
</svg>
