<svg width="79" height="87" viewBox="0 0 79 87" fill="none" xmlns="http://www.w3.org/2000/svg">
<path d="M78.2226 74.8744V80.702C78.2226 83.9639 75.5787 86.6078 72.3168 86.6078H45.0171C41.7552 86.6078 39.1113 83.9639 39.1113 80.702V74.8744C39.1113 74.5537 39.1192 74.2408 39.1348 73.9201C39.1348 73.8419 39.1426 73.7715 39.1504 73.7011C39.1583 73.4508 39.1817 73.2083 39.2052 72.958C39.213 72.8641 39.2208 72.7702 39.2365 72.6842C39.2521 72.4886 39.2756 72.2931 39.3147 72.0975C39.3225 71.9724 39.346 71.8472 39.3695 71.722C39.4008 71.503 39.4398 71.284 39.4868 71.065C39.4946 71.0024 39.5103 70.9398 39.5181 70.8851C39.5729 70.6426 39.6276 70.4001 39.6902 70.1576C39.7762 69.7821 39.8779 69.4223 39.9874 69.0625C40.0813 68.7652 40.183 68.468 40.2925 68.1786C40.3707 67.9439 40.4568 67.7171 40.5506 67.498C40.6289 67.3025 40.7149 67.0991 40.8087 66.9114C40.8948 66.6923 40.9965 66.489 41.0982 66.2856C41.1842 66.1057 41.2703 65.9258 41.372 65.7459C41.7396 65.0497 42.1464 64.377 42.5922 63.7434C42.7174 63.5556 42.8426 63.3757 42.9834 63.1958C43.1242 63.0002 43.2728 62.8047 43.4292 62.6248C43.5309 62.4918 43.6326 62.3588 43.7499 62.2337C44.7355 61.0682 45.8463 60.0278 47.0744 59.1282C47.2543 58.9874 47.442 58.8544 47.6298 58.7293C47.7002 58.6823 47.7628 58.6354 47.8332 58.5885C47.9974 58.479 48.1695 58.3695 48.3416 58.2678C49.1551 57.7593 49.9999 57.3135 50.876 56.938C51.1263 56.8285 51.3688 56.7268 51.6191 56.6329C51.8772 56.5312 52.1275 56.4452 52.3857 56.3591C52.6438 56.2653 52.9019 56.187 53.1679 56.1088C53.426 56.0306 53.692 55.9602 53.958 55.8976C53.9423 55.8898 53.9267 55.882 53.911 55.8742C53.6685 55.7725 53.4339 55.6551 53.1992 55.53C52.988 55.4205 52.7846 55.3031 52.5891 55.1858C52.503 55.131 52.417 55.0841 52.3387 55.0294C52.1901 54.9355 52.0415 54.8338 51.9007 54.7321C51.799 54.6617 51.7052 54.5913 51.6113 54.5209C51.5018 54.4348 51.3923 54.3488 51.2828 54.2628C51.1889 54.1846 51.095 54.1063 51.009 54.0281C50.8682 53.9107 50.7352 53.7934 50.6022 53.6605L50.5944 53.6526C50.5162 53.5822 50.4458 53.5118 50.3754 53.4414C50.2581 53.3241 50.1485 53.2068 50.039 53.0894C49.9842 53.0347 49.9295 52.9721 49.8826 52.9173C49.7418 52.7609 49.6088 52.6045 49.4837 52.4402C49.1004 51.9708 48.7562 51.4624 48.4589 50.9305C48.3885 50.8053 48.3181 50.6801 48.2556 50.555C48.1773 50.3985 48.0991 50.2421 48.0209 50.0857C47.7784 49.5694 47.575 49.0218 47.4107 48.4586C47.356 48.2944 47.3091 48.1145 47.2699 47.9424C47.2387 47.8251 47.2152 47.7077 47.1839 47.5904C47.1761 47.5669 47.1761 47.5356 47.1682 47.5122C47.09 47.1132 47.0353 46.7143 46.9962 46.2997C46.9727 46.1276 46.9571 45.9477 46.9492 45.7678C46.9414 45.5644 46.9336 45.361 46.9336 45.1498C46.9336 38.673 52.1901 33.4164 58.667 33.4164C65.1438 33.4164 70.4004 38.673 70.4004 45.1498C70.4004 45.361 70.3925 45.5644 70.3847 45.7678C70.3769 45.9477 70.3612 46.1276 70.3456 46.2997C70.3378 46.3544 70.33 46.417 70.3222 46.4718C70.2831 46.8238 70.2283 47.1758 70.1657 47.5122C70.1579 47.5356 70.1579 47.5669 70.15 47.5904C70.1188 47.7077 70.0953 47.8251 70.064 47.9424C70.0249 48.1145 69.978 48.2944 69.9232 48.4586C69.759 49.0218 69.5556 49.5694 69.3131 50.0857C69.2348 50.2421 69.1566 50.3985 69.0784 50.555C69.0158 50.6801 68.9454 50.8053 68.875 50.9305C68.5778 51.4624 68.2336 51.9708 67.8503 52.4402C67.7251 52.6045 67.5922 52.7609 67.4514 52.9173C67.4044 52.9721 67.3497 53.0347 67.295 53.0894C67.1854 53.2068 67.0759 53.3241 66.9586 53.4414C66.8882 53.5118 66.8178 53.5822 66.7396 53.6526L66.7317 53.6605C66.5987 53.7934 66.4658 53.9107 66.325 54.0281C66.2389 54.1063 66.1451 54.1846 66.0512 54.2628C65.9417 54.3488 65.8322 54.4348 65.7227 54.5209C65.6288 54.5913 65.5349 54.6617 65.4333 54.7321C65.2925 54.8338 65.1438 54.9355 64.9952 55.0294C64.917 55.0841 64.8309 55.131 64.7449 55.1858C64.5493 55.3031 64.3459 55.4205 64.1347 55.53C63.9001 55.6551 63.6654 55.7725 63.4229 55.8742C63.4073 55.882 63.3916 55.8898 63.376 55.8976C63.6419 55.9602 63.9079 56.0306 64.166 56.1088C64.432 56.187 64.6901 56.2653 64.9483 56.3591C65.2064 56.4452 65.4567 56.5312 65.7148 56.6329C65.9652 56.7268 66.2077 56.8285 66.458 56.938C67.3341 57.3135 68.1789 57.7593 68.9924 58.2678C69.1645 58.3695 69.3365 58.479 69.5008 58.5885C69.5712 58.6354 69.6338 58.6823 69.7042 58.7293C69.8919 58.8544 70.0797 58.9874 70.2596 59.1282C71.4877 60.0278 72.5984 61.0682 73.5919 62.2337C73.7014 62.3588 73.803 62.4918 73.9047 62.6248C74.0612 62.8047 74.2098 63.0002 74.3506 63.1958C74.4914 63.3757 74.6166 63.5556 74.7417 63.7434C75.1876 64.377 75.5943 65.0497 75.962 65.7459C76.0637 65.9258 76.1497 66.1057 76.2358 66.2856C76.3375 66.489 76.4392 66.6923 76.5252 66.9114C76.6191 67.0991 76.7051 67.3025 76.7833 67.498C76.8772 67.7171 76.9632 67.9439 77.0415 68.1786C77.151 68.468 77.2527 68.7652 77.3465 69.0625C77.456 69.4223 77.5577 69.7821 77.6438 70.1576C77.7064 70.4001 77.7611 70.6426 77.8159 70.8851C77.8237 70.9398 77.8394 71.0024 77.8472 71.065C77.8941 71.284 77.9332 71.503 77.9645 71.722C77.9879 71.8472 78.0114 71.9724 78.0192 72.0975C78.0584 72.2931 78.0818 72.4886 78.0975 72.6842C78.1131 72.7702 78.1209 72.8641 78.1288 72.958C78.1522 73.2083 78.1757 73.4508 78.1835 73.7011C78.1913 73.7715 78.1991 73.8419 78.1991 73.9201C78.2148 74.2408 78.2226 74.5537 78.2226 74.8744Z" fill="#2A62FF"/>
<path d="M39.1113 74.8745V80.7021C39.1113 83.964 36.4674 86.6079 33.2055 86.6079H5.9058C2.64391 86.6079 0 83.964 0 80.7021V74.8745C0 65.699 6.32037 57.9941 14.8466 55.8977C14.831 55.8899 14.8153 55.8821 14.7997 55.8743C14.5572 55.7726 14.3226 55.6553 14.0879 55.5301C13.8767 55.4206 13.6733 55.3033 13.4777 55.1859C13.3917 55.1312 13.3056 55.0842 13.2274 55.0295C13.0788 54.9356 12.9302 54.8339 12.7894 54.7322C12.6877 54.6618 12.5938 54.5914 12.5 54.521C12.3904 54.435 12.2809 54.349 12.1714 54.2629C12.0776 54.1847 11.9837 54.1064 11.8977 54.0282C11.7569 53.9109 11.6239 53.7936 11.4909 53.6606L11.4831 53.6527C11.4048 53.5823 11.3345 53.5119 11.2641 53.4415C11.1467 53.3242 11.0372 53.2069 10.9277 53.0896C10.8729 53.0348 10.8182 52.9722 10.7713 52.9175C10.6305 52.761 10.4975 52.6046 10.3723 52.4403C9.98903 51.971 9.64486 51.4625 9.34761 50.9306C9.27721 50.8055 9.2068 50.6803 9.14422 50.5551C9.066 50.3987 8.98779 50.2422 8.90957 50.0858C8.89392 50.0545 8.88611 50.0311 8.87046 49.9998C8.76877 49.7886 8.6827 49.5695 8.59666 49.3427C8.58883 49.3192 8.58103 49.2958 8.56538 49.2723C8.49498 49.0689 8.41675 48.8577 8.35417 48.6387C8.33852 48.5839 8.31505 48.5213 8.29941 48.4588C8.24465 48.2945 8.19772 48.1146 8.15861 47.9425C8.12732 47.8252 8.10387 47.7078 8.07258 47.5905C8.06476 47.567 8.06474 47.5358 8.05692 47.5123C8.01781 47.3089 7.98651 47.1133 7.95522 46.91C7.93176 46.7144 7.9005 46.511 7.88485 46.2998C7.86138 46.1277 7.84574 45.9478 7.83792 45.7679C7.8301 45.5645 7.82226 45.3612 7.82226 45.15C7.82226 38.6731 13.0788 33.4166 19.5556 33.4166C26.0325 33.4166 31.289 38.6731 31.289 45.15C31.289 45.3612 31.2812 45.5645 31.2734 45.7679C31.2656 45.9478 31.2499 46.1277 31.2343 46.2998C31.2265 46.3546 31.2187 46.4172 31.2108 46.4719C31.1717 46.8239 31.1248 47.1681 31.0544 47.5123C31.0466 47.5358 31.0465 47.567 31.0387 47.5905C31.0074 47.7078 30.984 47.8252 30.9527 47.9425C30.9136 48.1146 30.8666 48.2945 30.8119 48.4588C30.7962 48.5213 30.7728 48.5839 30.7571 48.6387C30.6946 48.8577 30.6163 49.0689 30.5459 49.2723C30.5303 49.2958 30.5225 49.3192 30.5146 49.3427C30.4286 49.5695 30.3425 49.7886 30.2408 49.9998C30.2252 50.0311 30.2174 50.0545 30.2017 50.0858C30.1235 50.2422 30.0453 50.3987 29.9671 50.5551C29.9045 50.6803 29.8341 50.8055 29.7637 50.9306C29.4664 51.4625 29.1223 51.971 28.739 52.4403C28.6138 52.6046 28.4808 52.761 28.34 52.9175C28.2931 52.9722 28.2384 53.0348 28.1836 53.0896C28.0741 53.2069 27.9646 53.3242 27.8472 53.4415C27.7768 53.5119 27.7064 53.5823 27.6282 53.6527L27.6204 53.6606C27.4874 53.7936 27.3544 53.9109 27.2136 54.0282C27.1276 54.1064 27.0337 54.1847 26.9399 54.2629C26.8304 54.349 26.7209 54.435 26.6113 54.521C26.5175 54.5914 26.4236 54.6618 26.3219 54.7322C26.1811 54.8339 26.0325 54.9356 25.8839 55.0295C25.8057 55.0842 25.7196 55.1312 25.6336 55.1859C25.438 55.3033 25.2346 55.4206 25.0234 55.5301C24.7887 55.6553 24.5541 55.7726 24.3116 55.8743C24.296 55.8821 24.2803 55.8899 24.2647 55.8977C32.7909 57.9941 39.1113 65.699 39.1113 74.8745Z" fill="#2A62FF"/>
<path d="M34.4648 23.0679L32.0086 31.5238C31.946 31.6568 31.8131 31.7115 31.7036 31.7115C31.6801 31.7115 31.6566 31.7115 31.6332 31.7037L18.9063 25.9935L18.836 25.9621L18.7577 25.9309C17.7408 25.5554 16.8648 24.7028 16.3485 23.592C15.84 22.4813 15.754 21.261 16.1294 20.2441C16.5049 19.2194 17.2637 18.3981 18.2571 17.9365C18.7969 17.6862 19.3913 17.561 19.978 17.561C20.4395 17.561 20.8932 17.6315 21.3313 17.7879L24.0377 19.0004L26.4939 20.0954L27.2449 17.5141L28.0819 14.6668C28.5669 13.3918 29.6698 12.461 30.9683 12.1559L34.4648 23.0679Z" fill="#2A62FF"/>
<path d="M61.4047 16.1842C60.7477 17.7017 59.2302 19.5791 57.5875 20.2362L57.5171 20.2675L57.4389 20.3066L40.1595 28.6529C40.0109 28.6998 39.8701 28.7233 39.7215 28.7233C39.1817 28.7233 38.7124 28.4182 38.4934 27.9333L36.9211 23.0287L35.6382 19.0315L33.4949 12.367L32.6579 9.7465L32.6267 9.66047L32.6032 9.58227L32.5719 9.50402C31.9383 7.9161 32.0087 5.99184 32.7596 4.23965C33.5184 2.47964 34.856 1.11074 36.4517 0.469316C37.2261 0.164248 38.0318 0 38.8532 0C39.7371 0 40.6054 0.179906 41.4267 0.531908C42.999 1.21244 44.2192 2.44834 44.8685 4.02843L46.1278 7.93956L46.9571 10.4975L49.3819 9.33195L53.0818 7.55628C53.8406 7.25904 54.6228 7.11041 55.4285 7.11041C58.1037 7.11041 60.4739 8.72178 61.4673 11.2014C62.1088 12.8206 62.0853 14.5885 61.4047 16.1842Z" fill="#2A62FF"/>
</svg>
