<svg width="53" height="38" viewBox="0 0 53 38" fill="none" xmlns="http://www.w3.org/2000/svg">
<path d="M40.4564 1.79605V4.36545C39.9987 4.80898 39.628 5.34811 39.3594 5.95605V1.79605L27.0462 0.0678101V5.22575C26.7322 5.0231 26.4031 4.83192 26.0589 4.65222C26.0097 4.62928 25.9605 4.60634 25.9113 4.58722V0.0678101L13.5982 1.79605V5.8681C13.201 6.36516 13.2085 7.07252 13.5982 7.55429V8.01694H13.5944C13.4847 7.99018 13.3712 7.97487 13.2539 7.97487C12.9778 7.97487 12.7168 8.06281 12.5011 8.21575V1.79605L0.755371 0.148113V36.0663L12.5011 37.7143V34.839C12.5352 34.8428 12.573 34.8466 12.6071 34.8466C12.7811 34.8543 12.9513 34.8581 13.1253 34.8581C13.2842 34.8581 13.4431 34.8543 13.5982 34.8505V37.7143L25.9113 35.986V7.66899C26.2934 7.92899 26.6376 8.2081 26.9441 8.50252C26.9781 8.5331 27.0122 8.56371 27.0462 8.59047V35.986L39.3594 37.7143V33.646C39.3632 33.646 39.367 33.646 39.3707 33.6422C39.7453 33.451 40.1084 33.2293 40.4564 32.9769V37.7143L52.2022 36.0663V0.148113L40.4564 1.79605ZM39.628 8.32665C39.628 7.28665 39.9268 6.32692 40.4564 5.55839C41.213 4.44957 42.4386 3.73459 43.9177 3.73459C43.9215 3.73459 43.9215 3.73459 43.9253 3.73459C45.6351 3.73841 47.0007 4.69047 47.7006 6.10135C47.7006 6.10135 47.9919 6.60988 47.8481 7.06106C47.7876 7.24841 47.6817 7.409 47.5228 7.539C47.311 7.71106 47.0121 7.82957 46.6641 7.90222C45.5633 8.12398 45.1585 8.61341 44.4284 8.61341C44.2733 8.61341 44.1031 8.59047 43.9064 8.54076C43.7248 8.49106 43.5243 8.4184 43.2974 8.31134H43.286C43.2671 8.31134 43.2519 8.33047 43.2633 8.34959C43.3276 8.47576 43.4865 8.76633 43.7399 9.01868C43.9745 9.25192 44.2922 9.45074 44.6857 9.45074C44.7727 9.45074 44.8672 9.44311 44.9656 9.42017C45.1434 9.37811 45.8129 9.10662 46.4371 9.10662C46.8911 9.10662 47.3261 9.25192 47.5228 9.73368C47.572 9.85986 47.606 9.94781 47.6136 10.0816C47.6325 10.2269 47.6249 10.3761 47.5947 10.5175C47.5417 10.8922 47.084 11.9513 47.084 11.9513C46.0437 14.039 44.557 15.9852 43.9253 15.9852C43.2293 15.9852 41.4967 13.626 40.4564 11.3166C39.9647 10.2269 39.628 9.14486 39.628 8.33045V8.32665V8.32665ZM42.658 28.7137C42.5786 28.7137 42.4992 28.6984 42.4197 28.6602C42.136 28.5302 42.0112 28.186 42.1436 27.8993C42.5181 27.0849 42.8131 26.1787 43.0212 25.2037C43.0817 24.9361 43.3163 24.7525 43.5773 24.7525C43.6151 24.7525 43.6567 24.7564 43.6983 24.764C44.0047 24.8328 44.1977 25.1387 44.1296 25.4484C43.9026 26.5037 43.5811 27.4902 43.1725 28.381C43.0779 28.5913 42.8737 28.7137 42.658 28.7137ZM44.523 22.4125C44.5079 22.7184 44.2582 22.9555 43.9594 22.9555H43.9253C43.6151 22.9402 43.373 22.6687 43.3919 22.3513C43.4146 21.8696 43.426 21.3687 43.4184 20.8602C43.4146 20.5428 43.6643 20.2828 43.9783 20.279C44.2922 20.279 44.5495 20.5275 44.5533 20.8449C44.5608 21.3802 44.5495 21.9078 44.523 22.4125ZM43.9896 18.7419C43.7324 18.7419 43.5016 18.6387 43.3352 18.4667C43.1649 18.2984 43.0628 18.0651 43.0628 17.8051C43.0628 17.2851 43.4789 16.8684 43.9896 16.8684C44.5041 16.8684 44.9202 17.289 44.9164 17.8051C44.9164 18.3251 44.5003 18.7419 43.9896 18.7419ZM40.4564 13.0028V29.4478C40.3165 29.5205 40.1878 29.6199 40.0819 29.7384C39.855 30.0022 39.6128 30.2393 39.3594 30.4534V10.6399C39.6847 11.5422 40.116 12.3949 40.4564 13.0028ZM35.9473 33.7225C35.9435 33.7225 35.9435 33.7225 35.9435 33.7225C35.0469 33.7187 34.1996 33.5007 33.4884 33.1031C33.2766 32.9846 33.0761 32.8622 32.8831 32.7399C32.6221 32.5678 32.5465 32.2122 32.7167 31.9446C32.8226 31.7764 33.0042 31.6807 33.1933 31.6807C33.2993 31.6807 33.4052 31.7113 33.4998 31.7725C33.67 31.8872 33.8516 31.9943 34.0407 32.1013C34.5854 32.4072 35.2474 32.5716 35.951 32.5754C36.265 32.5793 36.5147 32.8393 36.5147 33.1566C36.5109 33.4702 36.2575 33.7225 35.9473 33.7225ZM31.3851 30.7134C31.2868 30.786 31.1695 30.8205 31.0523 30.8205C30.8782 30.8205 30.7042 30.7363 30.5945 30.5834C29.9893 29.7346 29.5694 28.7902 29.3083 27.689C29.2365 27.3793 29.4218 27.0696 29.7283 26.9969C29.7737 26.9855 29.8153 26.9816 29.8606 26.9816C30.1179 26.9816 30.3486 27.1575 30.413 27.4213C30.6361 28.3734 30.9993 29.1878 31.5138 29.9105C31.6953 30.1666 31.6386 30.526 31.3851 30.7134ZM30.0801 9.68015C30.5 10.5825 30.7685 11.5728 30.9085 12.7046C30.9463 13.0181 30.7269 13.3049 30.413 13.3431C30.3903 13.3469 30.3675 13.3469 30.3448 13.3469C30.0611 13.3469 29.8152 13.1328 29.7812 12.8422C29.6601 11.8366 29.4218 10.9572 29.0549 10.1657C28.9225 9.87898 29.0436 9.53486 29.3273 9.40104C29.4067 9.36662 29.4861 9.3475 29.5656 9.3475C29.7812 9.3475 29.9855 9.46985 30.0801 9.68015ZM29.2024 21.579C29.2327 21.2884 29.4786 21.0705 29.7623 21.0705C29.785 21.0705 29.8039 21.0705 29.8266 21.0743C30.1406 21.1087 30.3638 21.3955 30.3297 21.709C30.2011 22.8675 30.1406 23.789 30.133 24.611C30.133 24.9246 29.8796 25.1807 29.5656 25.1807C29.5656 25.1807 29.5656 25.1807 29.5618 25.1807C29.2478 25.1769 28.9981 24.9207 28.9981 24.6034C29.0057 23.7431 29.07 22.7834 29.2024 21.579ZM30.6929 18.7687C30.6588 19.0593 30.4129 19.2696 30.133 19.2696C30.1065 19.2696 30.0838 19.2696 30.0611 19.2658C29.7509 19.2275 29.5278 18.9407 29.5694 18.6234C29.6753 17.7516 29.7925 16.7193 29.8493 15.706C29.8644 15.4001 30.1179 15.1669 30.4205 15.1669H30.447C30.7572 15.1822 30.9993 15.4537 30.9804 15.771C30.9236 16.8187 30.8064 17.874 30.6929 18.7687ZM18.2057 32.5296C18.0241 32.5296 17.8463 32.4455 17.7366 32.2849C17.5588 32.0249 17.6231 31.6655 17.8804 31.4857C18.671 30.9313 19.3254 30.2814 19.821 29.5587C19.9307 29.3981 20.1085 29.314 20.2862 29.314C20.3997 29.314 20.5132 29.3446 20.6116 29.4134C20.8688 29.597 20.9331 29.9525 20.7553 30.2125C20.1803 31.0499 19.4313 31.7955 18.5272 32.4264C18.4289 32.4952 18.3154 32.5296 18.2057 32.5296ZM12.5011 13.3431C12.7168 13.4961 12.9778 13.584 13.2501 13.584C13.3674 13.584 13.4847 13.5687 13.5982 13.5381V14.3257C13.5566 14.4863 13.5452 14.6546 13.5679 14.8228C13.5755 14.8764 13.5868 14.9299 13.5982 14.9834V32.1663C13.4355 32.174 13.2691 32.1778 13.0988 32.1778C12.9702 32.1778 12.8416 32.1778 12.713 32.174C12.6865 32.1702 12.66 32.1702 12.6298 32.1702C12.5844 32.1702 12.5427 32.174 12.5011 32.1778V13.3431V13.3431ZM14.1959 6.33458C14.8995 5.52017 15.7544 4.88163 16.7455 4.44193C16.8174 4.40752 16.8968 4.39222 16.9725 4.39222C17.1919 4.39222 17.3999 4.52223 17.4907 4.73635C17.6193 5.02694 17.4869 5.3634 17.1994 5.4934C16.3672 5.86428 15.6447 6.39957 15.0546 7.0878C14.9411 7.2178 14.7822 7.28664 14.6233 7.28664C14.4947 7.28664 14.3623 7.24076 14.2526 7.14517C14.0181 6.9387 13.9916 6.57546 14.1959 6.33458ZM17.4907 17.0175C17.381 17.1322 17.2373 17.1857 17.0897 17.1857C16.946 17.1857 16.8022 17.1322 16.6887 17.0214C16.0381 16.3599 15.3118 15.7175 14.5325 15.1096C14.2866 14.9146 14.2412 14.5552 14.4342 14.3028C14.5439 14.1575 14.7141 14.081 14.8806 14.081C15.0054 14.081 15.1264 14.1231 15.2286 14.2034C16.0419 14.8419 16.806 15.5149 17.4907 16.2069C17.7139 16.4287 17.7139 16.7919 17.4907 17.0175ZM19.4691 18.5164C20.1009 19.3767 20.6305 20.2675 21.039 21.1507C21.1752 21.4375 21.0504 21.7816 20.7667 21.9154C20.691 21.9537 20.6078 21.969 20.5284 21.969C20.3127 21.969 20.1084 21.8466 20.0139 21.6402C19.6318 20.8219 19.1438 19.9999 18.5575 19.1969C18.3721 18.9407 18.4251 18.5813 18.6785 18.394C18.7769 18.3175 18.8979 18.2831 19.0152 18.2831C19.1892 18.2831 19.3594 18.3634 19.4691 18.5164ZM20.8612 27.0619C20.9445 26.6261 20.9861 26.171 20.9861 25.7084C20.9861 25.2534 20.9482 24.7831 20.865 24.3128C20.8121 23.9993 21.0201 23.7049 21.3303 23.6475C21.3606 23.6437 21.3946 23.6399 21.4249 23.6399C21.6973 23.6399 21.9356 23.8387 21.9847 24.1178C22.0755 24.6531 22.1209 25.1884 22.1209 25.7084C22.1209 26.2437 22.0717 26.7713 21.9772 27.276C21.9242 27.5513 21.6859 27.7425 21.4211 27.7425C21.3833 27.7425 21.3492 27.7387 21.3114 27.7311C21.005 27.6737 20.8045 27.3716 20.8612 27.0619ZM23.2747 4.89693C23.2028 5.14928 22.9759 5.3137 22.73 5.3137C22.677 5.3137 22.6278 5.30986 22.5749 5.29457C21.6935 5.04604 20.831 4.91987 20.0177 4.91987H19.8247C19.5183 4.91987 19.2649 4.67518 19.2573 4.36165C19.2497 4.0443 19.4994 3.78046 19.8134 3.77281H20.0177C20.9369 3.77281 21.8977 3.91429 22.8813 4.18959C23.1839 4.2737 23.3579 4.59105 23.2747 4.89693ZM12.7054 9.16398C12.7735 8.9078 13.0042 8.73957 13.2539 8.73957C13.3031 8.73957 13.3523 8.74341 13.4014 8.75871C13.4733 8.77783 13.5414 8.81224 13.5982 8.85812C13.776 8.99195 13.8667 9.22516 13.8024 9.4584C13.6852 9.90957 13.6246 10.3684 13.6246 10.8158C13.6246 11.2593 13.6852 11.6875 13.7986 12.089C13.8667 12.3222 13.7797 12.5631 13.5982 12.7007C13.5452 12.7428 13.4809 12.7772 13.409 12.7963C13.3561 12.8116 13.3031 12.8193 13.2501 12.8193C13.0043 12.8193 12.7773 12.6549 12.7054 12.4063C12.5881 11.9934 12.52 11.5652 12.5011 11.1216C12.4936 11.0222 12.4898 10.919 12.4898 10.8158C12.4898 10.7125 12.4936 10.6093 12.5011 10.506C12.52 10.0625 12.5881 9.61133 12.7054 9.16398ZM8.01467 31.8184C8.12815 31.7037 8.27191 31.6464 8.41944 31.6464C8.56318 31.6464 8.70693 31.6999 8.81663 31.8107C9.06252 32.0554 9.42946 32.2696 9.90988 32.4493C10.2049 32.5602 10.3563 32.889 10.2466 33.1872C10.1633 33.4167 9.9477 33.5619 9.71317 33.5619C9.64886 33.5619 9.58455 33.5505 9.52024 33.5237C8.88472 33.2905 8.38161 32.9884 8.02224 32.629C7.79905 32.4034 7.79526 32.0402 8.01467 31.8184ZM2.55601 20.4893C2.5598 17.9543 4.33772 15.8972 6.84576 15.8972C6.84954 15.8972 6.85333 15.8972 6.85333 15.8972C8.56318 15.901 9.92878 16.8569 10.6286 18.264C10.6286 18.264 10.9199 18.7725 10.7761 19.2275C10.7156 19.4111 10.6097 19.5716 10.4508 19.7016C10.239 19.8737 9.94392 19.9922 9.5959 20.0649C8.49131 20.2866 8.08655 20.7799 7.35646 20.7799C7.20136 20.7799 7.03113 20.7569 6.83442 20.7034C6.65663 20.6537 6.45614 20.5811 6.22539 20.4778C6.2216 20.474 6.21781 20.474 6.21403 20.474C6.19511 20.474 6.18376 20.4931 6.19133 20.5122C6.25564 20.6384 6.41452 20.929 6.66797 21.1814C6.90251 21.4146 7.22027 21.6134 7.61369 21.6134C7.70448 21.6134 7.79526 21.6057 7.89361 21.5828C8.07141 21.5407 8.74098 21.2693 9.36515 21.2693C9.82288 21.2693 10.2541 21.4146 10.4546 21.8964C10.5 22.0225 10.534 22.1105 10.5416 22.2443C10.5605 22.3896 10.553 22.5387 10.5227 22.6801C10.4697 23.0549 10.012 24.114 10.012 24.114C8.97172 26.2016 7.48885 28.1478 6.85333 28.1478C5.82818 28.1478 2.55601 23.0357 2.55601 20.4931V20.4893V20.4893ZM5.99085 29.9678C5.99085 29.4478 6.40695 29.0311 6.91763 29.0311H6.92142C7.4321 29.0311 7.84822 29.4516 7.84822 29.9716C7.84444 30.4878 7.4321 30.9084 6.91763 30.9084C6.6604 30.9046 6.42965 30.8013 6.26321 30.6293C6.09298 30.461 5.99085 30.224 5.99085 29.9678ZM13.1253 34.0934C12.9626 34.0934 12.8 34.0896 12.6335 34.0819C12.5881 34.0819 12.5427 34.0743 12.5011 34.059C12.2515 33.9901 12.0775 33.7607 12.0888 33.4893C12.0964 33.2331 12.2666 33.0114 12.5011 32.954C12.5427 32.9387 12.5844 32.9349 12.6298 32.9349H12.6751C12.8151 32.9425 12.9589 32.9425 13.0988 32.9425C13.2653 32.9425 13.4355 32.9387 13.5982 32.9311C14.2715 32.9043 14.9108 32.824 15.4366 32.6902C15.482 32.6787 15.5274 32.6749 15.5728 32.6749C15.83 32.6749 16.0608 32.8507 16.1251 33.1107C16.2008 33.4166 16.0154 33.7302 15.709 33.8067C15.0886 33.9634 14.3699 34.059 13.5982 34.0858C13.4431 34.0896 13.2842 34.0934 13.1253 34.0934ZM25.9113 6.76281C25.6806 6.62134 25.4423 6.48369 25.1926 6.35369C24.9127 6.2084 24.803 5.86045 24.9467 5.58133C25.0489 5.38251 25.2456 5.26782 25.4536 5.26782C25.5406 5.26782 25.6276 5.29076 25.7108 5.33282C25.7789 5.36723 25.847 5.40545 25.9113 5.43986C26.3161 5.65781 26.6944 5.89105 27.0462 6.13958C27.485 6.44546 27.886 6.77045 28.2454 7.11457C28.4723 7.33251 28.4837 7.69575 28.2681 7.92516C28.1546 8.04751 28.0071 8.10488 27.8557 8.10488C27.7158 8.10488 27.5758 8.05133 27.4661 7.9481C27.3337 7.82192 27.1937 7.69576 27.0462 7.57723C26.702 7.28664 26.3237 7.01517 25.9113 6.76281ZM39.3594 32.7781C39.2535 32.8393 39.14 32.9004 39.0303 32.9578C38.9471 32.9999 38.8601 33.0228 38.7731 33.0228C38.565 33.0228 38.3683 32.9081 38.2661 32.7055C38.1262 32.4264 38.2359 32.0784 38.5158 31.9369C38.8071 31.7878 39.087 31.6158 39.3594 31.4208C39.749 31.1455 40.116 30.8205 40.4564 30.4572C40.5207 30.3884 40.585 30.3196 40.6494 30.2469C40.7591 30.1207 40.9179 30.0557 41.073 30.0557C41.2092 30.0557 41.3416 30.1016 41.4513 30.1972C41.6859 30.4075 41.7048 30.7707 41.4967 31.0078C41.1714 31.3787 40.8234 31.719 40.4564 32.0172C40.1084 32.304 39.7415 32.5602 39.3594 32.7781Z" fill="#FDBB06"/>
<path d="M41.8673 8.68986C41.9127 8.80839 42.0187 8.87338 42.1284 8.87338C42.2191 8.87338 42.3137 8.82749 42.3667 8.72808L42.6201 8.26545C42.726 8.07045 42.8925 7.91752 43.0968 7.82576L43.5734 7.60782C43.5734 7.60399 43.5772 7.60399 43.581 7.60399C43.789 7.50075 43.7852 7.19869 43.5734 7.10311L43.4826 7.06105L41.4739 6.15105L41.3945 6.11663C41.3642 6.10134 41.3302 6.09369 41.2961 6.09369C41.2696 6.09369 41.2432 6.10133 41.2167 6.10897C41.1032 6.15103 41.0276 6.28105 41.0729 6.41488L41.8673 8.68986Z" fill="#FDBB06"/>
<path d="M6.50911 19.7666C6.71717 19.6634 6.71338 19.3614 6.50154 19.2658L6.41454 19.2275L4.40206 18.3175L4.32261 18.2793C4.29235 18.264 4.2583 18.2563 4.22804 18.2563C4.19778 18.2563 4.17129 18.264 4.14859 18.2717C4.03132 18.3137 3.95569 18.4437 4.00486 18.5775L4.79925 20.8525C4.84087 20.9749 4.94678 21.0361 5.05649 21.0361C5.15106 21.0361 5.24185 20.9902 5.29481 20.8946L5.54825 20.432C5.65417 20.2331 5.82062 20.0802 6.0249 19.9884L6.50154 19.7705C6.50532 19.7705 6.50533 19.7666 6.50911 19.7666Z" fill="#FDBB06"/>
</svg>
