<svg width="53" height="38" viewBox="0 0 53 38" fill="none" xmlns="http://www.w3.org/2000/svg">
<path d="M40.4564 1.79605V4.36545C39.9987 4.80898 39.6279 5.34811 39.3594 5.95605V1.79605L27.0462 0.0678101V5.22575C26.7322 5.0231 26.4031 4.83192 26.0589 4.65222C26.0097 4.62928 25.9605 4.60634 25.9113 4.58722V0.0678101L13.5981 1.79605V5.8681C13.2009 6.36516 13.2085 7.07252 13.5981 7.55429V8.01694H13.5943C13.4846 7.99018 13.3712 7.97487 13.2539 7.97487C12.9777 7.97487 12.7167 8.06281 12.5011 8.21575V1.79605L0.755341 0.148113V36.0663L12.5011 37.7143V34.839C12.5351 34.8428 12.573 34.8466 12.607 34.8466C12.781 34.8543 12.9513 34.8581 13.1253 34.8581C13.2842 34.8581 13.443 34.8543 13.5981 34.8505V37.7143L25.9113 35.986V7.66899C26.2934 7.92899 26.6376 8.2081 26.944 8.50251C26.9781 8.5331 27.0121 8.56371 27.0462 8.59047V35.986L39.3594 37.7143V33.646C39.3631 33.646 39.3669 33.646 39.3707 33.6422C39.7452 33.451 40.1084 33.2293 40.4564 32.9769V37.7143L52.2022 36.0663V0.148113L40.4564 1.79605ZM39.6279 8.32665C39.6279 7.28665 39.9268 6.32692 40.4564 5.55839C41.213 4.44957 42.4386 3.73459 43.9177 3.73459C43.9215 3.73459 43.9215 3.73459 43.9253 3.73459C45.6351 3.73841 47.0007 4.69047 47.7005 6.10135C47.7005 6.10135 47.9918 6.60988 47.8481 7.06106C47.7876 7.24841 47.6816 7.409 47.5228 7.539C47.3109 7.71106 47.0121 7.82957 46.664 7.90222C45.5632 8.12398 45.1585 8.61341 44.4284 8.61341C44.2733 8.61341 44.1031 8.59047 43.9064 8.54076C43.7248 8.49106 43.5243 8.4184 43.2973 8.31134H43.286C43.267 8.31134 43.2519 8.33047 43.2633 8.34959C43.3276 8.47576 43.4865 8.76633 43.7399 9.01868C43.9744 9.25192 44.2922 9.45074 44.6856 9.45074C44.7726 9.45074 44.8672 9.44311 44.9655 9.42017C45.1433 9.37811 45.8129 9.10662 46.4371 9.10662C46.891 9.10662 47.3261 9.25192 47.5228 9.73368C47.5719 9.85986 47.606 9.94781 47.6135 10.0816C47.6325 10.2269 47.6249 10.3761 47.5946 10.5175C47.5417 10.8922 47.0839 11.9513 47.0839 11.9513C46.0437 14.039 44.557 15.9852 43.9253 15.9852C43.2292 15.9852 41.4967 13.626 40.4564 11.3166C39.9646 10.2269 39.6279 9.14486 39.6279 8.33045V8.32665ZM42.658 28.7137C42.5786 28.7137 42.4991 28.6984 42.4197 28.6602C42.136 28.5302 42.0111 28.186 42.1435 27.8993C42.518 27.0849 42.8131 26.1787 43.0212 25.2037C43.0817 24.9361 43.3162 24.7525 43.5773 24.7525C43.6151 24.7525 43.6567 24.7563 43.6983 24.764C44.0047 24.8328 44.1976 25.1387 44.1295 25.4484C43.9026 26.5037 43.581 27.4902 43.1725 28.381C43.0779 28.5913 42.8736 28.7137 42.658 28.7137ZM44.523 22.4125C44.5078 22.7184 44.2582 22.9555 43.9593 22.9555H43.9253C43.6151 22.9402 43.373 22.6687 43.3919 22.3513C43.4146 21.8696 43.4259 21.3687 43.4184 20.8602C43.4146 20.5428 43.6643 20.2828 43.9782 20.279C44.2922 20.279 44.5494 20.5275 44.5532 20.8449C44.5608 21.3802 44.5494 21.9078 44.523 22.4125ZM43.9896 18.7419C43.7323 18.7419 43.5016 18.6387 43.3351 18.4667C43.1649 18.2984 43.0628 18.0651 43.0628 17.8051C43.0628 17.2851 43.4789 16.8684 43.9896 16.8684C44.504 16.8684 44.9202 17.289 44.9164 17.8051C44.9164 18.3251 44.5003 18.7419 43.9896 18.7419ZM40.4564 13.0028V29.4478C40.3164 29.5205 40.1878 29.6199 40.0819 29.7384C39.8549 30.0022 39.6128 30.2393 39.3594 30.4534V10.6399C39.6847 11.5422 40.1159 12.3949 40.4564 13.0028ZM35.9472 33.7225C35.9435 33.7225 35.9435 33.7225 35.9435 33.7225C35.0469 33.7187 34.1996 33.5007 33.4884 33.1031C33.2765 32.9846 33.076 32.8622 32.8831 32.7399C32.6221 32.5678 32.5464 32.2122 32.7167 31.9446C32.8226 31.7764 33.0042 31.6807 33.1933 31.6807C33.2992 31.6807 33.4052 31.7113 33.4997 31.7725C33.6699 31.8872 33.8515 31.9943 34.0407 32.1013C34.5854 32.4072 35.2474 32.5716 35.951 32.5754C36.265 32.5793 36.5147 32.8393 36.5147 33.1566C36.5109 33.4702 36.2574 33.7225 35.9472 33.7225ZM31.3851 30.7134C31.2867 30.786 31.1695 30.8205 31.0522 30.8205C30.8782 30.8205 30.7042 30.7363 30.5945 30.5834C29.9892 29.7346 29.5693 28.7902 29.3083 27.689C29.2364 27.3793 29.4218 27.0696 29.7282 26.9969C29.7736 26.9855 29.8152 26.9816 29.8606 26.9816C30.1179 26.9816 30.3486 27.1575 30.4129 27.4213C30.6361 28.3734 30.9993 29.1878 31.5137 29.9105C31.6953 30.1666 31.6385 30.526 31.3851 30.7134ZM30.08 9.68015C30.4999 10.5825 30.7685 11.5728 30.9085 12.7046C30.9463 13.0181 30.7269 13.3049 30.4129 13.3431C30.3902 13.3469 30.3675 13.3469 30.3448 13.3469C30.0611 13.3469 29.8152 13.1328 29.7812 12.8422C29.6601 11.8366 29.4218 10.9572 29.0549 10.1657C28.9225 9.87898 29.0435 9.53486 29.3272 9.40104C29.4067 9.36662 29.4861 9.3475 29.5655 9.3475C29.7812 9.3475 29.9855 9.46985 30.08 9.68015ZM29.2024 21.579C29.2327 21.2884 29.4785 21.0705 29.7623 21.0705C29.785 21.0705 29.8039 21.0705 29.8266 21.0743C30.1405 21.1087 30.3637 21.3955 30.3297 21.709C30.2011 22.8675 30.1405 23.789 30.133 24.611C30.133 24.9246 29.8795 25.1807 29.5655 25.1807C29.5655 25.1807 29.5656 25.1807 29.5618 25.1807C29.2478 25.1769 28.9981 24.9207 28.9981 24.6034C29.0057 23.7431 29.07 22.7834 29.2024 21.579ZM30.6929 18.7687C30.6588 19.0593 30.4129 19.2696 30.133 19.2696C30.1065 19.2696 30.0838 19.2696 30.0611 19.2658C29.7509 19.2275 29.5277 18.9407 29.5693 18.6234C29.6753 17.7516 29.7925 16.7193 29.8493 15.706C29.8644 15.4001 30.1178 15.1669 30.4205 15.1669H30.447C30.7572 15.1822 30.9993 15.4537 30.9804 15.771C30.9236 16.8187 30.8063 17.874 30.6929 18.7687ZM18.2056 32.5296C18.0241 32.5296 17.8463 32.4455 17.7366 32.2849C17.5588 32.0249 17.6231 31.6655 17.8803 31.4857C18.6709 30.9313 19.3254 30.2814 19.8209 29.5587C19.9306 29.3981 20.1084 29.314 20.2862 29.314C20.3997 29.314 20.5132 29.3446 20.6115 29.4134C20.8688 29.597 20.9331 29.9525 20.7553 30.2125C20.1803 31.0499 19.4313 31.7955 18.5272 32.4264C18.4288 32.4952 18.3153 32.5296 18.2056 32.5296ZM12.5011 13.3431C12.7167 13.4961 12.9778 13.584 13.2501 13.584C13.3674 13.584 13.4846 13.5687 13.5981 13.5381V14.3257C13.5565 14.4863 13.5452 14.6546 13.5679 14.8228C13.5754 14.8764 13.5868 14.9299 13.5981 14.9834V32.1663C13.4355 32.174 13.269 32.1778 13.0988 32.1778C12.9702 32.1778 12.8416 32.1778 12.7129 32.174C12.6865 32.1702 12.66 32.1702 12.6297 32.1702C12.5843 32.1702 12.5427 32.174 12.5011 32.1778V13.3431ZM14.1958 6.33458C14.8994 5.52017 15.7544 4.88163 16.7455 4.44193C16.8173 4.40752 16.8968 4.39222 16.9724 4.39222C17.1918 4.39222 17.3999 4.52223 17.4907 4.73635C17.6193 5.02694 17.4869 5.3634 17.1994 5.4934C16.3672 5.86428 15.6446 6.39957 15.0545 7.0878C14.941 7.2178 14.7822 7.28664 14.6233 7.28664C14.4947 7.28664 14.3623 7.24076 14.2526 7.14517C14.018 6.9387 13.9916 6.57546 14.1958 6.33458ZM17.4907 17.0175C17.381 17.1322 17.2372 17.1857 17.0897 17.1857C16.946 17.1857 16.8022 17.1322 16.6887 17.0214C16.0381 16.3599 15.3118 15.7175 14.5325 15.1096C14.2866 14.9146 14.2412 14.5552 14.4341 14.3028C14.5438 14.1575 14.7141 14.081 14.8805 14.081C15.0054 14.081 15.1264 14.1231 15.2285 14.2034C16.0419 14.8419 16.806 15.5149 17.4907 16.2069C17.7139 16.4287 17.7139 16.7919 17.4907 17.0175ZM19.4691 18.5164C20.1008 19.3767 20.6305 20.2675 21.039 21.1507C21.1752 21.4375 21.0504 21.7816 20.7666 21.9154C20.691 21.9537 20.6078 21.969 20.5283 21.969C20.3127 21.969 20.1084 21.8466 20.0138 21.6402C19.6318 20.8219 19.1438 19.9999 18.5574 19.1969C18.3721 18.9407 18.4251 18.5813 18.6785 18.394C18.7769 18.3175 18.8979 18.2831 19.0152 18.2831C19.1892 18.2831 19.3594 18.3634 19.4691 18.5164ZM20.8612 27.0619C20.9444 26.6261 20.986 26.171 20.986 25.7084C20.986 25.2534 20.9482 24.7831 20.865 24.3128C20.812 23.9993 21.0201 23.7049 21.3303 23.6475C21.3605 23.6437 21.3946 23.6399 21.4249 23.6399C21.6972 23.6399 21.9355 23.8387 21.9847 24.1178C22.0755 24.6531 22.1209 25.1884 22.1209 25.7084C22.1209 26.2437 22.0717 26.7713 21.9771 27.276C21.9242 27.5513 21.6859 27.7425 21.4211 27.7425C21.3832 27.7425 21.3492 27.7387 21.3114 27.7311C21.005 27.6737 20.8045 27.3716 20.8612 27.0619ZM23.2747 4.89693C23.2028 5.14928 22.9758 5.3137 22.7299 5.3137C22.677 5.3137 22.6278 5.30986 22.5748 5.29457C21.6934 5.04604 20.8309 4.91987 20.0176 4.91987H19.8247C19.5183 4.91987 19.2648 4.67518 19.2573 4.36165C19.2497 4.0443 19.4994 3.78046 19.8134 3.77281H20.0176C20.9369 3.77281 21.8977 3.91429 22.8812 4.18959C23.1839 4.2737 23.3579 4.59105 23.2747 4.89693ZM12.7054 9.16398C12.7735 8.9078 13.0042 8.73957 13.2539 8.73957C13.3031 8.73957 13.3522 8.74341 13.4014 8.75871C13.4733 8.77783 13.5414 8.81224 13.5981 8.85812C13.7759 8.99195 13.8667 9.22516 13.8024 9.4584C13.6851 9.90957 13.6246 10.3684 13.6246 10.8158C13.6246 11.2593 13.6851 11.6875 13.7986 12.089C13.8667 12.3222 13.7797 12.5631 13.5981 12.7007C13.5452 12.7428 13.4809 12.7772 13.409 12.7963C13.356 12.8116 13.3031 12.8193 13.2501 12.8193C13.0042 12.8193 12.7773 12.6549 12.7054 12.4063C12.5881 11.9934 12.52 11.5652 12.5011 11.1216C12.4935 11.0222 12.4898 10.919 12.4898 10.8158C12.4898 10.7125 12.4935 10.6093 12.5011 10.506C12.52 10.0625 12.5881 9.61133 12.7054 9.16398ZM8.01464 31.8184C8.12812 31.7037 8.27187 31.6464 8.41941 31.6464C8.56315 31.6464 8.7069 31.6999 8.8166 31.8107C9.06249 32.0554 9.42943 32.2696 9.90985 32.4493C10.2049 32.5602 10.3562 32.889 10.2465 33.1872C10.1633 33.4167 9.94767 33.5619 9.71314 33.5619C9.64883 33.5619 9.58451 33.5505 9.52021 33.5237C8.88469 33.2905 8.38158 32.9884 8.02221 32.629C7.79902 32.4034 7.79523 32.0402 8.01464 31.8184ZM2.55598 20.4893C2.55977 17.9543 4.33769 15.8972 6.84573 15.8972C6.84951 15.8972 6.8533 15.8972 6.8533 15.8972C8.56315 15.901 9.92875 16.8569 10.6286 18.264C10.6286 18.264 10.9199 18.7725 10.7761 19.2275C10.7156 19.4111 10.6097 19.5716 10.4508 19.7016C10.239 19.8737 9.94389 19.9922 9.59587 20.0649C8.49127 20.2866 8.08652 20.7799 7.35642 20.7799C7.20133 20.7799 7.0311 20.7569 6.83439 20.7034C6.6566 20.6537 6.45611 20.5811 6.22536 20.4778C6.22157 20.474 6.21778 20.474 6.214 20.474C6.19508 20.474 6.18373 20.4931 6.1913 20.5122C6.25561 20.6384 6.41449 20.929 6.66794 21.1814C6.90248 21.4146 7.22024 21.6134 7.61366 21.6134C7.70444 21.6134 7.79523 21.6057 7.89358 21.5828C8.07138 21.5407 8.74095 21.2693 9.36512 21.2693C9.82284 21.2693 10.2541 21.4146 10.4546 21.8964C10.5 22.0225 10.534 22.1105 10.5416 22.2443C10.5605 22.3896 10.5529 22.5387 10.5227 22.6801C10.4697 23.0549 10.012 24.114 10.012 24.114C8.97169 26.2016 7.48882 28.1478 6.8533 28.1478C5.82815 28.1478 2.55598 23.0357 2.55598 20.4931V20.4893ZM5.99082 29.9678C5.99082 29.4478 6.40692 29.0311 6.9176 29.0311H6.92139C7.43207 29.0311 7.84819 29.4516 7.84819 29.9716C7.84441 30.4878 7.43207 30.9084 6.9176 30.9084C6.66037 30.9046 6.42962 30.8013 6.26317 30.6293C6.09295 30.461 5.99082 30.224 5.99082 29.9678ZM13.1253 34.0934C12.9626 34.0934 12.8 34.0896 12.6335 34.0819C12.5881 34.0819 12.5427 34.0743 12.5011 34.059C12.2514 33.9902 12.0774 33.7607 12.0888 33.4893C12.0963 33.2331 12.2666 33.0114 12.5011 32.954C12.5427 32.9387 12.5843 32.9349 12.6297 32.9349H12.6751C12.8151 32.9425 12.9588 32.9425 13.0988 32.9425C13.2652 32.9425 13.4355 32.9387 13.5981 32.931C14.2715 32.9043 14.9108 32.824 15.4366 32.6902C15.482 32.6787 15.5274 32.6749 15.5728 32.6749C15.83 32.6749 16.0608 32.8507 16.1251 33.1107C16.2007 33.4166 16.0154 33.7302 15.709 33.8067C15.0886 33.9634 14.3698 34.059 13.5981 34.0858C13.443 34.0896 13.2842 34.0934 13.1253 34.0934ZM25.9113 6.76281C25.6806 6.62134 25.4422 6.48369 25.1926 6.35369C24.9126 6.2084 24.8029 5.86045 24.9467 5.58133C25.0488 5.38251 25.2455 5.26782 25.4536 5.26782C25.5406 5.26782 25.6276 5.29076 25.7108 5.33282C25.7789 5.36723 25.847 5.40545 25.9113 5.43986C26.3161 5.65781 26.6944 5.89105 27.0462 6.13958C27.485 6.44546 27.886 6.77045 28.2453 7.11457C28.4723 7.33251 28.4837 7.69575 28.268 7.92516C28.1545 8.04751 28.007 8.10488 27.8557 8.10488C27.7157 8.10488 27.5758 8.05133 27.4661 7.9481C27.3337 7.82192 27.1937 7.69576 27.0462 7.57723C26.7019 7.28664 26.3236 7.01517 25.9113 6.76281ZM39.3594 32.7781C39.2534 32.8393 39.14 32.9004 39.0303 32.9578C38.947 32.9999 38.86 33.0228 38.773 33.0228C38.565 33.0228 38.3682 32.9081 38.2661 32.7055C38.1261 32.4264 38.2359 32.0784 38.5158 31.9369C38.8071 31.7878 39.087 31.6158 39.3594 31.4208C39.749 31.1455 40.1159 30.8205 40.4564 30.4572C40.5207 30.3884 40.585 30.3196 40.6493 30.2469C40.759 30.1207 40.9179 30.0557 41.073 30.0557C41.2092 30.0557 41.3416 30.1016 41.4513 30.1972C41.6858 30.4075 41.7047 30.7707 41.4967 31.0078C41.1714 31.3787 40.8233 31.719 40.4564 32.0172C40.1084 32.304 39.7414 32.5602 39.3594 32.7781Z" fill="white"/>
<path d="M41.8674 8.68986C41.9128 8.80839 42.0187 8.87339 42.1284 8.87339C42.2192 8.87339 42.3137 8.8275 42.3667 8.72809L42.6202 8.26546C42.7261 8.07046 42.8925 7.91753 43.0968 7.82577L43.5734 7.60782C43.5734 7.604 43.5772 7.604 43.581 7.604C43.7891 7.50076 43.7853 7.1987 43.5734 7.10311L43.4827 7.06106L41.474 6.15106L41.3945 6.11664C41.3642 6.10134 41.3302 6.0937 41.2962 6.0937C41.2697 6.0937 41.2432 6.10134 41.2167 6.10898C41.1032 6.15104 41.0276 6.28106 41.073 6.41488L41.8674 8.68986Z" fill="white"/>
<path d="M6.50908 19.7666C6.71714 19.6634 6.71335 19.3614 6.50151 19.2658L6.41451 19.2276L4.40203 18.3176L4.32258 18.2793C4.29232 18.264 4.25827 18.2564 4.22801 18.2564C4.19775 18.2564 4.17126 18.264 4.14856 18.2717C4.03129 18.3137 3.95566 18.4437 4.00483 18.5775L4.79922 20.8526C4.84084 20.9749 4.94675 21.0361 5.05646 21.0361C5.15103 21.0361 5.24182 20.9902 5.29478 20.8946L5.54822 20.432C5.65414 20.2332 5.82059 20.0802 6.02487 19.9884L6.50151 19.7705C6.50529 19.7705 6.5053 19.7666 6.50908 19.7666Z" fill="white"/>
</svg>
