<svg width="464" height="147" viewBox="0 0 464 147" fill="none" xmlns="http://www.w3.org/2000/svg">
<path d="M135.293 110.167L135.974 111.176C134.362 112.24 132.625 113.938 130.763 116.27C128.901 118.585 127.446 120.98 126.397 123.452C126.178 123.968 125.983 124.313 125.811 124.485C125.654 124.657 125.419 124.743 125.106 124.743C124.809 124.743 124.535 124.641 124.285 124.438C124.05 124.219 123.933 123.898 123.933 123.475C123.933 123.037 123.988 122.216 124.097 121.011C124.222 119.79 124.285 118.93 124.285 118.429C124.285 114.908 123.894 112.068 123.111 109.909L124.825 109.439C125.717 110.988 126.163 113.782 126.163 117.819C126.163 119.133 126.139 120.182 126.092 120.964C128.596 115.831 131.663 112.232 135.293 110.167Z" fill="white"/>
<path d="M138.008 114.58C137.132 114.58 136.694 114.228 136.694 113.523C136.694 113.132 136.803 112.804 137.022 112.538C137.241 112.272 137.523 112.139 137.867 112.139C138.211 112.139 138.493 112.24 138.712 112.444C138.931 112.647 139.041 112.913 139.041 113.242C139.041 113.57 138.947 113.875 138.759 114.157C138.571 114.439 138.321 114.58 138.008 114.58ZM137.703 121.504L138.172 121.903C137.797 122.623 137.296 123.241 136.67 123.757C136.06 124.258 135.504 124.508 135.004 124.508C134.127 124.508 133.689 123.898 133.689 122.677C133.689 121.16 134.315 119.18 135.567 116.739C135.849 116.207 136.013 115.894 136.06 115.8L137.069 116.41C136.741 117.005 136.334 117.952 135.849 119.25C135.379 120.549 135.144 121.386 135.144 121.762C135.144 122.122 135.223 122.38 135.379 122.537C135.536 122.693 135.723 122.771 135.943 122.771C136.365 122.771 136.952 122.349 137.703 121.504Z" fill="white"/>
<path d="M150.039 122.161L150.579 122.56C150.36 123.029 149.953 123.475 149.359 123.898C148.78 124.32 148.248 124.532 147.762 124.532C146.839 124.532 146.378 124.047 146.378 123.076C146.378 122.623 146.495 122.083 146.73 121.457L145.861 122.349C145.016 123.209 144.281 123.788 143.655 124.086C143.045 124.383 142.442 124.532 141.848 124.532C141.253 124.532 140.799 124.367 140.486 124.039C140.189 123.695 140.04 123.225 140.04 122.63C140.04 121.535 140.463 120.455 141.308 119.391C142.153 118.312 143.232 117.435 144.547 116.762C145.861 116.09 147.176 115.745 148.49 115.73L148.537 116.504L147.551 116.716C146.127 117.028 144.868 117.654 143.772 118.593C142.693 119.532 142.153 120.471 142.153 121.41C142.153 122.333 142.528 122.795 143.279 122.795C143.983 122.795 144.852 122.302 145.885 121.316C146.917 120.33 147.778 119.172 148.467 117.842L149.452 118.429C148.482 120.385 147.997 121.629 147.997 122.161C147.997 122.38 148.068 122.568 148.208 122.724C148.365 122.865 148.514 122.936 148.654 122.936C148.811 122.936 148.913 122.928 148.959 122.912C149.006 122.896 149.053 122.881 149.1 122.865C149.147 122.834 149.202 122.795 149.265 122.748C149.343 122.701 149.405 122.654 149.452 122.607C149.515 122.56 149.609 122.49 149.734 122.396C149.859 122.302 149.961 122.224 150.039 122.161Z" fill="white"/>
<path d="M161.558 123.687L161.582 124.25C161.425 124.344 160.713 124.626 159.446 125.095C158.945 128.084 158.209 130.243 157.239 131.573C156.269 132.903 155.08 133.568 153.671 133.568C153.014 133.568 152.49 133.357 152.099 132.935C151.708 132.512 151.512 131.964 151.512 131.292C151.512 129.946 152.13 128.686 153.366 127.513C154.603 126.355 156.253 125.439 158.319 124.766C158.554 123.718 158.976 122.239 159.586 120.33C158.538 121.926 157.583 123.006 156.723 123.569C155.878 124.133 155.111 124.414 154.423 124.414C153.734 124.414 153.21 124.227 152.85 123.851C152.506 123.475 152.334 122.975 152.334 122.349C152.334 121.316 152.764 120.268 153.625 119.204C154.485 118.124 155.565 117.248 156.864 116.575C158.178 115.886 159.446 115.542 160.666 115.542L160.854 116.363C159.117 116.551 157.623 117.161 156.371 118.194C155.135 119.227 154.516 120.221 154.516 121.175C154.516 121.582 154.642 121.918 154.892 122.184C155.142 122.45 155.448 122.584 155.807 122.584C156.339 122.584 157.145 122.02 158.225 120.894C159.305 119.767 160.064 118.805 160.502 118.006L161.37 118.499C160.51 120.8 159.915 122.74 159.586 124.32L161.558 123.687ZM158.178 125.471C156.817 126.096 155.69 126.848 154.798 127.724C153.906 128.6 153.46 129.398 153.46 130.118C153.46 130.494 153.57 130.799 153.789 131.033C154.008 131.268 154.282 131.385 154.61 131.385C155.268 131.385 155.917 130.924 156.559 130.001C157.2 129.077 157.74 127.567 158.178 125.471Z" fill="white"/>
<path d="M171.907 123.687L171.93 124.25C171.774 124.344 171.062 124.626 169.794 125.095C169.294 128.084 168.558 130.243 167.588 131.573C166.618 132.903 165.429 133.568 164.02 133.568C163.363 133.568 162.839 133.357 162.448 132.935C162.056 132.512 161.861 131.964 161.861 131.292C161.861 129.946 162.479 128.686 163.715 127.513C164.951 126.355 166.602 125.439 168.668 124.766C168.902 123.718 169.325 122.239 169.935 120.33C168.887 121.926 167.932 123.006 167.072 123.569C166.227 124.133 165.46 124.414 164.771 124.414C164.083 124.414 163.559 124.227 163.199 123.851C162.854 123.475 162.682 122.975 162.682 122.349C162.682 121.316 163.113 120.268 163.973 119.204C164.834 118.124 165.914 117.248 167.212 116.575C168.527 115.886 169.794 115.542 171.015 115.542L171.203 116.363C169.466 116.551 167.971 117.161 166.719 118.194C165.483 119.227 164.865 120.221 164.865 121.175C164.865 121.582 164.99 121.918 165.241 122.184C165.491 122.45 165.796 122.584 166.156 122.584C166.688 122.584 167.494 122.02 168.574 120.894C169.653 119.767 170.412 118.805 170.851 118.006L171.719 118.499C170.858 120.8 170.264 122.74 169.935 124.32L171.907 123.687ZM168.527 125.471C167.165 126.096 166.039 126.848 165.147 127.724C164.255 128.6 163.809 129.398 163.809 130.118C163.809 130.494 163.918 130.799 164.138 131.033C164.357 131.268 164.63 131.385 164.959 131.385C165.616 131.385 166.266 130.924 166.907 130.001C167.549 129.077 168.089 127.567 168.527 125.471Z" fill="white"/>
<path d="M177.592 114.58C176.716 114.58 176.278 114.228 176.278 113.523C176.278 113.132 176.387 112.804 176.606 112.538C176.825 112.272 177.107 112.139 177.451 112.139C177.795 112.139 178.077 112.24 178.296 112.444C178.515 112.647 178.625 112.913 178.625 113.242C178.625 113.57 178.531 113.875 178.343 114.157C178.155 114.439 177.905 114.58 177.592 114.58ZM177.287 121.504L177.756 121.903C177.381 122.623 176.88 123.241 176.254 123.757C175.644 124.258 175.088 124.508 174.588 124.508C173.711 124.508 173.273 123.898 173.273 122.677C173.273 121.16 173.899 119.18 175.151 116.739C175.433 116.207 175.597 115.894 175.644 115.8L176.653 116.41C176.325 117.005 175.918 117.952 175.433 119.25C174.963 120.549 174.729 121.386 174.729 121.762C174.729 122.122 174.807 122.38 174.963 122.537C175.12 122.693 175.307 122.771 175.527 122.771C175.949 122.771 176.536 122.349 177.287 121.504Z" fill="white"/>
<path d="M189.623 122.161L190.163 122.56C189.944 123.029 189.537 123.475 188.943 123.898C188.364 124.32 187.832 124.532 187.346 124.532C186.423 124.532 185.962 124.047 185.962 123.076C185.962 122.623 186.079 122.083 186.314 121.457L185.445 122.349C184.6 123.209 183.865 123.788 183.239 124.086C182.629 124.383 182.026 124.532 181.432 124.532C180.837 124.532 180.383 124.367 180.07 124.039C179.773 123.695 179.624 123.225 179.624 122.63C179.624 121.535 180.047 120.455 180.892 119.391C181.737 118.312 182.816 117.435 184.131 116.762C185.445 116.09 186.76 115.745 188.074 115.73L188.121 116.504L187.135 116.716C185.711 117.028 184.452 117.654 183.356 118.593C182.277 119.532 181.737 120.471 181.737 121.41C181.737 122.333 182.112 122.795 182.863 122.795C183.568 122.795 184.436 122.302 185.469 121.316C186.501 120.33 187.362 119.172 188.051 117.842L189.036 118.429C188.066 120.385 187.581 121.629 187.581 122.161C187.581 122.38 187.652 122.568 187.792 122.724C187.949 122.865 188.098 122.936 188.238 122.936C188.395 122.936 188.497 122.928 188.544 122.912C188.59 122.896 188.637 122.881 188.684 122.865C188.731 122.834 188.786 122.795 188.849 122.748C188.927 122.701 188.99 122.654 189.036 122.607C189.099 122.56 189.193 122.49 189.318 122.396C189.443 122.302 189.545 122.224 189.623 122.161Z" fill="white"/>
<path d="M190.744 123.757C190.744 123.475 190.846 123.241 191.049 123.053C191.268 122.85 191.526 122.748 191.824 122.748C192.137 122.748 192.379 122.842 192.551 123.029C192.723 123.202 192.81 123.436 192.81 123.734C192.81 124.422 192.215 125.197 191.026 126.057L190.509 125.306C191.135 124.806 191.456 124.539 191.472 124.508C190.987 124.352 190.744 124.101 190.744 123.757Z" fill="white"/>
<path d="M212.954 121.762L213.494 122.184C213.009 122.857 212.344 123.421 211.499 123.874C210.654 124.313 209.833 124.532 209.035 124.532C208.237 124.532 207.595 124.297 207.11 123.828C206.625 123.358 206.382 122.74 206.382 121.973C206.382 120.534 207.141 119.117 208.659 117.725C210.193 116.332 211.742 115.636 213.307 115.636C214.339 115.636 214.856 116.043 214.856 116.856C214.856 117.701 214.308 118.554 213.213 119.415C212.133 120.275 210.607 121.058 208.636 121.762C208.776 122.122 208.996 122.404 209.293 122.607C209.59 122.81 209.895 122.912 210.208 122.912C210.881 122.912 211.797 122.529 212.954 121.762ZM208.518 121.058C209.786 120.62 210.873 120.072 211.781 119.415C212.688 118.758 213.142 118.155 213.142 117.607C213.142 117.404 213.064 117.224 212.908 117.068C212.751 116.911 212.571 116.833 212.368 116.833C211.632 116.833 210.834 117.295 209.974 118.218C209.129 119.125 208.643 120.072 208.518 121.058Z" fill="white"/>
<path d="M222.894 115.354L222.682 116.27C222.416 116.238 222.072 116.223 221.65 116.223C220.085 116.223 219.302 116.739 219.302 117.772C219.302 117.991 219.615 118.632 220.241 119.696C220.883 120.761 221.204 121.472 221.204 121.832C221.204 122.677 220.914 123.342 220.335 123.828C219.772 124.297 219.013 124.532 218.058 124.532C216.744 124.532 215.688 123.804 214.89 122.349L215.782 121.715C216.001 121.887 216.235 122.098 216.486 122.349C216.736 122.584 216.924 122.748 217.049 122.842C217.346 123.108 217.675 123.241 218.035 123.241C218.395 123.241 218.708 123.116 218.974 122.865C219.24 122.599 219.373 122.278 219.373 121.903C219.373 121.512 219.029 120.792 218.34 119.743C217.667 118.695 217.331 117.96 217.331 117.537C217.331 116.77 217.651 116.184 218.293 115.777C218.95 115.37 219.803 115.166 220.851 115.166C221.916 115.166 222.596 115.229 222.894 115.354Z" fill="white"/>
<path d="M226.955 120.213C228.145 118.429 229.177 117.216 230.054 116.575C230.93 115.917 231.697 115.589 232.354 115.589C233.011 115.589 233.52 115.792 233.88 116.199C234.24 116.59 234.42 117.091 234.42 117.701C234.42 119.391 233.809 120.956 232.589 122.396C231.384 123.82 230.022 124.532 228.505 124.532C227.832 124.532 227.3 124.414 226.909 124.18L227.472 123.17C228.286 123.28 228.794 123.335 228.998 123.335C229.843 123.335 230.633 122.842 231.368 121.856C232.104 120.87 232.471 119.861 232.471 118.828C232.471 118.437 232.354 118.116 232.119 117.866C231.9 117.6 231.611 117.467 231.251 117.467C230.39 117.467 229.412 118.226 228.317 119.743C227.237 121.261 226.22 123.139 225.265 125.377C224.327 127.63 223.505 130.024 222.801 132.559L221.393 132.066C221.424 131.972 221.721 131.159 222.285 129.625C222.832 128.107 223.372 126.597 223.904 125.095C225.375 120.964 226.11 118.703 226.11 118.312C226.11 117.31 225.907 116.403 225.5 115.589L226.674 115.002C227.159 115.675 227.401 116.387 227.401 117.138C227.401 117.873 227.253 118.898 226.955 120.213Z" fill="white"/>
<path d="M239.211 122.278L239.703 122.677C239.171 123.507 238.71 124.109 238.319 124.485C237.943 124.845 237.521 125.025 237.051 125.025C236.582 125.025 236.198 124.837 235.901 124.461C235.604 124.086 235.455 123.616 235.455 123.053C235.455 121.958 236.175 119.603 237.614 115.988C239.054 112.358 240.533 109.165 242.051 106.411L243.083 106.975C241.55 109.948 240.165 112.905 238.929 115.847C237.693 118.773 237.075 120.878 237.075 122.161C237.075 122.896 237.348 123.264 237.896 123.264C238.334 123.264 238.772 122.936 239.211 122.278Z" fill="white"/>
<path d="M249.08 117.561C249.487 118.233 249.69 118.977 249.69 119.79C249.69 121.058 249.252 122.192 248.376 123.194C247.5 124.18 246.467 124.672 245.278 124.672C244.37 124.672 243.658 124.414 243.142 123.898C242.641 123.366 242.391 122.638 242.391 121.715C242.391 120.228 242.97 118.898 244.128 117.725C245.285 116.536 246.584 115.941 248.024 115.941C248.29 115.941 248.478 115.949 248.587 115.964L248.658 116.739C247.406 116.739 246.365 117.099 245.536 117.819C244.707 118.539 244.292 119.462 244.292 120.588C244.292 121.261 244.456 121.809 244.785 122.231C245.113 122.638 245.591 122.842 246.217 122.842C246.858 122.842 247.367 122.56 247.742 121.997C248.118 121.433 248.306 120.776 248.306 120.025C248.306 119.258 248.157 118.562 247.86 117.936L249.08 117.561Z" fill="white"/>
<path d="M257.203 116.223C257.594 116.223 257.915 116.356 258.165 116.622C258.415 116.888 258.541 117.232 258.541 117.654C258.541 118.499 258.055 119.391 257.085 120.33L256.522 119.884C256.741 119.399 256.851 119.047 256.851 118.828C256.851 118.406 256.616 118.194 256.146 118.194C255.677 118.194 255.231 118.492 254.809 119.086C254.386 119.681 253.885 120.604 253.306 121.856C252.743 123.092 252.313 123.968 252.015 124.485L250.677 123.898C251.538 121.942 252.031 120.792 252.156 120.448C252.579 119.227 252.79 117.678 252.79 115.8L254.104 115.448C254.057 116.465 253.987 117.255 253.893 117.819C253.799 118.366 253.572 119.266 253.212 120.518C254.793 117.654 256.123 116.223 257.203 116.223Z" fill="white"/>
<path d="M269.513 122.161L270.053 122.56C269.834 123.029 269.427 123.475 268.832 123.898C268.253 124.32 267.721 124.532 267.236 124.532C266.313 124.532 265.851 124.047 265.851 123.076C265.851 122.623 265.969 122.083 266.203 121.457L265.335 122.349C264.49 123.209 263.754 123.788 263.129 124.086C262.518 124.383 261.916 124.532 261.321 124.532C260.727 124.532 260.273 124.367 259.96 124.039C259.663 123.695 259.514 123.225 259.514 122.63C259.514 121.535 259.936 120.455 260.781 119.391C261.626 118.312 262.706 117.435 264.021 116.762C265.335 116.09 266.649 115.745 267.964 115.73L268.011 116.504L267.025 116.716C265.601 117.028 264.341 117.654 263.246 118.593C262.166 119.532 261.626 120.471 261.626 121.41C261.626 122.333 262.002 122.795 262.753 122.795C263.457 122.795 264.326 122.302 265.358 121.316C266.391 120.33 267.252 119.172 267.94 117.842L268.926 118.429C267.956 120.385 267.471 121.629 267.471 122.161C267.471 122.38 267.541 122.568 267.682 122.724C267.839 122.865 267.987 122.936 268.128 122.936C268.285 122.936 268.386 122.928 268.433 122.912C268.48 122.896 268.527 122.881 268.574 122.865C268.621 122.834 268.676 122.795 268.738 122.748C268.817 122.701 268.879 122.654 268.926 122.607C268.989 122.56 269.083 122.49 269.208 122.396C269.333 122.302 269.435 122.224 269.513 122.161Z" fill="white"/>
<path d="M270.634 123.757C270.634 123.475 270.735 123.241 270.939 123.053C271.158 122.85 271.416 122.748 271.713 122.748C272.026 122.748 272.269 122.842 272.441 123.029C272.613 123.202 272.699 123.436 272.699 123.734C272.699 124.422 272.105 125.197 270.915 126.057L270.399 125.306C271.025 124.806 271.346 124.539 271.361 124.508C270.876 124.352 270.634 124.101 270.634 123.757Z" fill="white"/>
<path d="M293.947 116.129L294.745 116.762C292.664 119.501 291.256 121.785 290.52 123.616C290.27 124.227 289.91 124.532 289.441 124.532C289.143 124.532 288.877 124.375 288.643 124.062C288.424 123.749 288.275 123.468 288.197 123.217C288.134 122.951 288.025 122.404 287.868 121.574C287.712 120.745 287.54 119.884 287.352 118.992C287.164 118.085 287.007 117.412 286.882 116.974C286.773 116.52 286.695 116.223 286.648 116.082C286.616 115.941 286.554 115.824 286.46 115.73C286.366 115.62 286.311 115.55 286.296 115.518L287.821 115.659C288.275 116.77 288.635 117.975 288.901 119.274C288.963 119.54 289.073 120.08 289.229 120.894C289.386 121.692 289.511 122.317 289.605 122.771C290.466 121.113 291.217 119.767 291.858 118.734C292.516 117.686 293.212 116.817 293.947 116.129Z" fill="white"/>
<path d="M300.446 114.58C299.57 114.58 299.132 114.228 299.132 113.523C299.132 113.132 299.241 112.804 299.46 112.538C299.68 112.272 299.961 112.139 300.305 112.139C300.65 112.139 300.931 112.24 301.15 112.444C301.37 112.647 301.479 112.913 301.479 113.242C301.479 113.57 301.385 113.875 301.197 114.157C301.01 114.439 300.759 114.58 300.446 114.58ZM300.141 121.504L300.611 121.903C300.235 122.623 299.734 123.241 299.108 123.757C298.498 124.258 297.943 124.508 297.442 124.508C296.566 124.508 296.127 123.898 296.127 122.677C296.127 121.16 296.753 119.18 298.005 116.739C298.287 116.207 298.451 115.894 298.498 115.8L299.507 116.41C299.179 117.005 298.772 117.952 298.287 119.25C297.817 120.549 297.583 121.386 297.583 121.762C297.583 122.122 297.661 122.38 297.817 122.537C297.974 122.693 298.162 122.771 298.381 122.771C298.803 122.771 299.39 122.349 300.141 121.504Z" fill="white"/>
<path d="M310.083 116.129L310.881 116.762C308.8 119.501 307.392 121.785 306.656 123.616C306.406 124.227 306.046 124.532 305.577 124.532C305.279 124.532 305.013 124.375 304.779 124.062C304.56 123.749 304.411 123.468 304.333 123.217C304.27 122.951 304.161 122.404 304.004 121.574C303.848 120.745 303.676 119.884 303.488 118.992C303.3 118.085 303.143 117.412 303.018 116.974C302.909 116.52 302.831 116.223 302.784 116.082C302.752 115.941 302.69 115.824 302.596 115.73C302.502 115.62 302.447 115.55 302.432 115.518L303.957 115.659C304.411 116.77 304.771 117.975 305.037 119.274C305.099 119.54 305.209 120.08 305.365 120.894C305.522 121.692 305.647 122.317 305.741 122.771C306.602 121.113 307.353 119.767 307.994 118.734C308.652 117.686 309.348 116.817 310.083 116.129Z" fill="white"/>
<path d="M316.582 114.58C315.706 114.58 315.268 114.228 315.268 113.523C315.268 113.132 315.377 112.804 315.596 112.538C315.816 112.272 316.097 112.139 316.441 112.139C316.786 112.139 317.067 112.24 317.286 112.444C317.506 112.647 317.615 112.913 317.615 113.242C317.615 113.57 317.521 113.875 317.333 114.157C317.146 114.439 316.895 114.58 316.582 114.58ZM316.277 121.504L316.747 121.903C316.371 122.623 315.87 123.241 315.244 123.757C314.634 124.258 314.079 124.508 313.578 124.508C312.702 124.508 312.263 123.898 312.263 122.677C312.263 121.16 312.889 119.18 314.141 116.739C314.423 116.207 314.587 115.894 314.634 115.8L315.643 116.41C315.315 117.005 314.908 117.952 314.423 119.25C313.953 120.549 313.719 121.386 313.719 121.762C313.719 122.122 313.797 122.38 313.953 122.537C314.11 122.693 314.298 122.771 314.517 122.771C314.939 122.771 315.526 122.349 316.277 121.504Z" fill="white"/>
<path d="M336.652 121.199L337.215 121.668C336.84 122.529 336.237 123.217 335.408 123.734C334.579 124.25 333.773 124.508 332.99 124.508C332.224 124.508 331.582 124.266 331.066 123.781C330.565 123.295 330.314 122.63 330.314 121.785C330.314 120.94 330.682 120.025 331.418 119.039C332.153 118.053 333.1 117.24 334.258 116.598C335.431 115.957 336.581 115.636 337.708 115.636C337.865 115.636 338.099 115.651 338.412 115.683L338.342 116.598C336.621 116.676 335.189 117.201 334.046 118.171C332.92 119.141 332.357 120.174 332.357 121.269C332.357 121.723 332.497 122.091 332.779 122.372C333.061 122.654 333.428 122.795 333.882 122.795C334.602 122.795 335.525 122.263 336.652 121.199Z" fill="white"/>
<path d="M346.023 117.561C346.43 118.233 346.633 118.977 346.633 119.79C346.633 121.058 346.195 122.192 345.319 123.194C344.442 124.18 343.409 124.672 342.22 124.672C341.313 124.672 340.601 124.414 340.084 123.898C339.584 123.366 339.333 122.638 339.333 121.715C339.333 120.228 339.912 118.898 341.07 117.725C342.228 116.536 343.527 115.941 344.966 115.941C345.232 115.941 345.42 115.949 345.53 115.964L345.6 116.739C344.348 116.739 343.308 117.099 342.478 117.819C341.649 118.539 341.234 119.462 341.234 120.588C341.234 121.261 341.399 121.809 341.727 122.231C342.056 122.638 342.533 122.842 343.159 122.842C343.801 122.842 344.309 122.56 344.685 121.997C345.06 121.433 345.248 120.776 345.248 120.025C345.248 119.258 345.099 118.562 344.802 117.936L346.023 117.561Z" fill="white"/>
<path d="M363.464 121.48L363.956 121.95C363.065 123.546 362.04 124.344 360.882 124.344C360.412 124.344 360.044 124.219 359.778 123.968C359.528 123.702 359.403 123.358 359.403 122.936C359.403 122.497 359.661 121.754 360.178 120.706C360.694 119.657 360.968 118.859 360.999 118.312C361.015 118.061 360.936 117.858 360.764 117.701C360.608 117.545 360.389 117.467 360.107 117.467C359.825 117.467 359.536 117.537 359.239 117.678C358.957 117.803 358.675 118.014 358.394 118.312C358.128 118.609 357.877 118.898 357.643 119.18C357.423 119.462 357.173 119.861 356.891 120.377C356.625 120.894 356.399 121.324 356.211 121.668C355.882 122.31 355.413 123.272 354.802 124.555L353.394 124.062C353.394 124.015 353.652 123.131 354.169 121.41C354.685 119.689 354.943 118.664 354.943 118.335C354.943 118.006 354.865 117.772 354.709 117.631C354.552 117.474 354.356 117.396 354.122 117.396C353.418 117.396 352.44 118.273 351.188 120.025C349.952 121.778 349.161 123.272 348.817 124.508L347.479 124.062C347.557 123.233 347.925 121.746 348.582 119.603C349.24 117.443 349.795 115.972 350.249 115.19L351.305 115.565C350.82 116.645 350.484 117.561 350.296 118.312C350.108 119.047 349.944 119.837 349.803 120.682C351.149 118.758 352.275 117.412 353.183 116.645C354.09 115.863 354.912 115.472 355.647 115.472C356.445 115.472 356.844 115.871 356.844 116.669C356.844 116.982 356.704 117.6 356.422 118.523C356.156 119.446 355.945 120.174 355.788 120.706C357.948 117.232 359.88 115.495 361.586 115.495C362.008 115.495 362.345 115.628 362.595 115.894C362.845 116.144 362.971 116.528 362.971 117.044C362.971 117.545 362.673 118.382 362.079 119.556C361.5 120.729 361.21 121.472 361.21 121.785C361.21 122.083 361.273 122.302 361.398 122.443C361.523 122.584 361.68 122.654 361.867 122.654C362.274 122.654 362.806 122.263 363.464 121.48Z" fill="white"/>
<path d="M371.554 121.762L372.094 122.184C371.609 122.857 370.944 123.421 370.099 123.874C369.254 124.313 368.432 124.532 367.634 124.532C366.836 124.532 366.194 124.297 365.709 123.828C365.224 123.358 364.982 122.74 364.982 121.973C364.982 120.534 365.741 119.117 367.258 117.725C368.792 116.332 370.341 115.636 371.906 115.636C372.939 115.636 373.455 116.043 373.455 116.856C373.455 117.701 372.907 118.554 371.812 119.415C370.732 120.275 369.207 121.058 367.235 121.762C367.376 122.122 367.595 122.404 367.892 122.607C368.19 122.81 368.495 122.912 368.808 122.912C369.48 122.912 370.396 122.529 371.554 121.762ZM367.118 121.058C368.385 120.62 369.473 120.072 370.38 119.415C371.288 118.758 371.742 118.155 371.742 117.607C371.742 117.404 371.663 117.224 371.507 117.068C371.35 116.911 371.17 116.833 370.967 116.833C370.232 116.833 369.434 117.295 368.573 118.218C367.728 119.125 367.243 120.072 367.118 121.058Z" fill="white"/>
<path d="M395.55 121.95L396.043 122.349C395.777 123.006 395.354 123.561 394.775 124.015C394.212 124.469 393.696 124.696 393.226 124.696C392.772 124.696 392.412 124.539 392.146 124.227C391.88 123.898 391.747 123.475 391.747 122.959C391.747 122.443 391.833 121.778 392.006 120.964C391.27 122.122 390.48 123.029 389.635 123.687C388.79 124.344 388.078 124.672 387.499 124.672C386.623 124.672 386.185 124.047 386.185 122.795C386.185 121.731 386.544 120.369 387.264 118.711C387.984 117.052 388.508 116.09 388.837 115.824L389.964 116.317C389.322 117.349 388.837 118.366 388.508 119.368C388.18 120.369 388.015 121.042 388.015 121.386C388.015 121.715 388.117 121.981 388.32 122.184C388.54 122.388 388.79 122.49 389.072 122.49C389.697 122.49 390.472 121.918 391.395 120.776C392.334 119.618 393.289 117.897 394.259 115.612L395.456 116.152C395.425 116.277 395.065 117.185 394.376 118.875C393.703 120.565 393.367 121.582 393.367 121.926C393.367 122.255 393.437 122.505 393.578 122.677C393.735 122.85 393.883 122.936 394.024 122.936C394.181 122.936 394.298 122.928 394.376 122.912C394.454 122.896 394.533 122.865 394.611 122.818C394.689 122.771 394.752 122.732 394.799 122.701C394.861 122.67 394.932 122.615 395.01 122.537L395.198 122.372C395.229 122.325 395.284 122.255 395.362 122.161C395.456 122.051 395.518 121.981 395.55 121.95Z" fill="white"/>
<path d="M406.779 121.692L407.272 122.067C406.928 122.756 406.451 123.335 405.841 123.804C405.246 124.273 404.706 124.508 404.221 124.508C403.736 124.508 403.353 124.367 403.071 124.086C402.789 123.804 402.648 123.452 402.648 123.029C402.648 122.607 402.914 121.872 403.446 120.823C403.994 119.759 404.268 118.977 404.268 118.476C404.268 118.257 404.174 118.061 403.986 117.889C403.814 117.701 403.603 117.607 403.353 117.607C402.555 117.607 401.749 118.218 400.935 119.438C400.121 120.643 399.214 122.388 398.212 124.672L396.804 124.18C397.101 122.364 397.524 120.596 398.071 118.875C398.635 117.138 399.151 115.894 399.621 115.143L400.583 115.448C400.145 116.559 399.589 118.476 398.916 121.199C401.076 117.506 403.063 115.659 404.878 115.659C405.269 115.659 405.59 115.792 405.841 116.058C406.107 116.324 406.24 116.637 406.24 116.997C406.24 117.357 406.193 117.686 406.099 117.983C406.005 118.265 405.708 118.938 405.207 120.002C404.722 121.05 404.479 121.707 404.479 121.973C404.479 122.239 404.557 122.45 404.714 122.607C404.87 122.748 405.019 122.818 405.16 122.818C405.301 122.818 405.418 122.795 405.512 122.748C405.606 122.701 405.708 122.63 405.817 122.537C405.942 122.443 406.052 122.357 406.146 122.278C406.24 122.2 406.349 122.098 406.474 121.973C406.615 121.832 406.717 121.739 406.779 121.692Z" fill="white"/>
<path d="M423.711 122.278L424.203 122.677C423.671 123.507 423.21 124.109 422.819 124.485C422.443 124.845 422.021 125.025 421.551 125.025C421.082 125.025 420.698 124.837 420.401 124.461C420.104 124.086 419.955 123.616 419.955 123.053C419.955 121.958 420.675 119.603 422.115 115.988C423.554 112.358 425.033 109.165 426.551 106.411L427.583 106.975C426.05 109.948 424.665 112.905 423.429 115.847C422.193 118.773 421.575 120.878 421.575 122.161C421.575 122.896 421.848 123.264 422.396 123.264C422.834 123.264 423.272 122.936 423.711 122.278Z" fill="white"/>
<path d="M433.58 117.561C433.987 118.233 434.19 118.977 434.19 119.79C434.19 121.058 433.752 122.192 432.876 123.194C432 124.18 430.967 124.672 429.778 124.672C428.87 124.672 428.158 124.414 427.642 123.898C427.141 123.366 426.891 122.638 426.891 121.715C426.891 120.228 427.47 118.898 428.628 117.725C429.785 116.536 431.084 115.941 432.524 115.941C432.79 115.941 432.978 115.949 433.087 115.964L433.158 116.739C431.906 116.739 430.865 117.099 430.036 117.819C429.207 118.539 428.792 119.462 428.792 120.588C428.792 121.261 428.956 121.809 429.285 122.231C429.613 122.638 430.091 122.842 430.717 122.842C431.358 122.842 431.867 122.56 432.242 121.997C432.618 121.433 432.806 120.776 432.806 120.025C432.806 119.258 432.657 118.562 432.36 117.936L433.58 117.561Z" fill="white"/>
<path d="M441.491 121.199L442.055 121.668C441.679 122.529 441.077 123.217 440.247 123.734C439.418 124.25 438.612 124.508 437.83 124.508C437.063 124.508 436.422 124.266 435.905 123.781C435.404 123.295 435.154 122.63 435.154 121.785C435.154 120.94 435.522 120.025 436.257 119.039C436.993 118.053 437.939 117.24 439.097 116.598C440.271 115.957 441.421 115.636 442.548 115.636C442.704 115.636 442.939 115.651 443.252 115.683L443.181 116.598C441.46 116.676 440.028 117.201 438.886 118.171C437.759 119.141 437.196 120.174 437.196 121.269C437.196 121.723 437.337 122.091 437.619 122.372C437.9 122.654 438.268 122.795 438.722 122.795C439.442 122.795 440.365 122.263 441.491 121.199Z" fill="white"/>
<path d="M454.242 122.161L454.782 122.56C454.563 123.029 454.156 123.475 453.561 123.898C452.983 124.32 452.451 124.532 451.965 124.532C451.042 124.532 450.581 124.047 450.581 123.076C450.581 122.623 450.698 122.083 450.933 121.457L450.064 122.349C449.219 123.209 448.484 123.788 447.858 124.086C447.248 124.383 446.645 124.532 446.05 124.532C445.456 124.532 445.002 124.367 444.689 124.039C444.392 123.695 444.243 123.225 444.243 122.63C444.243 121.535 444.666 120.455 445.511 119.391C446.356 118.312 447.435 117.435 448.75 116.762C450.064 116.09 451.379 115.745 452.693 115.73L452.74 116.504L451.754 116.716C450.33 117.028 449.071 117.654 447.975 118.593C446.895 119.532 446.356 120.471 446.356 121.41C446.356 122.333 446.731 122.795 447.482 122.795C448.186 122.795 449.055 122.302 450.088 121.316C451.12 120.33 451.981 119.172 452.67 117.842L453.655 118.429C452.685 120.385 452.2 121.629 452.2 122.161C452.2 122.38 452.271 122.568 452.411 122.724C452.568 122.865 452.716 122.936 452.857 122.936C453.014 122.936 453.116 122.928 453.162 122.912C453.209 122.896 453.256 122.881 453.303 122.865C453.35 122.834 453.405 122.795 453.468 122.748C453.546 122.701 453.608 122.654 453.655 122.607C453.718 122.56 453.812 122.49 453.937 122.396C454.062 122.302 454.164 122.224 454.242 122.161Z" fill="white"/>
<path d="M459.306 122.278L459.799 122.677C459.267 123.507 458.805 124.109 458.414 124.485C458.039 124.845 457.616 125.025 457.147 125.025C456.677 125.025 456.294 124.837 455.997 124.461C455.699 124.086 455.551 123.616 455.551 123.053C455.551 121.958 456.271 119.603 457.71 115.988C459.15 112.358 460.628 109.165 462.146 106.411L463.179 106.975C461.646 109.948 460.261 112.905 459.025 115.847C457.788 118.773 457.17 120.878 457.17 122.161C457.17 122.896 457.444 123.264 457.992 123.264C458.43 123.264 458.868 122.936 459.306 122.278Z" fill="white"/>
<path d="M116.311 53.6656C116.311 49.3712 117.13 45.3309 118.769 41.545C120.408 37.7591 122.668 34.397 125.55 31.4586C128.432 28.5203 131.765 26.2318 135.551 24.5931C139.394 22.8979 143.491 22.0503 147.842 22.0503C152.136 22.0503 156.176 22.8979 159.962 24.5931C163.805 26.2318 167.167 28.5203 170.049 31.4586C172.987 34.397 175.275 37.7591 176.914 41.545C178.609 45.3309 179.457 49.3712 179.457 53.6656C179.457 58.0166 178.609 62.0851 176.914 65.871C175.275 69.6569 172.987 73.0191 170.049 75.9574C167.167 78.8392 163.805 81.0995 159.962 82.7382C156.176 84.3204 152.136 85.1114 147.842 85.1114C143.434 85.1114 139.337 84.3204 135.551 82.7382C131.765 81.0995 128.432 78.8675 125.55 76.0422C122.668 73.1603 120.408 69.8265 118.769 66.0405C117.13 62.1981 116.311 58.0731 116.311 53.6656ZM126.482 53.6656C126.482 56.717 127.019 59.5706 128.093 62.2264C129.223 64.8822 130.777 67.2272 132.754 69.2614C134.732 71.2391 137.021 72.793 139.62 73.9232C142.219 75.0533 145.044 75.6184 148.096 75.6184C151.034 75.6184 153.775 75.0533 156.317 73.9232C158.917 72.793 161.177 71.2391 163.098 69.2614C165.019 67.2272 166.517 64.8822 167.591 62.2264C168.721 59.5706 169.286 56.717 169.286 53.6656C169.286 50.5578 168.721 47.676 167.591 45.0202C166.46 42.3644 164.935 40.0193 163.013 37.9851C161.092 35.9509 158.832 34.3687 156.233 33.2386C153.633 32.1085 150.836 31.5434 147.842 31.5434C144.847 31.5434 142.05 32.1085 139.45 33.2386C136.851 34.3687 134.563 35.9509 132.585 37.9851C130.664 40.0193 129.166 42.3926 128.093 45.1049C127.019 47.7607 126.482 50.6143 126.482 53.6656Z" fill="white"/>
<path d="M210.01 22.7284C213.4 22.7284 216.508 23.1804 219.334 24.0845C222.159 24.9321 224.56 26.2035 226.538 27.8987C228.516 29.5939 230.042 31.6847 231.115 34.1709C232.245 36.6007 232.81 39.3978 232.81 42.5621C232.81 44.9919 232.443 47.4217 231.708 49.8515C230.974 52.2812 229.759 54.485 228.064 56.4627C226.425 58.4404 224.25 60.0226 221.537 61.2092C218.825 62.3959 215.463 62.9892 211.451 62.9892H202.551V84.4334H192.634V22.7284H210.01ZM211.366 53.4961C213.57 53.4961 215.406 53.1571 216.876 52.479C218.345 51.7444 219.475 50.8403 220.266 49.7667C221.114 48.6931 221.707 47.5629 222.046 46.3763C222.441 45.1332 222.639 43.9748 222.639 42.9012C222.639 41.8841 222.47 40.7822 222.131 39.5955C221.792 38.3524 221.227 37.194 220.435 36.1204C219.644 34.9903 218.514 34.0579 217.045 33.3233C215.632 32.5888 213.852 32.2215 211.705 32.2215H202.551V53.4961H211.366ZM222.046 59.3445L237.811 84.4334H226.369L210.264 59.5988L222.046 59.3445Z" fill="white"/>
<path d="M249.417 22.7284H259.333V84.4334H249.417V22.7284Z" fill="white"/>
<path d="M271.91 84.4334C272.306 83.8683 273.069 82.7382 274.199 81.043C275.385 79.2913 276.798 77.1723 278.437 74.686C280.132 72.1432 281.94 69.3462 283.861 66.2948C285.839 63.187 287.873 60.0509 289.964 56.8865C292.055 53.6656 294.089 50.5578 296.067 47.5629C298.045 44.5116 299.853 41.7428 301.491 39.2565C303.13 36.7137 304.515 34.5947 305.645 32.8995C306.831 31.1478 307.622 30.0177 308.018 29.5092L309.205 32.2215H283.268C282.138 32.2215 281.008 31.9954 279.878 31.5434C278.748 31.0913 277.787 30.4415 276.996 29.5939C276.205 28.7463 275.809 27.7575 275.809 26.6273V19.5923H284.963V20.7789C284.963 21.8525 285.161 22.4459 285.557 22.5589C285.952 22.6719 286.63 22.7284 287.591 22.7284H323.529L288.099 76.0422L287.591 74.9403H324.037V84.4334H271.91Z" fill="white"/>
<path d="M333.176 53.6656C333.176 49.3712 333.996 45.3309 335.634 41.545C337.273 37.7591 339.533 34.397 342.415 31.4586C345.297 28.5203 348.631 26.2318 352.417 24.5931C356.259 22.8979 360.356 22.0503 364.707 22.0503C369.001 22.0503 373.042 22.8979 376.827 24.5931C380.67 26.2318 384.032 28.5203 386.914 31.4586C389.852 34.397 392.141 37.7591 393.779 41.545C395.475 45.3309 396.322 49.3712 396.322 53.6656C396.322 58.0166 395.475 62.0851 393.779 65.871C392.141 69.6569 389.852 73.0191 386.914 75.9574C384.032 78.8392 380.67 81.0995 376.827 82.7382C373.042 84.3204 369.001 85.1114 364.707 85.1114C360.299 85.1114 356.203 84.3204 352.417 82.7382C348.631 81.0995 345.297 78.8675 342.415 76.0422C339.533 73.1603 337.273 69.8265 335.634 66.0405C333.996 62.1981 333.176 58.0731 333.176 53.6656ZM343.347 53.6656C343.347 56.717 343.884 59.5706 344.958 62.2264C346.088 64.8822 347.642 67.2272 349.62 69.2614C351.597 71.2391 353.886 72.793 356.485 73.9232C359.084 75.0533 361.91 75.6184 364.961 75.6184C367.899 75.6184 370.64 75.0533 373.183 73.9232C375.782 72.793 378.042 71.2391 379.964 69.2614C381.885 67.2272 383.382 64.8822 384.456 62.2264C385.586 59.5706 386.151 56.717 386.151 53.6656C386.151 50.5578 385.586 47.676 384.456 45.0202C383.326 42.3644 381.8 40.0193 379.879 37.9851C377.958 35.9509 375.697 34.3687 373.098 33.2386C370.499 32.1085 367.702 31.5434 364.707 31.5434C361.712 31.5434 358.915 32.1085 356.316 33.2386C353.716 34.3687 351.428 35.9509 349.45 37.9851C347.529 40.0193 346.031 42.3926 344.958 45.1049C343.884 47.7607 343.347 50.6143 343.347 53.6656Z" fill="white"/>
<path d="M463.746 86.6371L416.365 40.6974L419.247 41.8841L419.501 84.4334H409.5V20.6094H409.923L456.626 66.5491L454.337 65.871L454.168 22.7284H464V86.6371H463.746Z" fill="white"/>
<path d="M97.8051 28.2656C89.3059 11.3993 72.7158 0 52.0036 0C21.548 0 0 24.6527 0 55.0656C0 85.4785 39.7971 146.699 52.2206 146.699C59.8967 146.699 77.8459 123.34 90.448 98.3114C90.448 98.3114 95.9611 85.6378 96.58 81.1583C96.9437 79.4443 97.033 77.6729 96.8225 75.9207C96.7076 74.3405 96.2992 73.2636 95.7313 71.7598C89.9822 58.105 68.4597 67.1657 64.7142 68.0387C58.3334 69.5233 53.35 66.707 49.8342 63.2662C46.765 60.2587 44.8188 56.7732 44.0531 55.2567C43.9191 54.9955 44.1935 54.7215 44.4615 54.8362C47.2435 56.0851 49.6746 56.9644 51.8505 57.5379C65.3012 61.0934 69.0723 53.1158 85.2923 49.8343C89.51 48.9805 93.0961 47.5404 95.6739 45.4759C97.6009 43.934 98.8898 42.016 99.6045 39.7795C101.334 34.357 97.8051 28.2656 97.8051 28.2656ZM47.9008 46.3298C47.8689 46.3489 47.8306 46.3616 47.7987 46.3807L42.0177 48.9932C39.5738 50.0955 37.5575 51.9561 36.2685 54.301L33.2121 59.8508C31.8339 62.355 28.133 62.0619 27.1759 59.3602L17.4962 32.1588C16.9219 30.5403 17.8535 28.9856 19.2382 28.4822C19.889 28.2464 20.6419 28.2401 21.3885 28.5714L22.3456 28.9983L46.7267 39.8623L47.7859 40.3339C50.3574 41.4808 50.4084 45.1 47.9008 46.3298Z" fill="white"/>
</svg>
