<svg width="312" height="457" viewBox="0 0 312 457" fill="none" xmlns="http://www.w3.org/2000/svg">
<path d="M304.684 88.0533C278.207 35.5111 226.525 0 162.003 0C67.1267 0 0 76.7985 0 171.541C0 266.284 123.977 457 162.678 457C186.591 457 242.507 384.231 281.765 306.261C281.765 306.261 298.94 266.78 300.868 252.826C302.001 247.486 302.279 241.968 301.623 236.509C301.265 231.587 299.993 228.232 298.224 223.548C280.314 181.01 213.267 209.236 201.599 211.955C181.721 216.58 166.197 207.807 155.244 197.088C145.683 187.719 139.62 176.861 137.235 172.137C136.818 171.323 137.672 170.469 138.507 170.827C147.174 174.717 154.747 177.456 161.526 179.243C203.428 190.319 215.175 165.467 265.704 155.245C278.843 152.585 290.014 148.099 298.045 141.667C304.048 136.864 308.063 130.889 310.29 123.922C315.676 107.03 304.684 88.0533 304.684 88.0533ZM149.221 144.327C149.122 144.387 149.003 144.427 148.903 144.486L130.894 152.624C123.281 156.058 117 161.855 112.984 169.159L103.463 186.448C99.1694 194.249 87.6404 193.336 84.6588 184.92L54.5044 100.182C52.7154 95.1397 55.6176 90.2964 59.931 88.7282C61.9585 87.9938 64.3041 87.9739 66.6298 89.0061L69.6114 90.336L145.564 124.18L148.863 125.649C156.874 129.222 157.033 140.496 149.221 144.327Z" fill="url(#paint0_linear_68_58)"/>
<defs>
<linearGradient id="paint0_linear_68_58" x1="112.723" y1="9.6944" x2="243.303" y2="438.428" gradientUnits="userSpaceOnUse">
<stop stop-color="#2A62FF"/>
<stop offset="0.2664" stop-color="#207CED"/>
<stop offset="1" stop-color="#04BFBF"/>
</linearGradient>
</defs>
</svg>
