<svg width="302" height="68" viewBox="0 0 302 68" fill="none" xmlns="http://www.w3.org/2000/svg">
<path d="M68.4122 36.8573C68.4122 33.9873 68.9619 31.2871 70.0613 28.7569C71.1607 26.2268 72.677 23.9798 74.6104 22.0161C76.5438 20.0523 78.7804 18.5229 81.3204 17.4277C83.8982 16.2948 86.6466 15.7284 89.5657 15.7284C92.4468 15.7284 95.1573 16.2948 97.6972 17.4277C100.275 18.5229 102.531 20.0523 104.464 22.0161C106.435 23.9798 107.971 26.2268 109.07 28.7569C110.207 31.2871 110.776 33.9873 110.776 36.8573C110.776 39.7651 110.207 42.4842 109.07 45.0143C107.971 47.5445 106.435 49.7915 104.464 51.7552C102.531 53.6812 100.275 55.1917 97.6972 56.2869C95.1573 57.3443 92.4468 57.873 89.5657 57.873C86.6087 57.873 83.8603 57.3443 81.3204 56.2869C78.7804 55.1917 76.5438 53.7001 74.6104 51.8119C72.677 49.8859 71.1607 47.6578 70.0613 45.1276C68.9619 42.5597 68.4122 39.8029 68.4122 36.8573ZM75.2359 36.8573C75.2359 38.8966 75.5961 40.8037 76.3163 42.5786C77.0745 44.3535 78.117 45.9207 79.4439 47.2802C80.7707 48.6019 82.306 49.6404 84.0498 50.3957C85.7937 51.151 87.6891 51.5286 89.7362 51.5286C91.7075 51.5286 93.5461 51.151 95.2521 50.3957C96.9959 49.6404 98.5123 48.6019 99.8012 47.2802C101.09 45.9207 102.095 44.3535 102.815 42.5786C103.573 40.8037 103.952 38.8966 103.952 36.8573C103.952 34.7803 103.573 32.8543 102.815 31.0794C102.057 29.3045 101.033 27.7373 99.7443 26.3778C98.4554 25.0183 96.939 23.9609 95.1952 23.2056C93.4514 22.4504 91.5748 22.0727 89.5657 22.0727C87.5565 22.0727 85.6799 22.4504 83.9361 23.2056C82.1923 23.9609 80.657 25.0183 79.3301 26.3778C78.0412 27.7373 77.0366 29.3234 76.3163 31.1361C75.5961 32.911 75.2359 34.8181 75.2359 36.8573Z" fill="white"/>
<path d="M131.274 16.1815C133.548 16.1815 135.633 16.4836 137.529 17.0879C139.424 17.6543 141.035 18.504 142.362 19.6369C143.689 20.7699 144.713 22.1671 145.433 23.8287C146.191 25.4526 146.57 27.3219 146.57 29.4367C146.57 31.0605 146.324 32.6844 145.831 34.3082C145.338 35.9321 144.523 37.4049 143.386 38.7266C142.286 40.0484 140.827 41.1058 139.007 41.8988C137.188 42.6919 134.932 43.0884 132.24 43.0884H126.27V57.4198H119.617V16.1815H131.274ZM132.183 36.744C133.662 36.744 134.894 36.5174 135.88 36.0643C136.865 35.5733 137.623 34.9691 138.154 34.2516C138.723 33.5341 139.121 32.7788 139.348 31.9858C139.614 31.155 139.746 30.3808 139.746 29.6633C139.746 28.9835 139.633 28.2471 139.405 27.4541C139.178 26.6233 138.799 25.8491 138.268 25.1316C137.737 24.3763 136.979 23.7532 135.993 23.2623C135.046 22.7713 133.851 22.5259 132.411 22.5259H126.27V36.744H132.183ZM139.348 40.6526L149.925 57.4198H142.248L131.444 40.8225L139.348 40.6526Z" fill="white"/>
<path d="M157.711 16.1815H164.364V57.4198H157.711V16.1815Z" fill="white"/>
<path d="M172.802 57.4198C173.067 57.0422 173.579 56.2869 174.337 55.154C175.133 53.9833 176.081 52.5671 177.18 50.9055C178.318 49.2061 179.531 47.3368 180.82 45.2976C182.146 43.2205 183.511 41.1246 184.914 39.0099C186.316 36.8573 187.681 34.7803 189.008 32.7788C190.335 30.7396 191.548 28.8891 192.647 27.2275C193.747 25.5281 194.675 24.112 195.434 22.9791C196.23 21.8084 196.76 21.0531 197.026 20.7132L197.822 22.5259H180.421C179.663 22.5259 178.905 22.3748 178.147 22.0727C177.389 21.7706 176.744 21.3363 176.214 20.7699C175.683 20.2034 175.417 19.5425 175.417 18.7872V14.0856H181.559V14.8787C181.559 15.5962 181.691 15.9927 181.957 16.0682C182.222 16.1438 182.677 16.1815 183.322 16.1815H207.432L183.663 51.8119L183.322 51.0755H207.773V57.4198H172.802Z" fill="white"/>
<path d="M213.904 36.8573C213.904 33.9873 214.454 31.2871 215.553 28.7569C216.653 26.2268 218.169 23.9798 220.102 22.0161C222.036 20.0523 224.272 18.5229 226.812 17.4277C229.39 16.2948 232.139 15.7284 235.058 15.7284C237.939 15.7284 240.649 16.2948 243.189 17.4277C245.767 18.5229 248.023 20.0523 249.956 22.0161C251.927 23.9798 253.463 26.2268 254.562 28.7569C255.699 31.2871 256.268 33.9873 256.268 36.8573C256.268 39.7651 255.699 42.4842 254.562 45.0143C253.463 47.5445 251.927 49.7915 249.956 51.7552C248.023 53.6812 245.767 55.1917 243.189 56.2869C240.649 57.3443 237.939 57.873 235.058 57.873C232.101 57.873 229.352 57.3443 226.812 56.2869C224.272 55.1917 222.036 53.7001 220.102 51.8119C218.169 49.8859 216.653 47.6578 215.553 45.1276C214.454 42.5597 213.904 39.8029 213.904 36.8573ZM220.728 36.8573C220.728 38.8966 221.088 40.8037 221.808 42.5786C222.566 44.3535 223.609 45.9207 224.936 47.2802C226.263 48.6019 227.798 49.6404 229.542 50.3957C231.286 51.151 233.181 51.5286 235.228 51.5286C237.199 51.5286 239.038 51.151 240.744 50.3957C242.488 49.6404 244.004 48.6019 245.293 47.2802C246.582 45.9207 247.587 44.3535 248.307 42.5786C249.065 40.8037 249.444 38.8966 249.444 36.8573C249.444 34.7803 249.065 32.8543 248.307 31.0794C247.549 29.3045 246.525 27.7373 245.236 26.3778C243.947 25.0183 242.431 23.9609 240.687 23.2056C238.943 22.4504 237.067 22.0727 235.058 22.0727C233.048 22.0727 231.172 22.4504 229.428 23.2056C227.684 23.9609 226.149 25.0183 224.822 26.3778C223.533 27.7373 222.529 29.3234 221.808 31.1361C221.088 32.911 220.728 34.8181 220.728 36.8573Z" fill="white"/>
<path d="M301.501 58.8926L269.714 28.1905L271.648 28.9835L271.818 57.4198H265.108V14.7654H265.393L296.725 45.4675L295.19 45.0143L295.076 16.1815H301.672V58.8926H301.501Z" fill="white"/>
<path d="M44.9537 13.102C41.0473 5.28393 33.422 0 23.9022 0C9.90401 0 0 11.4274 0 25.5247C0 39.6221 18.2918 68 24.0019 68C27.53 68 35.78 57.1722 41.5722 45.5706C41.5722 45.5706 44.1061 39.696 44.3906 37.6196C44.5578 36.8251 44.5989 36.004 44.5021 35.1918C44.4493 34.4593 44.2616 33.9601 44.0006 33.2631C41.3581 26.9336 31.4658 31.1336 29.7443 31.5382C26.8115 32.2264 24.521 30.9209 22.905 29.326C21.4944 27.9319 20.5999 26.3163 20.2479 25.6133C20.1864 25.4922 20.3125 25.3652 20.4356 25.4184C21.7143 25.9973 22.8317 26.4049 23.8318 26.6707C30.0141 28.3188 31.7474 24.6209 39.2025 23.0999C41.1411 22.7041 42.7893 22.0366 43.9742 21.0796C44.8599 20.3649 45.4523 19.4758 45.7808 18.4391C46.5756 15.9256 44.9537 13.102 44.9537 13.102ZM22.0164 21.4754C22.0017 21.4843 21.9842 21.4902 21.9695 21.499L19.3124 22.71C18.1891 23.221 17.2624 24.0834 16.6699 25.1703L15.2651 27.7429C14.6317 28.9036 12.9306 28.7678 12.4907 27.5154L8.0417 14.9067C7.77774 14.1565 8.20593 13.4358 8.84235 13.2025C9.14149 13.0932 9.48756 13.0902 9.83069 13.2438L10.2706 13.4417L21.4768 18.4775L21.9636 18.6961C23.1455 19.2277 23.169 20.9054 22.0164 21.4754Z" fill="white"/>
</svg>
