<svg width="746" height="1042" viewBox="0 0 746 1042" fill="none" xmlns="http://www.w3.org/2000/svg">
<path d="M626.135 109.152C528.477 12.3369 388.829 -27.2675 248.189 22.058C41.3881 94.5875 -46.5407 316.999 25.4887 528.072C97.5181 739.144 512.744 1069.25 597.102 1039.67C649.225 1021.39 715.781 816.524 742.074 612.807C742.074 612.807 749.493 511.72 743.087 479.158C741.497 466.396 737.908 453.89 732.329 442.23C727.806 431.536 722.483 425.035 715.065 415.951C643.687 334.875 519.004 449.014 495.638 463.992C455.827 489.492 415.319 481.814 383.296 466.307C355.333 452.743 333.863 433.188 325.072 424.487C323.544 422.993 324.758 420.438 326.849 420.595C348.698 422.638 367.288 422.951 383.421 421.749C483.175 414.392 489.888 350.045 592.254 288.643C618.871 272.673 639.81 254.139 652.425 233.672C661.858 218.381 666.067 202 665.623 184.776C664.522 143.025 626.135 109.152 626.135 109.152ZM330.056 353.368C329.885 353.577 329.655 353.757 329.484 353.965L296.417 385.864C282.433 399.334 273.148 417.049 269.95 436.392L262.34 482.188C258.912 502.85 233.088 509.629 220.191 493.159L90.0397 327.426C82.3071 317.561 84.9507 304.553 93.1605 297.762C97.0215 294.575 102.119 292.738 107.973 293.26L115.483 293.943L306.767 311.279L315.076 312.029C335.253 313.865 344.171 338.861 330.056 353.368Z" fill="#E5E5E5"/>
</svg>
