<svg width="100" height="71" viewBox="0 0 100 71" fill="none" xmlns="http://www.w3.org/2000/svg">
<path d="M99.8217 53.4258V58.6629C99.8217 61.5943 97.4457 63.9703 94.5143 63.9703H77.861V55.4925C77.861 49.3415 75.8364 43.5701 72.3708 38.8883C74.0649 37.7355 75.97 36.8778 78.0156 36.3717C74.2969 34.7408 71.7029 31.0291 71.7029 26.7129C71.7029 20.8923 76.4269 16.1683 82.2475 16.1683C88.0681 16.1683 92.792 20.8923 92.792 26.7129C92.792 31.0291 90.1981 34.7408 86.4794 36.3717C94.1418 38.2557 99.8217 45.1799 99.8217 53.4258Z" fill="#2A62FF"/>
<path d="M21.8061 36.3717C23.8518 36.8778 25.7569 37.7355 27.451 38.8883C23.9854 43.5701 21.9608 49.3415 21.9608 55.4925V63.9703H5.30746C2.37607 63.9703 0 61.5943 0 58.6629V53.4258C0 45.1799 5.68003 38.2557 13.3424 36.3717C9.62369 34.7408 7.0297 31.0291 7.0297 26.7129C7.0297 20.8923 11.7537 16.1683 17.5743 16.1683C23.3948 16.1683 28.1188 20.8923 28.1188 26.7129C28.1188 31.0291 25.5249 34.7408 21.8061 36.3717Z" fill="#2A62FF"/>
<path d="M75.7521 55.4925V65.6926C75.7521 68.624 73.376 71 70.4446 71H29.3771C26.4457 71 24.0697 68.624 24.0697 65.6926V55.4925C24.0697 49.7562 25.9396 44.4488 29.11 40.1677C32.8498 35.0923 38.4103 31.4369 44.8214 30.1574C38.7547 28.0485 34.4033 22.2842 34.4033 15.5075C34.4033 6.94534 41.3487 0 49.9109 0C58.473 0 65.4184 6.94534 65.4184 15.5075C65.4184 22.2842 61.067 28.0485 55.0004 30.1574C61.4115 31.4369 66.972 35.0923 70.7118 40.1677C73.8822 44.4488 75.7521 49.7562 75.7521 55.4925Z" fill="#2A62FF"/>
</svg>
