<svg width="760" height="388" viewBox="0 0 760 388" fill="none" xmlns="http://www.w3.org/2000/svg">
<path fill-rule="evenodd" clip-rule="evenodd" d="M0 73.3164C0 70.935 1.93541 69.0044 4.31687 69.0044C6.69833 69.0044 8.63374 70.935 8.63374 73.3164C8.63374 75.6979 6.69833 77.6285 4.31687 77.6285C1.93541 77.6285 0 75.6979 0 73.3164ZM0 90.5597C0 88.1782 1.93541 86.2477 4.31687 86.2477C6.69833 86.2477 8.63374 88.1782 8.63374 90.5597C8.63374 92.9412 6.69833 94.8717 4.31687 94.8717C1.93541 94.8717 0 92.9412 0 90.5597ZM17.2721 73.3164C17.2721 70.935 19.2098 69.0044 21.5913 69.0044C23.9728 69.0044 25.9105 70.935 25.9105 73.3164C25.9105 75.6979 23.9728 77.6285 21.5913 77.6285C19.2098 77.6285 17.2721 75.6979 17.2721 73.3164ZM17.2721 90.5597C17.2721 88.1782 19.2098 86.2477 21.5913 86.2477C23.9728 86.2477 25.9105 88.1782 25.9105 90.5597C25.9105 92.9412 23.9728 94.8717 21.5913 94.8717C19.2098 94.8717 17.2721 92.9412 17.2721 90.5597ZM17.2721 107.805C17.2721 105.425 19.2111 103.496 21.5913 103.496C23.9715 103.496 25.9105 105.425 25.9105 107.805C25.9105 110.186 23.9715 112.115 21.5913 112.115C19.2111 112.115 17.2721 110.186 17.2721 107.805ZM34.5442 73.3164C34.5442 70.935 36.4819 69.0044 38.8634 69.0044C41.2448 69.0044 43.1826 70.935 43.1826 73.3164C43.1826 75.6979 41.2448 77.6285 38.8634 77.6285C36.4819 77.6285 34.5442 75.6979 34.5442 73.3164ZM34.5442 90.5597C34.5442 88.1782 36.4819 86.2477 38.8634 86.2477C41.2449 86.2477 43.1826 88.1782 43.1826 90.5597C43.1826 92.9412 41.2449 94.8717 38.8634 94.8717C36.4819 94.8717 34.5442 92.9412 34.5442 90.5597ZM51.8162 73.3164C51.8162 70.935 53.754 69.0044 56.1355 69.0044C58.5169 69.0044 60.4547 70.935 60.4547 73.3164C60.4547 75.6979 58.5169 77.6285 56.1355 77.6285C53.754 77.6285 51.8162 75.6979 51.8162 73.3164ZM51.8162 90.5597C51.8162 88.1782 53.754 86.2477 56.1355 86.2477C58.5169 86.2477 60.4547 88.1782 60.4547 90.5597C60.4547 92.9412 58.5169 94.8717 56.1355 94.8717C53.754 94.8717 51.8162 92.9412 51.8162 90.5597ZM34.5442 107.805C34.5442 105.425 36.4832 103.496 38.8634 103.496C41.2436 103.496 43.1826 105.425 43.1826 107.805C43.1826 110.186 41.2436 112.115 38.8634 112.115C36.4832 112.115 34.5442 110.186 34.5442 107.805ZM69.0883 73.3164C69.0883 70.935 71.0261 69.0044 73.4075 69.0044C75.789 69.0044 77.7268 70.935 77.7268 73.3164C77.7268 75.6979 75.789 77.6285 73.4075 77.6285C71.0261 77.6285 69.0883 75.6979 69.0883 73.3164ZM69.0883 90.5597C69.0883 88.1782 71.0261 86.2477 73.4075 86.2477C75.789 86.2477 77.7268 88.1782 77.7268 90.5597C77.7268 92.9412 75.789 94.8717 73.4075 94.8717C71.0261 94.8717 69.0883 92.9412 69.0883 90.5597ZM69.0883 107.805C69.0883 105.425 71.0274 103.496 73.4075 103.496C75.7877 103.496 77.7268 105.425 77.7268 107.805C77.7268 110.186 75.7877 112.115 73.4075 112.115C71.0274 112.115 69.0883 110.186 69.0883 107.805ZM86.3652 73.3164C86.3652 70.935 88.3006 69.0044 90.6821 69.0044C93.0636 69.0044 94.999 70.935 94.999 73.3164C94.999 75.6979 93.0636 77.6285 90.6821 77.6285C88.3006 77.6285 86.3652 75.6979 86.3652 73.3164ZM86.3652 90.5597C86.3652 88.1782 88.3006 86.2477 90.6821 86.2477C93.0636 86.2477 94.999 88.1782 94.999 90.5597C94.999 92.9412 93.0636 94.8717 90.6821 94.8717C88.3006 94.8717 86.3652 92.9412 86.3652 90.5597ZM86.3652 107.805C86.3652 105.425 88.3019 103.496 90.6821 103.496C93.0623 103.496 94.999 105.425 94.999 107.805C94.999 110.186 93.0623 112.115 90.6821 112.115C88.3019 112.115 86.3652 110.186 86.3652 107.805ZM86.3652 125.049C86.3652 122.669 88.3019 120.739 90.6821 120.739C93.0623 120.739 94.999 122.669 94.999 125.049C94.999 127.429 93.0623 129.358 90.6821 129.358C88.3019 129.358 86.3652 127.429 86.3652 125.049ZM86.3652 142.292C86.3652 139.912 88.3019 137.982 90.6821 137.982C93.0623 137.982 94.999 139.912 94.999 142.292C94.999 144.672 93.0623 146.602 90.6821 146.602C88.3019 146.602 86.3652 144.672 86.3652 142.292ZM103.637 38.8287C103.637 36.4472 105.573 34.5167 107.954 34.5167C110.336 34.5167 112.271 36.4472 112.271 38.8287C112.271 41.2102 110.336 43.1407 107.954 43.1407C105.573 43.1407 103.637 41.2102 103.637 38.8287ZM103.637 56.072C103.637 53.6905 105.573 51.7599 107.954 51.7599C110.336 51.7599 112.271 53.6905 112.271 56.072C112.271 58.4534 110.336 60.384 107.954 60.384C105.573 60.384 103.637 58.4534 103.637 56.072ZM103.637 73.3152C103.637 70.9338 105.573 69.0032 107.954 69.0032C110.336 69.0032 112.271 70.9338 112.271 73.3152C112.271 75.6967 110.336 77.6273 107.954 77.6273C105.573 77.6273 103.637 75.6967 103.637 73.3152ZM103.637 90.5585C103.637 88.177 105.573 86.2465 107.954 86.2465C110.336 86.2465 112.271 88.177 112.271 90.5585C112.271 92.94 110.336 94.8705 107.954 94.8705C105.573 94.8705 103.637 92.94 103.637 90.5585ZM103.637 107.804C103.637 105.424 105.574 103.495 107.954 103.495C110.334 103.495 112.271 105.424 112.271 107.804C112.271 110.184 110.334 112.114 107.954 112.114C105.574 112.114 103.637 110.184 103.637 107.804ZM103.637 125.047C103.637 122.667 105.574 120.738 107.954 120.738C110.334 120.738 112.271 122.667 112.271 125.047C112.271 127.428 110.334 129.357 107.954 129.357C105.574 129.357 103.637 127.428 103.637 125.047ZM103.637 142.291C103.637 139.911 105.574 137.981 107.954 137.981C110.334 137.981 112.271 139.911 112.271 142.291C112.271 144.671 110.334 146.6 107.954 146.6C105.574 146.6 103.637 144.671 103.637 142.291ZM103.637 159.536C103.637 157.155 105.573 155.224 107.954 155.224C110.336 155.224 112.271 157.155 112.271 159.536C112.271 161.918 110.336 163.848 107.954 163.848C105.573 163.848 103.637 161.918 103.637 159.536ZM103.637 176.78C103.637 174.398 105.573 172.468 107.954 172.468C110.336 172.468 112.271 174.398 112.271 176.78C112.271 179.161 110.336 181.092 107.954 181.092C105.573 181.092 103.637 179.161 103.637 176.78ZM120.909 38.8215C120.909 36.44 122.845 34.5094 125.226 34.5094C127.608 34.5094 129.543 36.44 129.543 38.8215C129.543 41.2029 127.608 43.1335 125.226 43.1335C122.845 43.1335 120.909 41.2029 120.909 38.8215ZM138.181 21.5759C138.181 19.1957 140.121 17.2662 142.501 17.2662C144.881 17.2662 146.82 19.1957 146.82 21.5759C146.82 23.956 144.881 25.8855 142.501 25.8855C140.121 25.8855 138.181 23.956 138.181 21.5759ZM120.909 56.0647C120.909 53.6833 122.845 51.7527 125.226 51.7527C127.608 51.7527 129.543 53.6833 129.543 56.0647C129.543 58.4462 127.608 60.3768 125.226 60.3768C122.845 60.3768 120.909 58.4462 120.909 56.0647ZM120.909 73.308C120.909 70.9265 122.845 68.996 125.226 68.996C127.608 68.996 129.543 70.9265 129.543 73.308C129.543 75.6895 127.608 77.62 125.226 77.62C122.845 77.62 120.909 75.6895 120.909 73.308ZM120.909 90.5513C120.909 88.1698 122.845 86.2392 125.226 86.2392C127.608 86.2392 129.543 88.1698 129.543 90.5513C129.543 92.9327 127.608 94.8633 125.226 94.8633C122.845 94.8633 120.909 92.9327 120.909 90.5513ZM120.909 107.797C120.909 105.417 122.846 103.487 125.226 103.487C127.606 103.487 129.543 105.417 129.543 107.797C129.543 110.177 127.606 112.107 125.226 112.107C122.846 112.107 120.909 110.177 120.909 107.797ZM120.909 125.04C120.909 122.66 122.846 120.731 125.226 120.731C127.606 120.731 129.543 122.66 129.543 125.04C129.543 127.42 127.606 129.35 125.226 129.35C122.846 129.35 120.909 127.42 120.909 125.04ZM120.909 142.284C120.909 139.903 122.846 137.974 125.226 137.974C127.606 137.974 129.543 139.903 129.543 142.284C129.543 144.664 127.606 146.593 125.226 146.593C122.846 146.593 120.909 144.664 120.909 142.284ZM120.909 159.529C120.909 157.148 122.845 155.217 125.226 155.217C127.608 155.217 129.543 157.148 129.543 159.529C129.543 161.911 127.608 163.841 125.226 163.841C122.845 163.841 120.909 161.911 120.909 159.529ZM120.909 176.772C120.909 174.391 122.845 172.46 125.226 172.46C127.608 172.46 129.543 174.391 129.543 176.772C129.543 179.154 127.608 181.084 125.226 181.084C122.845 181.084 120.909 179.154 120.909 176.772ZM120.909 194.016C120.909 191.634 122.845 189.704 125.226 189.704C127.608 189.704 129.543 191.634 129.543 194.016C129.543 196.397 127.608 198.328 125.226 198.328C122.845 198.328 120.909 196.397 120.909 194.016ZM138.181 56.0575C138.181 53.676 140.119 51.7455 142.501 51.7455C144.882 51.7455 146.82 53.676 146.82 56.0575C146.82 58.439 144.882 60.3695 142.501 60.3695C140.119 60.3695 138.181 58.439 138.181 56.0575ZM138.181 73.3008C138.181 70.9193 140.119 68.9887 142.501 68.9887C144.882 68.9887 146.82 70.9193 146.82 73.3008C146.82 75.6822 144.882 77.6128 142.501 77.6128C140.119 77.6128 138.181 75.6822 138.181 73.3008ZM138.181 90.544C138.181 88.1625 140.119 86.232 142.501 86.232C144.882 86.232 146.82 88.1625 146.82 90.544C146.82 92.9255 144.882 94.856 142.501 94.856C140.119 94.856 138.181 92.9255 138.181 90.544ZM138.181 107.79C138.181 105.41 140.121 103.48 142.501 103.48C144.881 103.48 146.82 105.41 146.82 107.79C146.82 110.17 144.881 112.099 142.501 112.099C140.121 112.099 138.181 110.17 138.181 107.79ZM138.181 125.033C138.181 122.653 140.121 120.723 142.501 120.723C144.881 120.723 146.82 122.653 146.82 125.033C146.82 127.413 144.881 129.343 142.501 129.343C140.121 129.343 138.181 127.413 138.181 125.033ZM138.181 142.276C138.181 139.896 140.121 137.967 142.501 137.967C144.881 137.967 146.82 139.896 146.82 142.276C146.82 144.656 144.881 146.586 142.501 146.586C140.121 146.586 138.181 144.656 138.181 142.276ZM138.181 159.522C138.181 157.14 140.119 155.21 142.501 155.21C144.882 155.21 146.82 157.14 146.82 159.522C146.82 161.903 144.882 163.834 142.501 163.834C140.119 163.834 138.181 161.903 138.181 159.522ZM138.181 176.765C138.181 174.384 140.119 172.453 142.501 172.453C144.882 172.453 146.82 174.384 146.82 176.765C146.82 179.147 144.882 181.077 142.501 181.077C140.119 181.077 138.181 179.147 138.181 176.765ZM138.181 194.008C138.181 191.627 140.119 189.696 142.501 189.696C144.882 189.696 146.82 191.627 146.82 194.008C146.82 196.39 144.882 198.32 142.501 198.32C140.119 198.32 138.181 196.39 138.181 194.008ZM138.181 211.252C138.181 208.87 140.119 206.94 142.501 206.94C144.882 206.94 146.82 208.87 146.82 211.252C146.82 213.633 144.882 215.564 142.501 215.564C140.119 215.564 138.181 213.633 138.181 211.252ZM155.454 21.5674C155.454 19.1872 157.393 17.2577 159.773 17.2577C162.153 17.2577 164.092 19.1872 164.092 21.5674C164.092 23.9476 162.153 25.8771 159.773 25.8771C157.393 25.8771 155.454 23.9476 155.454 21.5674ZM155.454 38.813C155.454 36.4315 157.391 34.501 159.773 34.501C162.154 34.501 164.092 36.4315 164.092 38.813C164.092 41.1945 162.154 43.125 159.773 43.125C157.391 43.125 155.454 41.1945 155.454 38.813ZM155.454 56.0563C155.454 53.6748 157.391 51.7443 159.773 51.7443C162.154 51.7443 164.092 53.6748 164.092 56.0563C164.092 58.4377 162.154 60.3683 159.773 60.3683C157.391 60.3683 155.454 58.4377 155.454 56.0563ZM172.726 56.0563C172.726 53.6748 174.663 51.7443 177.045 51.7443C179.426 51.7443 181.364 53.6748 181.364 56.0563C181.364 58.4377 179.426 60.3683 177.045 60.3683C174.663 60.3683 172.726 58.4377 172.726 56.0563ZM189.998 56.0563C189.998 53.6748 191.935 51.7443 194.317 51.7443C196.698 51.7443 198.636 53.6748 198.636 56.0563C198.636 58.4377 196.698 60.3683 194.317 60.3683C191.935 60.3683 189.998 58.4377 189.998 56.0563ZM155.454 73.2995C155.454 70.9181 157.391 68.9875 159.773 68.9875C162.154 68.9875 164.092 70.9181 164.092 73.2995C164.092 75.681 162.154 77.6116 159.773 77.6116C157.391 77.6116 155.454 75.681 155.454 73.2995ZM155.454 125.032C155.454 122.652 157.393 120.722 159.773 120.722C162.153 120.722 164.092 122.652 164.092 125.032C164.092 127.412 162.153 129.341 159.773 129.341C157.393 129.341 155.454 127.412 155.454 125.032ZM155.454 142.275C155.454 139.895 157.393 137.965 159.773 137.965C162.153 137.965 164.092 139.895 164.092 142.275C164.092 144.655 162.153 146.585 159.773 146.585C157.393 146.585 155.454 144.655 155.454 142.275ZM155.454 159.521C155.454 157.139 157.391 155.209 159.773 155.209C162.154 155.209 164.092 157.139 164.092 159.521C164.092 161.902 162.154 163.833 159.773 163.833C157.391 163.833 155.454 161.902 155.454 159.521ZM155.454 176.764C155.454 174.382 157.391 172.452 159.773 172.452C162.154 172.452 164.092 174.382 164.092 176.764C164.092 179.145 162.154 181.076 159.773 181.076C157.391 181.076 155.454 179.145 155.454 176.764ZM172.726 125.032C172.726 122.652 174.665 120.722 177.045 120.722C179.425 120.722 181.364 122.652 181.364 125.032C181.364 127.412 179.425 129.341 177.045 129.341C174.665 129.341 172.726 127.412 172.726 125.032ZM172.726 142.275C172.726 139.895 174.665 137.965 177.045 137.965C179.425 137.965 181.364 139.895 181.364 142.275C181.364 144.655 179.425 146.585 177.045 146.585C174.665 146.585 172.726 144.655 172.726 142.275ZM172.726 159.521C172.726 157.139 174.663 155.209 177.045 155.209C179.426 155.209 181.364 157.139 181.364 159.521C181.364 161.902 179.426 163.833 177.045 163.833C174.663 163.833 172.726 161.902 172.726 159.521ZM172.726 176.764C172.726 174.382 174.663 172.452 177.045 172.452C179.426 172.452 181.364 174.382 181.364 176.764C181.364 179.145 179.426 181.076 177.045 181.076C174.663 181.076 172.726 179.145 172.726 176.764ZM172.726 228.496C172.726 226.116 174.665 224.187 177.045 224.187C179.425 224.187 181.364 226.116 181.364 228.496C181.364 230.876 179.425 232.806 177.045 232.806C174.665 232.806 172.726 230.876 172.726 228.496ZM189.998 228.496C189.998 226.116 191.937 224.187 194.317 224.187C196.697 224.187 198.636 226.116 198.636 228.496C198.636 230.876 196.697 232.806 194.317 232.806C191.937 232.806 189.998 230.876 189.998 228.496ZM207.275 228.496C207.275 226.116 209.211 224.187 211.591 224.187C213.972 224.187 215.908 226.116 215.908 228.496C215.908 230.876 213.972 232.806 211.591 232.806C209.211 232.806 207.275 230.876 207.275 228.496ZM224.547 228.496C224.547 226.116 226.483 224.187 228.864 224.187C231.244 224.187 233.18 226.116 233.18 228.496C233.18 230.876 231.244 232.806 228.864 232.806C226.483 232.806 224.547 230.876 224.547 228.496ZM189.998 245.739C189.998 243.359 191.937 241.43 194.317 241.43C196.697 241.43 198.636 243.359 198.636 245.739C198.636 248.12 196.697 250.049 194.317 250.049C191.937 250.049 189.998 248.12 189.998 245.739ZM207.275 245.739C207.275 243.359 209.211 241.43 211.591 241.43C213.972 241.43 215.908 243.359 215.908 245.739C215.908 248.12 213.972 250.049 211.591 250.049C209.211 250.049 207.275 248.12 207.275 245.739ZM224.547 245.739C224.547 243.359 226.483 241.43 228.864 241.43C231.244 241.43 233.18 243.359 233.18 245.739C233.18 248.12 231.244 250.049 228.864 250.049C226.483 250.049 224.547 248.12 224.547 245.739ZM241.819 245.739C241.819 243.359 243.755 241.43 246.136 241.43C248.516 241.43 250.453 243.359 250.453 245.739C250.453 248.12 248.516 250.049 246.136 250.049C243.755 250.049 241.819 248.12 241.819 245.739ZM189.998 262.983C189.998 260.603 191.937 258.673 194.317 258.673C196.697 258.673 198.636 260.603 198.636 262.983C198.636 265.363 196.697 267.292 194.317 267.292C191.937 267.292 189.998 265.363 189.998 262.983ZM207.275 262.983C207.275 260.603 209.211 258.673 211.591 258.673C213.972 258.673 215.908 260.603 215.908 262.983C215.908 265.363 213.972 267.292 211.591 267.292C209.211 267.292 207.275 265.363 207.275 262.983ZM224.547 262.983C224.547 260.603 226.483 258.673 228.864 258.673C231.244 258.673 233.18 260.603 233.18 262.983C233.18 265.363 231.244 267.292 228.864 267.292C226.483 267.292 224.547 265.363 224.547 262.983ZM241.819 262.983C241.819 260.603 243.755 258.673 246.136 258.673C248.516 258.673 250.453 260.603 250.453 262.983C250.453 265.363 248.516 267.292 246.136 267.292C243.755 267.292 241.819 265.363 241.819 262.983ZM259.091 262.983C259.091 260.603 261.03 258.673 263.41 258.673C265.79 258.673 267.729 260.603 267.729 262.983C267.729 265.363 265.79 267.292 263.41 267.292C261.03 267.292 259.091 265.363 259.091 262.983ZM189.996 280.228C189.996 277.847 191.934 275.916 194.316 275.916C196.697 275.916 198.635 277.847 198.635 280.228C198.635 282.61 196.697 284.54 194.316 284.54C191.934 284.54 189.996 282.61 189.996 280.228ZM207.273 280.228C207.273 277.847 209.209 275.916 211.59 275.916C213.972 275.916 215.907 277.847 215.907 280.228C215.907 282.61 213.972 284.54 211.59 284.54C209.209 284.54 207.273 282.61 207.273 280.228ZM224.546 280.228C224.546 277.847 226.481 275.916 228.862 275.916C231.244 275.916 233.179 277.847 233.179 280.228C233.179 282.61 231.244 284.54 228.862 284.54C226.481 284.54 224.546 282.61 224.546 280.228ZM241.818 280.228C241.818 277.847 243.753 275.916 246.134 275.916C248.516 275.916 250.451 277.847 250.451 280.228C250.451 282.61 248.516 284.54 246.134 284.54C243.753 284.54 241.818 282.61 241.818 280.228ZM207.273 297.472C207.273 295.09 209.209 293.16 211.59 293.16C213.972 293.16 215.907 295.09 215.907 297.472C215.907 299.853 213.972 301.784 211.59 301.784C209.209 301.784 207.273 299.853 207.273 297.472ZM224.546 297.472C224.546 295.09 226.481 293.16 228.862 293.16C231.244 293.16 233.179 295.09 233.179 297.472C233.179 299.853 231.244 301.784 228.862 301.784C226.481 301.784 224.546 299.853 224.546 297.472ZM241.818 297.472C241.818 295.09 243.753 293.16 246.134 293.16C248.516 293.16 250.451 295.09 250.451 297.472C250.451 299.853 248.516 301.784 246.134 301.784C243.753 301.784 241.818 299.853 241.818 297.472ZM207.273 314.715C207.273 312.333 209.209 310.403 211.59 310.403C213.972 310.403 215.907 312.333 215.907 314.715C215.907 317.096 213.972 319.027 211.59 319.027C209.209 319.027 207.273 317.096 207.273 314.715ZM224.546 314.715C224.546 312.333 226.481 310.403 228.862 310.403C231.244 310.403 233.179 312.333 233.179 314.715C233.179 317.096 231.244 319.027 228.862 319.027C226.481 319.027 224.546 317.096 224.546 314.715ZM207.273 331.958C207.273 329.577 209.209 327.646 211.59 327.646C213.972 327.646 215.907 329.577 215.907 331.958C215.907 334.34 213.972 336.27 211.59 336.27C209.209 336.27 207.273 334.34 207.273 331.958ZM207.273 349.204C207.273 346.824 209.21 344.894 211.59 344.894C213.97 344.894 215.907 346.824 215.907 349.204C215.907 351.584 213.97 353.513 211.59 353.513C209.21 353.513 207.273 351.584 207.273 349.204ZM207.273 366.447C207.273 364.067 209.21 362.137 211.59 362.137C213.97 362.137 215.907 364.067 215.907 366.447C215.907 368.827 213.97 370.757 211.59 370.757C209.21 370.757 207.273 368.827 207.273 366.447ZM224.546 383.69C224.546 381.31 226.482 379.381 228.862 379.381C231.243 379.381 233.179 381.31 233.179 383.69C233.179 386.07 231.243 388 228.862 388C226.482 388 224.546 386.07 224.546 383.69ZM224.546 331.958C224.546 329.577 226.481 327.646 228.862 327.646C231.244 327.646 233.179 329.577 233.179 331.958C233.179 334.34 231.244 336.27 228.862 336.27C226.481 336.27 224.546 334.34 224.546 331.958ZM241.818 314.715C241.818 312.333 243.753 310.403 246.134 310.403C248.516 310.403 250.451 312.333 250.451 314.715C250.451 317.096 248.516 319.027 246.134 319.027C243.753 319.027 241.818 317.096 241.818 314.715ZM259.09 280.228C259.09 277.847 261.027 275.916 263.409 275.916C265.79 275.916 267.728 277.847 267.728 280.228C267.728 282.61 265.79 284.54 263.409 284.54C261.027 284.54 259.09 282.61 259.09 280.228ZM189.995 107.781C189.995 105.401 191.934 103.472 194.315 103.472C196.695 103.472 198.634 105.401 198.634 107.781C198.634 110.161 196.695 112.091 194.315 112.091C191.934 112.091 189.995 110.161 189.995 107.781ZM189.995 125.025C189.995 122.644 191.934 120.715 194.315 120.715C196.695 120.715 198.634 122.644 198.634 125.025C198.634 127.405 196.695 129.334 194.315 129.334C191.934 129.334 189.995 127.405 189.995 125.025ZM189.995 73.2923C189.995 70.9108 191.933 68.9803 194.315 68.9803C196.696 68.9803 198.634 70.9108 198.634 73.2923C198.634 75.6738 196.696 77.6043 194.315 77.6043C191.933 77.6043 189.995 75.6738 189.995 73.2923ZM189.995 90.5356C189.995 88.1541 191.933 86.2235 194.315 86.2235C196.696 86.2235 198.634 88.1541 198.634 90.5356C198.634 92.917 196.696 94.8476 194.315 94.8476C191.933 94.8476 189.995 92.917 189.995 90.5356ZM189.995 142.268C189.995 139.888 191.934 137.958 194.315 137.958C196.695 137.958 198.634 139.888 198.634 142.268C198.634 144.648 196.695 146.577 194.315 146.577C191.934 146.577 189.995 144.648 189.995 142.268ZM207.272 107.781C207.272 105.401 209.209 103.472 211.589 103.472C213.969 103.472 215.906 105.401 215.906 107.781C215.906 110.161 213.969 112.091 211.589 112.091C209.209 112.091 207.272 110.161 207.272 107.781ZM207.272 125.025C207.272 122.644 209.209 120.715 211.589 120.715C213.969 120.715 215.906 122.644 215.906 125.025C215.906 127.405 213.969 129.334 211.589 129.334C209.209 129.334 207.272 127.405 207.272 125.025ZM207.272 73.2923C207.272 70.9108 209.208 68.9803 211.589 68.9803C213.971 68.9803 215.906 70.9108 215.906 73.2923C215.906 75.6738 213.971 77.6043 211.589 77.6043C209.208 77.6043 207.272 75.6738 207.272 73.2923ZM207.272 90.5356C207.272 88.1541 209.208 86.2235 211.589 86.2235C213.971 86.2235 215.906 88.1541 215.906 90.5356C215.906 92.917 213.971 94.8476 211.589 94.8476C209.208 94.8476 207.272 92.917 207.272 90.5356ZM207.272 142.268C207.272 139.888 209.209 137.958 211.589 137.958C213.969 137.958 215.906 139.888 215.906 142.268C215.906 144.648 213.969 146.577 211.589 146.577C209.209 146.577 207.272 144.648 207.272 142.268ZM224.544 125.025C224.544 122.644 226.481 120.715 228.861 120.715C231.241 120.715 233.178 122.644 233.178 125.025C233.178 127.405 231.241 129.334 228.861 129.334C226.481 129.334 224.544 127.405 224.544 125.025ZM224.544 142.268C224.544 139.888 226.481 137.958 228.861 137.958C231.241 137.958 233.178 139.888 233.178 142.268C233.178 144.648 231.241 146.577 228.861 146.577C226.481 146.577 224.544 144.648 224.544 142.268ZM189.995 159.513C189.995 157.132 191.933 155.201 194.315 155.201C196.696 155.201 198.634 157.132 198.634 159.513C198.634 161.895 196.696 163.825 194.315 163.825C191.933 163.825 189.995 161.895 189.995 159.513ZM155.451 211.243C155.451 208.862 157.389 206.931 159.77 206.931C162.152 206.931 164.09 208.862 164.09 211.243C164.09 213.625 162.152 215.555 159.77 215.555C157.389 215.555 155.451 213.625 155.451 211.243ZM172.723 4.30967C172.723 1.9295 174.662 0 177.042 0C179.423 0 181.362 1.9295 181.362 4.30967C181.362 6.68983 179.423 8.61933 177.042 8.61933C174.662 8.61933 172.723 6.68983 172.723 4.30967ZM172.723 21.5529C172.723 19.1728 174.662 17.2432 177.042 17.2432C179.423 17.2432 181.362 19.1728 181.362 21.5529C181.362 23.9331 179.423 25.8626 177.042 25.8626C174.662 25.8626 172.723 23.9331 172.723 21.5529ZM189.995 4.30967C189.995 1.9295 191.934 0 194.315 0C196.695 0 198.634 1.9295 198.634 4.30967C198.634 6.68983 196.695 8.61933 194.315 8.61933C191.934 8.61933 189.995 6.68983 189.995 4.30967ZM189.995 21.5529C189.995 19.1728 191.934 17.2432 194.315 17.2432C196.695 17.2432 198.634 19.1728 198.634 21.5529C198.634 23.9331 196.695 25.8626 194.315 25.8626C191.934 25.8626 189.995 23.9331 189.995 21.5529ZM207.272 21.5529C207.272 19.1728 209.209 17.2432 211.589 17.2432C213.969 17.2432 215.906 19.1728 215.906 21.5529C215.906 23.9331 213.969 25.8626 211.589 25.8626C209.209 25.8626 207.272 23.9331 207.272 21.5529ZM224.544 21.5529C224.544 19.1728 226.481 17.2432 228.861 17.2432C231.241 17.2432 233.178 19.1728 233.178 21.5529C233.178 23.9331 231.241 25.8626 228.861 25.8626C226.481 25.8626 224.544 23.9331 224.544 21.5529ZM224.544 38.7985C224.544 36.4171 226.48 34.4865 228.861 34.4865C231.243 34.4865 233.178 36.4171 233.178 38.7985C233.178 41.18 231.243 43.1106 228.861 43.1106C226.48 43.1106 224.544 41.18 224.544 38.7985ZM241.816 21.5529C241.816 19.1728 243.753 17.2432 246.133 17.2432C248.513 17.2432 250.45 19.1728 250.45 21.5529C250.45 23.9331 248.513 25.8626 246.133 25.8626C243.753 25.8626 241.816 23.9331 241.816 21.5529ZM259.088 21.5529C259.088 19.1728 261.027 17.2432 263.408 17.2432C265.788 17.2432 267.727 19.1728 267.727 21.5529C267.727 23.9331 265.788 25.8626 263.408 25.8626C261.027 25.8626 259.088 23.9331 259.088 21.5529ZM276.361 21.5529C276.361 19.1728 278.3 17.2432 280.68 17.2432C283.06 17.2432 284.999 19.1728 284.999 21.5529C284.999 23.9331 283.06 25.8626 280.68 25.8626C278.3 25.8626 276.361 23.9331 276.361 21.5529ZM293.633 21.5529C293.633 19.1728 295.572 17.2432 297.952 17.2432C300.332 17.2432 302.271 19.1728 302.271 21.5529C302.271 23.9331 300.332 25.8626 297.952 25.8626C295.572 25.8626 293.633 23.9331 293.633 21.5529ZM310.905 21.5529C310.905 19.1728 312.844 17.2432 315.224 17.2432C317.604 17.2432 319.543 19.1728 319.543 21.5529C319.543 23.9331 317.604 25.8626 315.224 25.8626C312.844 25.8626 310.905 23.9331 310.905 21.5529ZM388.637 21.5529C388.637 19.1728 390.574 17.2432 392.954 17.2432C395.334 17.2432 397.271 19.1728 397.271 21.5529C397.271 23.9331 395.334 25.8626 392.954 25.8626C390.574 25.8626 388.637 23.9331 388.637 21.5529ZM405.909 21.5529C405.909 19.1728 407.846 17.2432 410.226 17.2432C412.606 17.2432 414.543 19.1728 414.543 21.5529C414.543 23.9331 412.606 25.8626 410.226 25.8626C407.846 25.8626 405.909 23.9331 405.909 21.5529ZM241.821 38.7985C241.821 36.4171 243.757 34.4865 246.138 34.4865C248.52 34.4865 250.455 36.4171 250.455 38.7985C250.455 41.18 248.52 43.1106 246.138 43.1106C243.757 43.1106 241.821 41.18 241.821 38.7985ZM259.093 38.7985C259.093 36.4171 261.031 34.4865 263.413 34.4865C265.794 34.4865 267.732 36.4171 267.732 38.7985C267.732 41.18 265.794 43.1106 263.413 43.1106C261.031 43.1106 259.093 41.18 259.093 38.7985ZM276.365 38.7985C276.365 36.4171 278.303 34.4865 280.685 34.4865C283.066 34.4865 285.004 36.4171 285.004 38.7985C285.004 41.18 283.066 43.1106 280.685 43.1106C278.303 43.1106 276.365 41.18 276.365 38.7985ZM293.637 38.7985C293.637 36.4171 295.575 34.4865 297.957 34.4865C300.338 34.4865 302.276 36.4171 302.276 38.7985C302.276 41.18 300.338 43.1106 297.957 43.1106C295.575 43.1106 293.637 41.18 293.637 38.7985ZM241.821 56.0418C241.821 53.6603 243.757 51.7298 246.138 51.7298C248.52 51.7298 250.455 53.6603 250.455 56.0418C250.455 58.4233 248.52 60.3538 246.138 60.3538C243.757 60.3538 241.821 58.4233 241.821 56.0418ZM259.093 56.0418C259.093 53.6603 261.031 51.7298 263.413 51.7298C265.794 51.7298 267.732 53.6603 267.732 56.0418C267.732 58.4233 265.794 60.3538 263.413 60.3538C261.031 60.3538 259.093 58.4233 259.093 56.0418ZM241.821 73.2851C241.821 70.9036 243.757 68.973 246.138 68.973C248.52 68.973 250.455 70.9036 250.455 73.2851C250.455 75.6665 248.52 77.5971 246.138 77.5971C243.757 77.5971 241.821 75.6665 241.821 73.2851ZM259.093 73.2851C259.093 70.9036 261.031 68.973 263.413 68.973C265.794 68.973 267.732 70.9036 267.732 73.2851C267.732 75.6665 265.794 77.5971 263.413 77.5971C261.031 77.5971 259.093 75.6665 259.093 73.2851ZM259.093 90.5283C259.093 88.1468 261.031 86.2163 263.413 86.2163C265.794 86.2163 267.732 88.1468 267.732 90.5283C267.732 92.9098 265.794 94.8403 263.413 94.8403C261.031 94.8403 259.093 92.9098 259.093 90.5283ZM276.365 56.0418C276.365 53.6603 278.303 51.7298 280.685 51.7298C283.066 51.7298 285.004 53.6603 285.004 56.0418C285.004 58.4233 283.066 60.3538 280.685 60.3538C278.303 60.3538 276.365 58.4233 276.365 56.0418ZM293.637 56.0418C293.637 53.6603 295.575 51.7298 297.957 51.7298C300.338 51.7298 302.276 53.6603 302.276 56.0418C302.276 58.4233 300.338 60.3538 297.957 60.3538C295.575 60.3538 293.637 58.4233 293.637 56.0418ZM310.91 38.7985C310.91 36.4171 312.847 34.4865 315.229 34.4865C317.61 34.4865 319.548 36.4171 319.548 38.7985C319.548 41.18 317.61 43.1106 315.229 43.1106C312.847 43.1106 310.91 41.18 310.91 38.7985ZM336.821 125.019C336.821 122.638 338.76 120.709 341.14 120.709C343.52 120.709 345.459 122.638 345.459 125.019C345.459 127.399 343.52 129.328 341.14 129.328C338.76 129.328 336.821 127.399 336.821 125.019ZM336.821 193.995C336.821 191.614 338.758 189.683 341.14 189.683C343.521 189.683 345.459 191.614 345.459 193.995C345.459 196.377 343.521 198.307 341.14 198.307C338.758 198.307 336.821 196.377 336.821 193.995ZM336.821 211.238C336.821 208.857 338.758 206.926 341.14 206.926C343.521 206.926 345.459 208.857 345.459 211.238C345.459 213.62 343.521 215.55 341.14 215.55C338.758 215.55 336.821 213.62 336.821 211.238ZM336.821 228.484C336.821 226.104 338.76 224.174 341.14 224.174C343.52 224.174 345.459 226.104 345.459 228.484C345.459 230.864 343.52 232.794 341.14 232.794C338.76 232.794 336.821 230.864 336.821 228.484ZM354.093 193.995C354.093 191.614 356.031 189.683 358.412 189.683C360.793 189.683 362.731 191.614 362.731 193.995C362.731 196.377 360.793 198.307 358.412 198.307C356.031 198.307 354.093 196.377 354.093 193.995ZM354.093 211.238C354.093 208.857 356.031 206.926 358.412 206.926C360.793 206.926 362.731 208.857 362.731 211.238C362.731 213.62 360.793 215.55 358.412 215.55C356.031 215.55 354.093 213.62 354.093 211.238ZM354.093 228.484C354.093 226.104 356.032 224.174 358.412 224.174C360.792 224.174 362.731 226.104 362.731 228.484C362.731 230.864 360.792 232.794 358.412 232.794C356.032 232.794 354.093 230.864 354.093 228.484ZM371.365 193.995C371.365 191.614 373.303 189.683 375.684 189.683C378.066 189.683 380.003 191.614 380.003 193.995C380.003 196.377 378.066 198.307 375.684 198.307C373.303 198.307 371.365 196.377 371.365 193.995ZM371.365 211.238C371.365 208.857 373.303 206.926 375.684 206.926C378.066 206.926 380.003 208.857 380.003 211.238C380.003 213.62 378.066 215.55 375.684 215.55C373.303 215.55 371.365 213.62 371.365 211.238ZM371.365 228.484C371.365 226.104 373.304 224.174 375.684 224.174C378.064 224.174 380.003 226.104 380.003 228.484C380.003 230.864 378.064 232.794 375.684 232.794C373.304 232.794 371.365 230.864 371.365 228.484ZM388.642 193.995C388.642 191.614 390.577 189.683 392.959 189.683C395.34 189.683 397.275 191.614 397.275 193.995C397.275 196.377 395.34 198.307 392.959 198.307C390.577 198.307 388.642 196.377 388.642 193.995ZM354.093 176.752C354.093 174.37 356.031 172.44 358.412 172.44C360.793 172.44 362.731 174.37 362.731 176.752C362.731 179.133 360.793 181.064 358.412 181.064C356.031 181.064 354.093 179.133 354.093 176.752ZM371.365 176.752C371.365 174.37 373.303 172.44 375.684 172.44C378.066 172.44 380.003 174.37 380.003 176.752C380.003 179.133 378.066 181.064 375.684 181.064C373.303 181.064 371.365 179.133 371.365 176.752ZM371.365 142.263C371.365 139.883 373.304 137.953 375.684 137.953C378.064 137.953 380.003 139.883 380.003 142.263C380.003 144.643 378.064 146.573 375.684 146.573C373.304 146.573 371.365 144.643 371.365 142.263ZM371.365 125.02C371.365 122.64 373.304 120.71 375.684 120.71C378.064 120.71 380.003 122.64 380.003 125.02C380.003 127.4 378.064 129.329 375.684 129.329C373.304 129.329 371.365 127.4 371.365 125.02ZM388.642 176.752C388.642 174.37 390.577 172.44 392.959 172.44C395.34 172.44 397.275 174.37 397.275 176.752C397.275 179.133 395.34 181.064 392.959 181.064C390.577 181.064 388.642 179.133 388.642 176.752ZM388.642 211.238C388.642 208.857 390.577 206.926 392.959 206.926C395.34 206.926 397.275 208.857 397.275 211.238C397.275 213.62 395.34 215.55 392.959 215.55C390.577 215.55 388.642 213.62 388.642 211.238ZM388.642 228.484C388.642 226.104 390.578 224.174 392.959 224.174C395.339 224.174 397.275 226.104 397.275 228.484C397.275 230.864 395.339 232.794 392.959 232.794C390.578 232.794 388.642 230.864 388.642 228.484ZM388.642 262.971C388.642 260.59 390.578 258.661 392.959 258.661C395.339 258.661 397.275 260.59 397.275 262.971C397.275 265.351 395.339 267.28 392.959 267.28C390.578 267.28 388.642 265.351 388.642 262.971ZM388.642 245.727C388.642 243.347 390.578 241.418 392.959 241.418C395.339 241.418 397.275 243.347 397.275 245.727C397.275 248.108 395.339 250.037 392.959 250.037C390.578 250.037 388.642 248.108 388.642 245.727ZM388.642 280.216C388.642 277.835 390.577 275.904 392.959 275.904C395.34 275.904 397.275 277.835 397.275 280.216C397.275 282.598 395.34 284.528 392.959 284.528C390.577 284.528 388.642 282.598 388.642 280.216ZM405.914 193.994C405.914 191.612 407.849 189.682 410.231 189.682C412.612 189.682 414.548 191.612 414.548 193.994C414.548 196.375 412.612 198.306 410.231 198.306C407.849 198.306 405.914 196.375 405.914 193.994ZM405.914 176.751C405.914 174.369 407.849 172.439 410.231 172.439C412.612 172.439 414.548 174.369 414.548 176.751C414.548 179.132 412.612 181.063 410.231 181.063C407.849 181.063 405.914 179.132 405.914 176.751ZM405.914 211.237C405.914 208.856 407.849 206.925 410.231 206.925C412.612 206.925 414.548 208.856 414.548 211.237C414.548 213.619 412.612 215.549 410.231 215.549C407.849 215.549 405.914 213.619 405.914 211.237ZM405.914 228.483C405.914 226.103 407.851 224.173 410.231 224.173C412.611 224.173 414.548 226.103 414.548 228.483C414.548 230.863 412.611 232.793 410.231 232.793C407.851 232.793 405.914 230.863 405.914 228.483ZM405.914 262.969C405.914 260.589 407.85 258.66 410.231 258.66C412.611 258.66 414.548 260.589 414.548 262.969C414.548 265.35 412.611 267.279 410.231 267.279C407.85 267.279 405.914 265.35 405.914 262.969ZM405.914 245.726C405.914 243.346 407.851 241.417 410.231 241.417C412.611 241.417 414.548 243.346 414.548 245.726C414.548 248.106 412.611 250.036 410.231 250.036C407.851 250.036 405.914 248.106 405.914 245.726ZM405.914 280.215C405.914 277.834 407.849 275.903 410.231 275.903C412.612 275.903 414.548 277.834 414.548 280.215C414.548 282.596 412.612 284.527 410.231 284.527C407.849 284.527 405.914 282.596 405.914 280.215ZM423.186 193.993C423.186 191.611 425.121 189.681 427.503 189.681C429.884 189.681 431.82 191.611 431.82 193.993C431.82 196.374 429.884 198.305 427.503 198.305C425.121 198.305 423.186 196.374 423.186 193.993ZM423.186 211.236C423.186 208.855 425.121 206.924 427.503 206.924C429.884 206.924 431.82 208.855 431.82 211.236C431.82 213.617 429.884 215.548 427.503 215.548C425.121 215.548 423.186 213.617 423.186 211.236ZM423.186 228.482C423.186 226.102 425.123 224.172 427.503 224.172C429.883 224.172 431.82 226.102 431.82 228.482C431.82 230.862 429.883 232.791 427.503 232.791C425.123 232.791 423.186 230.862 423.186 228.482ZM423.186 262.968C423.186 260.588 425.123 258.659 427.503 258.659C429.883 258.659 431.82 260.588 431.82 262.968C431.82 265.348 429.883 267.278 427.503 267.278C425.123 267.278 423.186 265.348 423.186 262.968ZM423.186 245.725C423.186 243.345 425.123 241.415 427.503 241.415C429.883 241.415 431.82 243.345 431.82 245.725C431.82 248.105 429.883 250.035 427.503 250.035C425.123 250.035 423.186 248.105 423.186 245.725ZM440.458 228.482C440.458 226.102 442.397 224.172 444.777 224.172C447.157 224.172 449.096 226.102 449.096 228.482C449.096 230.862 447.157 232.791 444.777 232.791C442.397 232.791 440.458 230.862 440.458 228.482ZM457.73 228.482C457.73 226.102 459.669 224.172 462.049 224.172C464.429 224.172 466.368 226.102 466.368 228.482C466.368 230.862 464.429 232.791 462.049 232.791C459.669 232.791 457.73 230.862 457.73 228.482ZM440.458 262.968C440.458 260.588 442.397 258.659 444.777 258.659C447.157 258.659 449.096 260.588 449.096 262.968C449.096 265.348 447.157 267.278 444.777 267.278C442.397 267.278 440.458 265.348 440.458 262.968ZM440.458 245.725C440.458 243.345 442.397 241.415 444.777 241.415C447.157 241.415 449.096 243.345 449.096 245.725C449.096 248.105 447.157 250.035 444.777 250.035C442.397 250.035 440.458 248.105 440.458 245.725ZM423.186 280.214C423.186 277.832 425.121 275.902 427.503 275.902C429.884 275.902 431.82 277.832 431.82 280.214C431.82 282.595 429.884 284.526 427.503 284.526C425.121 284.526 423.186 282.595 423.186 280.214ZM457.73 297.457C457.73 295.076 459.668 293.145 462.049 293.145C464.431 293.145 466.368 295.076 466.368 297.457C466.368 299.839 464.431 301.769 462.049 301.769C459.668 301.769 457.73 299.839 457.73 297.457ZM457.73 314.7C457.73 312.319 459.668 310.388 462.049 310.388C464.431 310.388 466.368 312.319 466.368 314.7C466.368 317.082 464.431 319.012 462.049 319.012C459.668 319.012 457.73 317.082 457.73 314.7ZM405.914 297.457C405.914 295.076 407.849 293.145 410.231 293.145C412.612 293.145 414.548 295.076 414.548 297.457C414.548 299.839 412.612 301.769 410.231 301.769C407.849 301.769 405.914 299.839 405.914 297.457ZM405.914 314.7C405.914 312.319 407.849 310.388 410.231 310.388C412.612 310.388 414.548 312.319 414.548 314.7C414.548 317.082 412.612 319.012 410.231 319.012C407.849 319.012 405.914 317.082 405.914 314.7ZM388.642 73.2826C388.642 70.9012 390.577 68.9706 392.959 68.9706C395.34 68.9706 397.275 70.9012 397.275 73.2826C397.275 75.6641 395.34 77.5947 392.959 77.5947C390.577 77.5947 388.642 75.6641 388.642 73.2826ZM388.642 90.5259C388.642 88.1444 390.577 86.2139 392.959 86.2139C395.34 86.2139 397.275 88.1444 397.275 90.5259C397.275 92.9074 395.34 94.8379 392.959 94.8379C390.577 94.8379 388.642 92.9074 388.642 90.5259ZM388.642 125.015C388.642 122.635 390.578 120.705 392.959 120.705C395.339 120.705 397.275 122.635 397.275 125.015C397.275 127.395 395.339 129.325 392.959 129.325C390.578 129.325 388.642 127.395 388.642 125.015ZM388.642 107.772C388.642 105.391 390.578 103.462 392.959 103.462C395.339 103.462 397.275 105.391 397.275 107.772C397.275 110.152 395.339 112.081 392.959 112.081C390.578 112.081 388.642 110.152 388.642 107.772ZM388.642 142.258C388.642 139.878 390.578 137.949 392.959 137.949C395.339 137.949 397.275 139.878 397.275 142.258C397.275 144.638 395.339 146.568 392.959 146.568C390.578 146.568 388.642 144.638 388.642 142.258ZM405.914 73.2814C405.914 70.9 407.849 68.9694 410.231 68.9694C412.612 68.9694 414.548 70.9 414.548 73.2814C414.548 75.6629 412.612 77.5935 410.231 77.5935C407.849 77.5935 405.914 75.6629 405.914 73.2814ZM405.914 90.5247C405.914 88.1432 407.849 86.2127 410.231 86.2127C412.612 86.2127 414.548 88.1432 414.548 90.5247C414.548 92.9062 412.612 94.8367 410.231 94.8367C407.849 94.8367 405.914 92.9062 405.914 90.5247ZM405.914 125.014C405.914 122.634 407.85 120.704 410.231 120.704C412.611 120.704 414.548 122.634 414.548 125.014C414.548 127.394 412.611 129.323 410.231 129.323C407.85 129.323 405.914 127.394 405.914 125.014ZM405.914 107.77C405.914 105.39 407.851 103.461 410.231 103.461C412.611 103.461 414.548 105.39 414.548 107.77C414.548 110.151 412.611 112.08 410.231 112.08C407.851 112.08 405.914 110.151 405.914 107.77ZM423.186 73.2814C423.186 70.9 425.121 68.9694 427.503 68.9694C429.884 68.9694 431.82 70.9 431.82 73.2814C431.82 75.6629 429.884 77.5935 427.503 77.5935C425.121 77.5935 423.186 75.6629 423.186 73.2814ZM423.186 90.5247C423.186 88.1432 425.121 86.2127 427.503 86.2127C429.884 86.2127 431.82 88.1432 431.82 90.5247C431.82 92.9062 429.884 94.8367 427.503 94.8367C425.121 94.8367 423.186 92.9062 423.186 90.5247ZM423.186 125.014C423.186 122.634 425.123 120.704 427.503 120.704C429.883 120.704 431.82 122.634 431.82 125.014C431.82 127.394 429.883 129.323 427.503 129.323C425.123 129.323 423.186 127.394 423.186 125.014ZM423.186 107.77C423.186 105.39 425.123 103.461 427.503 103.461C429.883 103.461 431.82 105.39 431.82 107.77C431.82 110.151 429.883 112.08 427.503 112.08C425.123 112.08 423.186 110.151 423.186 107.77ZM440.458 73.2814C440.458 70.9 442.396 68.9694 444.777 68.9694C447.159 68.9694 449.096 70.9 449.096 73.2814C449.096 75.6629 447.159 77.5935 444.777 77.5935C442.396 77.5935 440.458 75.6629 440.458 73.2814ZM440.458 90.5247C440.458 88.1432 442.396 86.2127 444.777 86.2127C447.159 86.2127 449.096 88.1432 449.096 90.5247C449.096 92.9062 447.159 94.8367 444.777 94.8367C442.396 94.8367 440.458 92.9062 440.458 90.5247ZM440.458 125.014C440.458 122.634 442.397 120.704 444.777 120.704C447.157 120.704 449.096 122.634 449.096 125.014C449.096 127.394 447.157 129.323 444.777 129.323C442.397 129.323 440.458 127.394 440.458 125.014ZM457.73 142.257C457.73 139.877 459.669 137.947 462.049 137.947C464.429 137.947 466.368 139.877 466.368 142.257C466.368 144.637 464.429 146.567 462.049 146.567C459.669 146.567 457.73 144.637 457.73 142.257ZM440.458 107.77C440.458 105.39 442.397 103.461 444.777 103.461C447.157 103.461 449.096 105.39 449.096 107.77C449.096 110.151 447.157 112.08 444.777 112.08C442.397 112.08 440.458 110.151 440.458 107.77ZM457.73 73.2814C457.73 70.9 459.668 68.9694 462.049 68.9694C464.431 68.9694 466.368 70.9 466.368 73.2814C466.368 75.6629 464.431 77.5935 462.049 77.5935C459.668 77.5935 457.73 75.6629 457.73 73.2814ZM457.73 90.5247C457.73 88.1432 459.668 86.2127 462.049 86.2127C464.431 86.2127 466.368 88.1432 466.368 90.5247C466.368 92.9062 464.431 94.8367 462.049 94.8367C459.668 94.8367 457.73 92.9062 457.73 90.5247ZM457.73 125.014C457.73 122.634 459.669 120.704 462.049 120.704C464.429 120.704 466.368 122.634 466.368 125.014C466.368 127.394 464.429 129.323 462.049 129.323C459.669 129.323 457.73 127.394 457.73 125.014ZM457.73 107.77C457.73 105.39 459.669 103.461 462.049 103.461C464.429 103.461 466.368 105.39 466.368 107.77C466.368 110.151 464.429 112.08 462.049 112.08C459.669 112.08 457.73 110.151 457.73 107.77ZM475.002 73.2814C475.002 70.9 476.94 68.9694 479.321 68.9694C481.703 68.9694 483.641 70.9 483.641 73.2814C483.641 75.6629 481.703 77.5935 479.321 77.5935C476.94 77.5935 475.002 75.6629 475.002 73.2814ZM475.002 90.5247C475.002 88.1432 476.94 86.2127 479.321 86.2127C481.703 86.2127 483.641 88.1432 483.641 90.5247C483.641 92.9062 481.703 94.8367 479.321 94.8367C476.94 94.8367 475.002 92.9062 475.002 90.5247ZM475.002 125.014C475.002 122.634 476.941 120.704 479.321 120.704C481.702 120.704 483.641 122.634 483.641 125.014C483.641 127.394 481.702 129.323 479.321 129.323C476.941 129.323 475.002 127.394 475.002 125.014ZM475.002 107.77C475.002 105.39 476.941 103.461 479.321 103.461C481.702 103.461 483.641 105.39 483.641 107.77C483.641 110.151 481.702 112.08 479.321 112.08C476.941 112.08 475.002 110.151 475.002 107.77ZM492.274 73.2814C492.274 70.9 494.212 68.9694 496.593 68.9694C498.975 68.9694 500.913 70.9 500.913 73.2814C500.913 75.6629 498.975 77.5935 496.593 77.5935C494.212 77.5935 492.274 75.6629 492.274 73.2814ZM492.274 90.5247C492.274 88.1432 494.212 86.2127 496.593 86.2127C498.975 86.2127 500.913 88.1432 500.913 90.5247C500.913 92.9062 498.975 94.8367 496.593 94.8367C494.212 94.8367 492.274 92.9062 492.274 90.5247ZM492.274 125.014C492.274 122.634 494.213 120.704 496.593 120.704C498.974 120.704 500.913 122.634 500.913 125.014C500.913 127.394 498.974 129.323 496.593 129.323C494.213 129.323 492.274 127.394 492.274 125.014ZM492.274 107.77C492.274 105.39 494.213 103.461 496.593 103.461C498.974 103.461 500.913 105.39 500.913 107.77C500.913 110.151 498.974 112.08 496.593 112.08C494.213 112.08 492.274 110.151 492.274 107.77ZM509.551 73.2814C509.551 70.9 511.487 68.9694 513.868 68.9694C516.249 68.9694 518.185 70.9 518.185 73.2814C518.185 75.6629 516.249 77.5935 513.868 77.5935C511.487 77.5935 509.551 75.6629 509.551 73.2814ZM509.551 90.5247C509.551 88.1432 511.487 86.2127 513.868 86.2127C516.249 86.2127 518.185 88.1432 518.185 90.5247C518.185 92.9062 516.249 94.8367 513.868 94.8367C511.487 94.8367 509.551 92.9062 509.551 90.5247ZM509.551 125.014C509.551 122.634 511.488 120.704 513.868 120.704C516.248 120.704 518.185 122.634 518.185 125.014C518.185 127.394 516.248 129.323 513.868 129.323C511.488 129.323 509.551 127.394 509.551 125.014ZM509.551 107.77C509.551 105.39 511.488 103.461 513.868 103.461C516.248 103.461 518.185 105.39 518.185 107.77C518.185 110.151 516.248 112.08 513.868 112.08C511.488 112.08 509.551 110.151 509.551 107.77ZM526.823 73.2814C526.823 70.9 528.759 68.9694 531.14 68.9694C533.522 68.9694 535.457 70.9 535.457 73.2814C535.457 75.6629 533.522 77.5935 531.14 77.5935C528.759 77.5935 526.823 75.6629 526.823 73.2814ZM526.823 90.5247C526.823 88.1432 528.759 86.2127 531.14 86.2127C533.522 86.2127 535.457 88.1432 535.457 90.5247C535.457 92.9062 533.522 94.8367 531.14 94.8367C528.759 94.8367 526.823 92.9062 526.823 90.5247ZM526.823 125.014C526.823 122.634 528.76 120.704 531.14 120.704C533.52 120.704 535.457 122.634 535.457 125.014C535.457 127.394 533.52 129.323 531.14 129.323C528.76 129.323 526.823 127.394 526.823 125.014ZM526.823 107.77C526.823 105.39 528.76 103.461 531.14 103.461C533.52 103.461 535.457 105.39 535.457 107.77C535.457 110.151 533.52 112.08 531.14 112.08C528.76 112.08 526.823 110.151 526.823 107.77ZM544.095 73.2814C544.095 70.9 546.031 68.9694 548.412 68.9694C550.794 68.9694 552.729 70.9 552.729 73.2814C552.729 75.6629 550.794 77.5935 548.412 77.5935C546.031 77.5935 544.095 75.6629 544.095 73.2814ZM544.095 90.5247C544.095 88.1432 546.031 86.2127 548.412 86.2127C550.794 86.2127 552.729 88.1432 552.729 90.5247C552.729 92.9062 550.794 94.8367 548.412 94.8367C546.031 94.8367 544.095 92.9062 544.095 90.5247ZM544.095 125.014C544.095 122.634 546.032 120.704 548.412 120.704C550.792 120.704 552.729 122.634 552.729 125.014C552.729 127.394 550.792 129.323 548.412 129.323C546.032 129.323 544.095 127.394 544.095 125.014ZM544.095 107.77C544.095 105.39 546.032 103.461 548.412 103.461C550.792 103.461 552.729 105.39 552.729 107.77C552.729 110.151 550.792 112.08 548.412 112.08C546.032 112.08 544.095 110.151 544.095 107.77ZM561.367 73.2814C561.367 70.9 563.305 68.9694 565.687 68.9694C568.068 68.9694 570.006 70.9 570.006 73.2814C570.006 75.6629 568.068 77.5935 565.687 77.5935C563.305 77.5935 561.367 75.6629 561.367 73.2814ZM561.367 90.5247C561.367 88.1432 563.305 86.2127 565.687 86.2127C568.068 86.2127 570.006 88.1432 570.006 90.5247C570.006 92.9062 568.068 94.8367 565.687 94.8367C563.305 94.8367 561.367 92.9062 561.367 90.5247ZM561.367 125.014C561.367 122.634 563.306 120.704 565.687 120.704C568.067 120.704 570.006 122.634 570.006 125.014C570.006 127.394 568.067 129.323 565.687 129.323C563.306 129.323 561.367 127.394 561.367 125.014ZM561.367 107.77C561.367 105.39 563.306 103.461 565.687 103.461C568.067 103.461 570.006 105.39 570.006 107.77C570.006 110.151 568.067 112.08 565.687 112.08C563.306 112.08 561.367 110.151 561.367 107.77ZM578.639 73.2814C578.639 70.9 580.577 68.9694 582.959 68.9694C585.34 68.9694 587.278 70.9 587.278 73.2814C587.278 75.6629 585.34 77.5935 582.959 77.5935C580.577 77.5935 578.639 75.6629 578.639 73.2814ZM578.639 90.5247C578.639 88.1432 580.577 86.2127 582.959 86.2127C585.34 86.2127 587.278 88.1432 587.278 90.5247C587.278 92.9062 585.34 94.8367 582.959 94.8367C580.577 94.8367 578.639 92.9062 578.639 90.5247ZM578.639 125.014C578.639 122.634 580.578 120.704 582.959 120.704C585.339 120.704 587.278 122.634 587.278 125.014C587.278 127.394 585.339 129.323 582.959 129.323C580.578 129.323 578.639 127.394 578.639 125.014ZM578.639 107.77C578.639 105.39 580.578 103.461 582.959 103.461C585.339 103.461 587.278 105.39 587.278 107.77C587.278 110.151 585.339 112.08 582.959 112.08C580.578 112.08 578.639 110.151 578.639 107.77ZM595.911 73.2814C595.911 70.9 597.849 68.9694 600.231 68.9694C602.612 68.9694 604.55 70.9 604.55 73.2814C604.55 75.6629 602.612 77.5935 600.231 77.5935C597.849 77.5935 595.911 75.6629 595.911 73.2814ZM595.911 90.5247C595.911 88.1432 597.849 86.2127 600.231 86.2127C602.612 86.2127 604.55 88.1432 604.55 90.5247C604.55 92.9062 602.612 94.8367 600.231 94.8367C597.849 94.8367 595.911 92.9062 595.911 90.5247ZM595.911 125.014C595.911 122.634 597.851 120.704 600.231 120.704C602.611 120.704 604.55 122.634 604.55 125.014C604.55 127.394 602.611 129.323 600.231 129.323C597.851 129.323 595.911 127.394 595.911 125.014ZM440.457 176.746C440.457 174.364 442.395 172.434 444.776 172.434C447.157 172.434 449.095 174.364 449.095 176.746C449.095 179.127 447.157 181.058 444.776 181.058C442.395 181.058 440.457 179.127 440.457 176.746ZM457.729 176.746C457.729 174.364 459.667 172.434 462.048 172.434C464.43 172.434 466.367 174.364 466.367 176.746C466.367 179.127 464.43 181.058 462.048 181.058C459.667 181.058 457.729 179.127 457.729 176.746ZM475.001 176.746C475.001 174.364 476.939 172.434 479.32 172.434C481.702 172.434 483.639 174.364 483.639 176.746C483.639 179.127 481.702 181.058 479.32 181.058C476.939 181.058 475.001 179.127 475.001 176.746ZM492.273 176.746C492.273 174.364 494.211 172.434 496.592 172.434C498.974 172.434 500.911 174.364 500.911 176.746C500.911 179.127 498.974 181.058 496.592 181.058C494.211 181.058 492.273 179.127 492.273 176.746ZM509.55 176.746C509.55 174.364 511.485 172.434 513.867 172.434C516.248 172.434 518.184 174.364 518.184 176.746C518.184 179.127 516.248 181.058 513.867 181.058C511.485 181.058 509.55 179.127 509.55 176.746ZM526.822 176.746C526.822 174.364 528.757 172.434 531.139 172.434C533.52 172.434 535.456 174.364 535.456 176.746C535.456 179.127 533.52 181.058 531.139 181.058C528.757 181.058 526.822 179.127 526.822 176.746ZM544.094 176.746C544.094 174.364 546.029 172.434 548.411 172.434C550.792 172.434 552.728 174.364 552.728 176.746C552.728 179.127 550.792 181.058 548.411 181.058C546.029 181.058 544.094 179.127 544.094 176.746ZM561.366 176.746C561.366 174.364 563.304 172.434 565.685 172.434C568.067 172.434 570.005 174.364 570.005 176.746C570.005 179.127 568.067 181.058 565.685 181.058C563.304 181.058 561.366 179.127 561.366 176.746ZM578.638 176.746C578.638 174.364 580.576 172.434 582.957 172.434C585.339 172.434 587.277 174.364 587.277 176.746C587.277 179.127 585.339 181.058 582.957 181.058C580.576 181.058 578.638 179.127 578.638 176.746ZM595.91 176.746C595.91 174.364 597.848 172.434 600.23 172.434C602.611 172.434 604.549 174.364 604.549 176.746C604.549 179.127 602.611 181.058 600.23 181.058C597.848 181.058 595.91 179.127 595.91 176.746ZM457.722 193.989C457.722 191.608 459.659 189.677 462.041 189.677C464.422 189.677 466.36 191.608 466.36 193.989C466.36 196.371 464.422 198.301 462.041 198.301C459.659 198.301 457.722 196.371 457.722 193.989ZM474.994 193.989C474.994 191.608 476.931 189.677 479.313 189.677C481.694 189.677 483.632 191.608 483.632 193.989C483.632 196.371 481.694 198.301 479.313 198.301C476.931 198.301 474.994 196.371 474.994 193.989ZM492.266 193.989C492.266 191.608 494.203 189.677 496.585 189.677C498.966 189.677 500.904 191.608 500.904 193.989C500.904 196.371 498.966 198.301 496.585 198.301C494.203 198.301 492.266 196.371 492.266 193.989ZM509.543 193.989C509.543 191.608 511.478 189.677 513.859 189.677C516.241 189.677 518.176 191.608 518.176 193.989C518.176 196.371 516.241 198.301 513.859 198.301C511.478 198.301 509.543 196.371 509.543 193.989ZM526.815 193.989C526.815 191.608 528.75 189.677 531.132 189.677C533.513 189.677 535.448 191.608 535.448 193.989C535.448 196.371 533.513 198.301 531.132 198.301C528.75 198.301 526.815 196.371 526.815 193.989ZM526.815 211.232C526.815 208.851 528.75 206.92 531.132 206.92C533.513 206.92 535.448 208.851 535.448 211.232C535.448 213.614 533.513 215.544 531.132 215.544C528.75 215.544 526.815 213.614 526.815 211.232ZM526.815 228.478C526.815 226.098 528.751 224.168 531.132 224.168C533.512 224.168 535.448 226.098 535.448 228.478C535.448 230.858 533.512 232.788 531.132 232.788C528.751 232.788 526.815 230.858 526.815 228.478ZM544.087 193.989C544.087 191.608 546.022 189.677 548.404 189.677C550.785 189.677 552.721 191.608 552.721 193.989C552.721 196.371 550.785 198.301 548.404 198.301C546.022 198.301 544.087 196.371 544.087 193.989ZM561.359 193.989C561.359 191.608 563.297 189.677 565.678 189.677C568.06 189.677 569.997 191.608 569.997 193.989C569.997 196.371 568.06 198.301 565.678 198.301C563.297 198.301 561.359 196.371 561.359 193.989ZM578.631 193.989C578.631 191.608 580.569 189.677 582.95 189.677C585.332 189.677 587.269 191.608 587.269 193.989C587.269 196.371 585.332 198.301 582.95 198.301C580.569 198.301 578.631 196.371 578.631 193.989ZM561.359 211.232C561.359 208.851 563.297 206.92 565.678 206.92C568.06 206.92 569.997 208.851 569.997 211.232C569.997 213.614 568.06 215.544 565.678 215.544C563.297 215.544 561.359 213.614 561.359 211.232ZM578.631 211.232C578.631 208.851 580.569 206.92 582.95 206.92C585.332 206.92 587.269 208.851 587.269 211.232C587.269 213.614 585.332 215.544 582.95 215.544C580.569 215.544 578.631 213.614 578.631 211.232ZM578.631 228.478C578.631 226.098 580.57 224.168 582.95 224.168C585.33 224.168 587.269 226.098 587.269 228.478C587.269 230.858 585.33 232.788 582.95 232.788C580.57 232.788 578.631 230.858 578.631 228.478ZM578.631 245.721C578.631 243.341 580.57 241.412 582.95 241.412C585.33 241.412 587.269 243.341 587.269 245.721C587.269 248.102 585.33 250.031 582.95 250.031C580.57 250.031 578.631 248.102 578.631 245.721ZM595.903 245.721C595.903 243.341 597.842 241.412 600.222 241.412C602.602 241.412 604.542 243.341 604.542 245.721C604.542 248.102 602.602 250.031 600.222 250.031C597.842 250.031 595.903 248.102 595.903 245.721ZM613.175 245.721C613.175 243.341 615.114 241.412 617.494 241.412C619.875 241.412 621.814 243.341 621.814 245.721C621.814 248.102 619.875 250.031 617.494 250.031C615.114 250.031 613.175 248.102 613.175 245.721ZM595.903 262.965C595.903 260.584 597.842 258.655 600.222 258.655C602.602 258.655 604.542 260.584 604.542 262.965C604.542 265.345 602.602 267.274 600.222 267.274C597.842 267.274 595.903 265.345 595.903 262.965ZM613.175 262.965C613.175 260.584 615.114 258.655 617.494 258.655C619.875 258.655 621.814 260.584 621.814 262.965C621.814 265.345 619.875 267.274 617.494 267.274C615.114 267.274 613.175 265.345 613.175 262.965ZM656.358 262.965C656.358 260.584 658.297 258.655 660.678 258.655C663.058 258.655 664.997 260.584 664.997 262.965C664.997 265.345 663.058 267.274 660.678 267.274C658.297 267.274 656.358 265.345 656.358 262.965ZM673.63 262.965C673.63 260.584 675.569 258.655 677.95 258.655C680.33 258.655 682.269 260.584 682.269 262.965C682.269 265.345 680.33 267.274 677.95 267.274C675.569 267.274 673.63 265.345 673.63 262.965ZM595.903 193.988C595.903 191.606 597.841 189.676 600.222 189.676C602.604 189.676 604.542 191.606 604.542 193.988C604.542 196.369 602.604 198.3 600.222 198.3C597.841 198.3 595.903 196.369 595.903 193.988ZM595.903 107.768C595.903 105.388 597.842 103.458 600.222 103.458C602.602 103.458 604.542 105.388 604.542 107.768C604.542 110.148 602.602 112.078 600.222 112.078C597.842 112.078 595.903 110.148 595.903 107.768ZM613.175 73.279C613.175 70.8976 615.113 68.967 617.494 68.967C619.876 68.967 621.814 70.8976 621.814 73.279C621.814 75.6605 619.876 77.591 617.494 77.591C615.113 77.591 613.175 75.6605 613.175 73.279ZM613.175 90.5223C613.175 88.1408 615.113 86.2103 617.494 86.2103C619.876 86.2103 621.814 88.1408 621.814 90.5223C621.814 92.9037 619.876 94.8343 617.494 94.8343C615.113 94.8343 613.175 92.9037 613.175 90.5223ZM613.175 125.011C613.175 122.631 615.114 120.702 617.494 120.702C619.875 120.702 621.814 122.631 621.814 125.011C621.814 127.391 619.875 129.321 617.494 129.321C615.114 129.321 613.175 127.391 613.175 125.011ZM613.175 107.768C613.175 105.388 615.114 103.458 617.494 103.458C619.875 103.458 621.814 105.388 621.814 107.768C621.814 110.148 619.875 112.078 617.494 112.078C615.114 112.078 613.175 110.148 613.175 107.768ZM630.452 73.279C630.452 70.8976 632.387 68.967 634.769 68.967C637.15 68.967 639.086 70.8976 639.086 73.279C639.086 75.6605 637.15 77.591 634.769 77.591C632.387 77.591 630.452 75.6605 630.452 73.279ZM630.452 90.5223C630.452 88.1408 632.387 86.2103 634.769 86.2103C637.15 86.2103 639.086 88.1408 639.086 90.5223C639.086 92.9037 637.15 94.8343 634.769 94.8343C632.387 94.8343 630.452 92.9037 630.452 90.5223ZM630.452 125.011C630.452 122.631 632.389 120.702 634.769 120.702C637.149 120.702 639.086 122.631 639.086 125.011C639.086 127.391 637.149 129.321 634.769 129.321C632.389 129.321 630.452 127.391 630.452 125.011ZM492.263 142.255C492.263 139.874 494.202 137.945 496.583 137.945C498.963 137.945 500.902 139.874 500.902 142.255C500.902 144.635 498.963 146.564 496.583 146.564C494.202 146.564 492.263 144.635 492.263 142.255ZM509.54 142.255C509.54 139.874 511.477 137.945 513.857 137.945C516.237 137.945 518.174 139.874 518.174 142.255C518.174 144.635 516.237 146.564 513.857 146.564C511.477 146.564 509.54 144.635 509.54 142.255ZM526.812 142.255C526.812 139.874 528.749 137.945 531.129 137.945C533.509 137.945 535.446 139.874 535.446 142.255C535.446 144.635 533.509 146.564 531.129 146.564C528.749 146.564 526.812 144.635 526.812 142.255ZM544.084 142.255C544.084 139.874 546.021 137.945 548.401 137.945C550.781 137.945 552.718 139.874 552.718 142.255C552.718 144.635 550.781 146.564 548.401 146.564C546.021 146.564 544.084 144.635 544.084 142.255ZM561.357 142.255C561.357 139.874 563.296 137.945 565.676 137.945C568.056 137.945 569.995 139.874 569.995 142.255C569.995 144.635 568.056 146.564 565.676 146.564C563.296 146.564 561.357 144.635 561.357 142.255ZM578.629 142.255C578.629 139.874 580.568 137.945 582.948 137.945C585.328 137.945 587.267 139.874 587.267 142.255C587.267 144.635 585.328 146.564 582.948 146.564C580.568 146.564 578.629 144.635 578.629 142.255ZM595.901 142.255C595.901 139.874 597.84 137.945 600.22 137.945C602.6 137.945 604.539 139.874 604.539 142.255C604.539 144.635 602.6 146.564 600.22 146.564C597.84 146.564 595.901 144.635 595.901 142.255ZM613.173 142.255C613.173 139.874 615.112 137.945 617.492 137.945C619.872 137.945 621.811 139.874 621.811 142.255C621.811 144.635 619.872 146.564 617.492 146.564C615.112 146.564 613.173 144.635 613.173 142.255ZM630.45 142.255C630.45 139.874 632.386 137.945 634.766 137.945C637.147 137.945 639.083 139.874 639.083 142.255C639.083 144.635 637.147 146.564 634.766 146.564C632.386 146.564 630.45 144.635 630.45 142.255ZM595.901 297.452C595.901 295.071 597.838 293.14 600.22 293.14C602.601 293.14 604.539 295.071 604.539 297.452C604.539 299.834 602.601 301.764 600.22 301.764C597.838 301.764 595.901 299.834 595.901 297.452ZM613.173 297.452C613.173 295.071 615.11 293.14 617.492 293.14C619.873 293.14 621.811 295.071 621.811 297.452C621.811 299.834 619.873 301.764 617.492 301.764C615.11 301.764 613.173 299.834 613.173 297.452ZM630.45 297.452C630.45 295.071 632.385 293.14 634.766 293.14C637.148 293.14 639.083 295.071 639.083 297.452C639.083 299.834 637.148 301.764 634.766 301.764C632.385 301.764 630.45 299.834 630.45 297.452ZM647.722 297.452C647.722 295.071 649.657 293.14 652.039 293.14C654.42 293.14 656.355 295.071 656.355 297.452C656.355 299.834 654.42 301.764 652.039 301.764C649.657 301.764 647.722 299.834 647.722 297.452ZM595.901 314.696C595.901 312.314 597.838 310.383 600.22 310.383C602.601 310.383 604.539 312.314 604.539 314.696C604.539 317.077 602.601 319.008 600.22 319.008C597.838 319.008 595.901 317.077 595.901 314.696ZM613.173 314.696C613.173 312.314 615.11 310.383 617.492 310.383C619.873 310.383 621.811 312.314 621.811 314.696C621.811 317.077 619.873 319.008 617.492 319.008C615.11 319.008 613.173 317.077 613.173 314.696ZM630.45 314.696C630.45 312.314 632.385 310.383 634.766 310.383C637.148 310.383 639.083 312.314 639.083 314.696C639.083 317.077 637.148 319.008 634.766 319.008C632.385 319.008 630.45 317.077 630.45 314.696ZM647.722 314.696C647.722 312.314 649.657 310.383 652.039 310.383C654.42 310.383 656.355 312.314 656.355 314.696C656.355 317.077 654.42 319.008 652.039 319.008C649.657 319.008 647.722 317.077 647.722 314.696ZM664.994 297.452C664.994 295.071 666.929 293.14 669.311 293.14C671.692 293.14 673.628 295.071 673.628 297.452C673.628 299.834 671.692 301.764 669.311 301.764C666.929 301.764 664.994 299.834 664.994 297.452ZM664.994 314.696C664.994 312.314 666.929 310.383 669.311 310.383C671.692 310.383 673.628 312.314 673.628 314.696C673.628 317.077 671.692 319.008 669.311 319.008C666.929 319.008 664.994 317.077 664.994 314.696ZM630.45 331.939C630.45 329.557 632.385 327.627 634.766 327.627C637.148 327.627 639.083 329.557 639.083 331.939C639.083 334.32 637.148 336.251 634.766 336.251C632.385 336.251 630.45 334.32 630.45 331.939ZM647.722 331.939C647.722 329.557 649.657 327.627 652.039 327.627C654.42 327.627 656.355 329.557 656.355 331.939C656.355 334.32 654.42 336.251 652.039 336.251C649.657 336.251 647.722 334.32 647.722 331.939ZM664.994 331.939C664.994 329.557 666.929 327.627 669.311 327.627C671.692 327.627 673.628 329.557 673.628 331.939C673.628 334.32 671.692 336.251 669.311 336.251C666.929 336.251 664.994 334.32 664.994 331.939ZM682.266 331.939C682.266 329.557 684.204 327.627 686.585 327.627C688.966 327.627 690.904 329.557 690.904 331.939C690.904 334.32 688.966 336.251 686.585 336.251C684.204 336.251 682.266 334.32 682.266 331.939ZM716.81 331.939C716.81 329.557 718.748 327.627 721.129 327.627C723.511 327.627 725.448 329.557 725.448 331.939C725.448 334.32 723.511 336.251 721.129 336.251C718.748 336.251 716.81 334.32 716.81 331.939ZM716.81 349.185C716.81 346.804 718.749 344.875 721.129 344.875C723.509 344.875 725.448 346.804 725.448 349.185C725.448 351.565 723.509 353.494 721.129 353.494C718.749 353.494 716.81 351.565 716.81 349.185ZM492.267 159.505C492.267 157.124 494.205 155.193 496.586 155.193C498.968 155.193 500.905 157.124 500.905 159.505C500.905 161.886 498.968 163.817 496.586 163.817C494.205 163.817 492.267 161.886 492.267 159.505ZM509.544 159.505C509.544 157.124 511.479 155.193 513.861 155.193C516.242 155.193 518.178 157.124 518.178 159.505C518.178 161.886 516.242 163.817 513.861 163.817C511.479 163.817 509.544 161.886 509.544 159.505ZM526.816 159.505C526.816 157.124 528.751 155.193 531.133 155.193C533.514 155.193 535.45 157.124 535.45 159.505C535.45 161.886 533.514 163.817 531.133 163.817C528.751 163.817 526.816 161.886 526.816 159.505ZM544.088 159.505C544.088 157.124 546.023 155.193 548.405 155.193C550.786 155.193 552.722 157.124 552.722 159.505C552.722 161.886 550.786 163.817 548.405 163.817C546.023 163.817 544.088 161.886 544.088 159.505ZM561.36 159.505C561.36 157.124 563.298 155.193 565.679 155.193C568.061 155.193 569.999 157.124 569.999 159.505C569.999 161.886 568.061 163.817 565.679 163.817C563.298 163.817 561.36 161.886 561.36 159.505ZM578.632 159.505C578.632 157.124 580.57 155.193 582.951 155.193C585.333 155.193 587.271 157.124 587.271 159.505C587.271 161.886 585.333 163.817 582.951 163.817C580.57 163.817 578.632 161.886 578.632 159.505ZM595.904 159.505C595.904 157.124 597.842 155.193 600.223 155.193C602.605 155.193 604.543 157.124 604.543 159.505C604.543 161.886 602.605 163.817 600.223 163.817C597.842 163.817 595.904 161.886 595.904 159.505ZM613.176 159.505C613.176 157.124 615.114 155.193 617.496 155.193C619.877 155.193 621.815 157.124 621.815 159.505C621.815 161.886 619.877 163.817 617.496 163.817C615.114 163.817 613.176 161.886 613.176 159.505ZM630.453 107.773C630.453 105.393 632.39 103.463 634.77 103.463C637.15 103.463 639.087 105.393 639.087 107.773C639.087 110.153 637.15 112.083 634.77 112.083C632.39 112.083 630.453 110.153 630.453 107.773ZM647.725 73.2839C647.725 70.9024 649.661 68.9718 652.042 68.9718C654.424 68.9718 656.359 70.9024 656.359 73.2839C656.359 75.6653 654.424 77.5959 652.042 77.5959C649.661 77.5959 647.725 75.6653 647.725 73.2839ZM647.725 90.5271C647.725 88.1457 649.661 86.2151 652.042 86.2151C654.424 86.2151 656.359 88.1457 656.359 90.5271C656.359 92.9086 654.424 94.8391 652.042 94.8391C649.661 94.8391 647.725 92.9086 647.725 90.5271ZM647.725 125.016C647.725 122.636 649.662 120.706 652.042 120.706C654.422 120.706 656.359 122.636 656.359 125.016C656.359 127.396 654.422 129.326 652.042 129.326C649.662 129.326 647.725 127.396 647.725 125.016ZM647.725 107.773C647.725 105.393 649.662 103.463 652.042 103.463C654.422 103.463 656.359 105.393 656.359 107.773C656.359 110.153 654.422 112.083 652.042 112.083C649.662 112.083 647.725 110.153 647.725 107.773ZM664.997 73.2839C664.997 70.9024 666.933 68.9718 669.314 68.9718C671.696 68.9718 673.631 70.9024 673.631 73.2839C673.631 75.6653 671.696 77.5959 669.314 77.5959C666.933 77.5959 664.997 75.6653 664.997 73.2839ZM474.999 56.0406C474.999 53.6591 476.936 51.7286 479.318 51.7286C481.699 51.7286 483.637 53.6591 483.637 56.0406C483.637 58.422 481.699 60.3526 479.318 60.3526C476.936 60.3526 474.999 58.422 474.999 56.0406ZM492.271 56.0406C492.271 53.6591 494.208 51.7286 496.59 51.7286C498.971 51.7286 500.909 53.6591 500.909 56.0406C500.909 58.422 498.971 60.3526 496.59 60.3526C494.208 60.3526 492.271 58.422 492.271 56.0406ZM474.999 38.7973C474.999 36.4159 476.936 34.4853 479.318 34.4853C481.699 34.4853 483.637 36.4159 483.637 38.7973C483.637 41.1788 481.699 43.1093 479.318 43.1093C476.936 43.1093 474.999 41.1788 474.999 38.7973ZM492.271 38.7973C492.271 36.4159 494.208 34.4853 496.59 34.4853C498.971 34.4853 500.909 36.4159 500.909 38.7973C500.909 41.1788 498.971 43.1093 496.59 43.1093C494.208 43.1093 492.271 41.1788 492.271 38.7973ZM509.548 56.0406C509.548 53.6591 511.483 51.7286 513.864 51.7286C516.246 51.7286 518.181 53.6591 518.181 56.0406C518.181 58.422 516.246 60.3526 513.864 60.3526C511.483 60.3526 509.548 58.422 509.548 56.0406ZM526.82 56.0406C526.82 53.6591 528.755 51.7286 531.136 51.7286C533.518 51.7286 535.453 53.6591 535.453 56.0406C535.453 58.422 533.518 60.3526 531.136 60.3526C528.755 60.3526 526.82 58.422 526.82 56.0406ZM544.092 56.0406C544.092 53.6591 546.027 51.7286 548.409 51.7286C550.79 51.7286 552.725 53.6591 552.725 56.0406C552.725 58.422 550.79 60.3526 548.409 60.3526C546.027 60.3526 544.092 58.422 544.092 56.0406ZM561.364 56.0406C561.364 53.6591 563.301 51.7286 565.683 51.7286C568.064 51.7286 570.002 53.6591 570.002 56.0406C570.002 58.422 568.064 60.3526 565.683 60.3526C563.301 60.3526 561.364 58.422 561.364 56.0406ZM578.636 56.0406C578.636 53.6591 580.574 51.7286 582.955 51.7286C585.336 51.7286 587.274 53.6591 587.274 56.0406C587.274 58.422 585.336 60.3526 582.955 60.3526C580.574 60.3526 578.636 58.422 578.636 56.0406ZM544.092 38.7973C544.092 36.4159 546.027 34.4853 548.409 34.4853C550.79 34.4853 552.725 36.4159 552.725 38.7973C552.725 41.1788 550.79 43.1093 548.409 43.1093C546.027 43.1093 544.092 41.1788 544.092 38.7973ZM561.364 38.7973C561.364 36.4159 563.302 34.4853 565.683 34.4853C568.064 34.4853 570.002 36.4159 570.002 38.7973C570.002 41.1788 568.064 43.1093 565.683 43.1093C563.302 43.1093 561.364 41.1788 561.364 38.7973ZM561.364 21.5517C561.364 19.1716 563.303 17.2421 565.683 17.2421C568.063 17.2421 570.002 19.1716 570.002 21.5517C570.002 23.9319 568.063 25.8614 565.683 25.8614C563.303 25.8614 561.364 23.9319 561.364 21.5517ZM578.636 38.7973C578.636 36.4159 580.574 34.4853 582.955 34.4853C585.336 34.4853 587.274 36.4159 587.274 38.7973C587.274 41.1788 585.336 43.1093 582.955 43.1093C580.574 43.1093 578.636 41.1788 578.636 38.7973ZM595.908 56.0406C595.908 53.6591 597.846 51.7286 600.227 51.7286C602.609 51.7286 604.546 53.6591 604.546 56.0406C604.546 58.422 602.609 60.3526 600.227 60.3526C597.846 60.3526 595.908 58.422 595.908 56.0406ZM613.18 56.0406C613.18 53.6591 615.118 51.7286 617.499 51.7286C619.881 51.7286 621.818 53.6591 621.818 56.0406C621.818 58.422 619.881 60.3526 617.499 60.3526C615.118 60.3526 613.18 58.422 613.18 56.0406ZM630.457 56.0406C630.457 53.6591 632.392 51.7286 634.774 51.7286C637.155 51.7286 639.091 53.6591 639.091 56.0406C639.091 58.422 637.155 60.3526 634.774 60.3526C632.392 60.3526 630.457 58.422 630.457 56.0406ZM647.729 56.0406C647.729 53.6591 649.664 51.7286 652.046 51.7286C654.427 51.7286 656.363 53.6591 656.363 56.0406C656.363 58.422 654.427 60.3526 652.046 60.3526C649.664 60.3526 647.729 58.422 647.729 56.0406ZM665.001 56.0406C665.001 53.6591 666.936 51.7286 669.318 51.7286C671.699 51.7286 673.635 53.6591 673.635 56.0406C673.635 58.422 671.699 60.3526 669.318 60.3526C666.936 60.3526 665.001 58.422 665.001 56.0406ZM665.001 38.7973C665.001 36.4159 666.936 34.4853 669.318 34.4853C671.699 34.4853 673.635 36.4159 673.635 38.7973C673.635 41.1788 671.699 43.1093 669.318 43.1093C666.936 43.1093 665.001 41.1788 665.001 38.7973ZM665.001 90.5271C665.001 88.1457 666.936 86.2151 669.318 86.2151C671.699 86.2151 673.635 88.1457 673.635 90.5271C673.635 92.9086 671.699 94.8391 669.318 94.8391C666.936 94.8391 665.001 92.9086 665.001 90.5271ZM682.273 73.2839C682.273 70.9024 684.211 68.9718 686.592 68.9718C688.974 68.9718 690.911 70.9024 690.911 73.2839C690.911 75.6653 688.974 77.5959 686.592 77.5959C684.211 77.5959 682.273 75.6653 682.273 73.2839ZM682.273 90.5271C682.273 88.1457 684.211 86.2151 686.592 86.2151C688.974 86.2151 690.911 88.1457 690.911 90.5271C690.911 92.9086 688.974 94.8391 686.592 94.8391C684.211 94.8391 682.273 92.9086 682.273 90.5271ZM699.545 73.2839C699.545 70.9024 701.483 68.9718 703.864 68.9718C706.246 68.9718 708.184 70.9024 708.184 73.2839C708.184 75.6653 706.246 77.5959 703.864 77.5959C701.483 77.5959 699.545 75.6653 699.545 73.2839ZM699.545 90.5271C699.545 88.1457 701.483 86.2151 703.864 86.2151C706.246 86.2151 708.184 88.1457 708.184 90.5271C708.184 92.9086 706.246 94.8391 703.864 94.8391C701.483 94.8391 699.545 92.9086 699.545 90.5271ZM716.817 73.2839C716.817 70.9024 718.755 68.9718 721.136 68.9718C723.518 68.9718 725.456 70.9024 725.456 73.2839C725.456 75.6653 723.518 77.5959 721.136 77.5959C718.755 77.5959 716.817 75.6653 716.817 73.2839ZM734.089 73.2839C734.089 70.9024 736.027 68.9718 738.409 68.9718C740.79 68.9718 742.728 70.9024 742.728 73.2839C742.728 75.6653 740.79 77.5959 738.409 77.5959C736.027 77.5959 734.089 75.6653 734.089 73.2839ZM751.366 73.2839C751.366 70.9024 753.302 68.9718 755.683 68.9718C758.065 68.9718 760 70.9024 760 73.2839C760 75.6653 758.065 77.5959 755.683 77.5959C753.302 77.5959 751.366 75.6653 751.366 73.2839ZM716.817 90.5271C716.817 88.1457 718.755 86.2151 721.136 86.2151C723.518 86.2151 725.456 88.1457 725.456 90.5271C725.456 92.9086 723.518 94.8391 721.136 94.8391C718.755 94.8391 716.817 92.9086 716.817 90.5271ZM699.545 107.773C699.545 105.393 701.484 103.463 703.864 103.463C706.245 103.463 708.184 105.393 708.184 107.773C708.184 110.153 706.245 112.083 703.864 112.083C701.484 112.083 699.545 110.153 699.545 107.773ZM405.902 142.259C405.902 139.879 407.838 137.95 410.219 137.95C412.599 137.95 414.535 139.879 414.535 142.259C414.535 144.64 412.599 146.569 410.219 146.569C407.838 146.569 405.902 144.64 405.902 142.259ZM423.174 159.505C423.174 157.124 425.109 155.193 427.491 155.193C429.872 155.193 431.808 157.124 431.808 159.505C431.808 161.886 429.872 163.817 427.491 163.817C425.109 163.817 423.174 161.886 423.174 159.505ZM440.446 159.505C440.446 157.124 442.384 155.193 444.765 155.193C447.147 155.193 449.084 157.124 449.084 159.505C449.084 161.886 447.147 163.817 444.765 163.817C442.384 163.817 440.446 161.886 440.446 159.505ZM354.079 142.259C354.079 139.879 356.018 137.95 358.399 137.95C360.779 137.95 362.718 139.879 362.718 142.259C362.718 144.64 360.779 146.569 358.399 146.569C356.018 146.569 354.079 144.64 354.079 142.259ZM354.079 107.773C354.079 105.393 356.018 103.463 358.399 103.463C360.779 103.463 362.718 105.393 362.718 107.773C362.718 110.153 360.779 112.083 358.399 112.083C356.018 112.083 354.079 110.153 354.079 107.773Z" fill="#97C3F3" fill-opacity="0.7"/>
</svg>
